<?xml version="1.0" encoding="utf-8"?>
<!-- Generator: Adobe Illustrator 19.0.0, SVG Export Plug-In . SVG Version: 6.00 Build 0)  -->
<svg version="1.1" id="Layer_1" xmlns="http://www.w3.org/2000/svg" xmlns:xlink="http://www.w3.org/1999/xlink" x="0px" y="0px"
	 viewBox="0 0 74.9 42.6" style="enable-background:new 0 0 74.9 42.6;" xml:space="preserve">
<style type="text/css">
	.st0{fill:#010202;}
	.st1{fill:#2B3F51;}
</style>
<g>
	<g>
		<path class="st0" d="M60.5,37.6c0-0.2,0.1-0.4,0.2-0.5c0.1-0.1,0.3-0.2,0.4-0.2c0.2,0,0.3,0.1,0.5,0.2c0.1,0.1,0.2,0.3,0.2,0.5
			v1.5l1.7-1.9c0.1-0.1,0.2-0.2,0.3-0.3c0.1,0,0.2-0.1,0.3-0.1c0.1,0,0.3,0.1,0.4,0.2c0.1,0.1,0.2,0.3,0.2,0.4c0,0.1,0,0.2-0.1,0.3
			c0,0.1-0.1,0.2-0.2,0.2l-1.5,1.5l1.6,1.8c0.1,0.1,0.2,0.2,0.2,0.3c0.1,0.1,0.1,0.2,0.1,0.3c0,0.2-0.1,0.3-0.2,0.5
			c-0.1,0.1-0.3,0.2-0.5,0.2c-0.1,0-0.3-0.1-0.4-0.2c-0.1-0.1-0.2-0.2-0.3-0.4l-1.7-2v1.8c0,0.2-0.1,0.4-0.2,0.5
			c-0.1,0.1-0.3,0.2-0.4,0.2c-0.2,0-0.3-0.1-0.5-0.2c-0.1-0.1-0.2-0.3-0.2-0.5V37.6z M57,39.3h0.8c0.2,0,0.4-0.1,0.5-0.2
			c0.1-0.1,0.2-0.3,0.2-0.4c0-0.2-0.1-0.3-0.2-0.4c-0.1-0.1-0.3-0.2-0.5-0.2H57V39.3z M55.8,37.6c0-0.2,0.1-0.4,0.2-0.5
			c0.1-0.1,0.3-0.2,0.4-0.2h1.5c0.5,0,1,0.2,1.3,0.5c0.3,0.3,0.5,0.7,0.5,1.2c0,0.4-0.1,0.7-0.3,1c-0.2,0.3-0.5,0.4-0.9,0.5l1.1,1.2
			c0.1,0.1,0.2,0.2,0.2,0.3c0,0.1,0.1,0.2,0.1,0.3c0,0.1,0,0.2-0.1,0.4c-0.1,0.1-0.3,0.2-0.5,0.2c-0.2,0-0.3,0-0.3-0.1
			c-0.1,0-0.2-0.1-0.3-0.2l-1.5-1.9l0,1.6c0,0.2-0.1,0.4-0.2,0.5c-0.1,0.1-0.3,0.2-0.4,0.2c-0.2,0-0.3-0.1-0.5-0.2
			c-0.1-0.1-0.2-0.3-0.2-0.5V37.6z M51.3,39.7c0,0.5,0.1,0.9,0.3,1.2c0.2,0.4,0.6,0.5,1,0.5c0.4,0,0.8-0.2,1-0.5
			c0.2-0.3,0.3-0.7,0.3-1.2c0-0.5-0.1-0.9-0.3-1.2c-0.2-0.4-0.6-0.5-1-0.5c-0.4,0-0.8,0.2-1,0.5C51.4,38.8,51.3,39.2,51.3,39.7
			 M55.3,39.7c0,0.9-0.2,1.6-0.7,2.1c-0.5,0.5-1.1,0.8-1.9,0.8c-0.8,0-1.5-0.3-1.9-0.8c-0.5-0.5-0.7-1.2-0.7-2.1
			c0-0.9,0.2-1.6,0.7-2.1c0.5-0.5,1.1-0.8,1.9-0.8c0.8,0,1.5,0.3,1.9,0.8C55.1,38.1,55.3,38.8,55.3,39.7 M42.7,38.2
			c0-0.1-0.1-0.2-0.1-0.3c0-0.1,0-0.2,0-0.3c0-0.2,0.1-0.3,0.2-0.4c0.1-0.1,0.3-0.2,0.4-0.2c0.2,0,0.3,0,0.4,0.1
			c0.1,0.1,0.2,0.2,0.2,0.4l0.6,3l0.9-2.9c0.1-0.2,0.2-0.4,0.3-0.5c0.1-0.1,0.2-0.1,0.4-0.1c0.2,0,0.3,0,0.4,0.1
			c0.1,0.1,0.2,0.3,0.3,0.5l0.9,2.9l0.6-3c0-0.2,0.1-0.3,0.2-0.4c0.1-0.1,0.3-0.2,0.5-0.2c0.2,0,0.3,0.1,0.5,0.2
			c0.1,0.1,0.2,0.3,0.2,0.4c0,0.1,0,0.2-0.1,0.3c0,0.1-0.1,0.2-0.1,0.3l-0.8,3.4c-0.1,0.3-0.1,0.5-0.2,0.6c-0.1,0.2-0.4,0.4-0.7,0.4
			c-0.4,0-0.7-0.2-0.9-0.7l-0.8-2.5l-0.8,2.5c-0.1,0.2-0.2,0.4-0.3,0.5c-0.1,0.1-0.3,0.2-0.6,0.2c-0.3,0-0.5-0.1-0.6-0.2
			c-0.1-0.1-0.2-0.4-0.3-0.7L42.7,38.2z M40,38.1h-0.7c-0.2,0-0.4-0.1-0.5-0.2c-0.1-0.1-0.2-0.2-0.2-0.4c0-0.4,0.2-0.6,0.6-0.6h2.6
			c0.4,0,0.6,0.2,0.6,0.6c0,0.2-0.1,0.3-0.2,0.4c-0.1,0.1-0.3,0.2-0.5,0.2h-0.7v3.7c0,0.2-0.1,0.4-0.2,0.5c-0.1,0.1-0.3,0.2-0.4,0.2
			c-0.2,0-0.3-0.1-0.5-0.2C40,42.2,40,42.1,40,41.8V38.1z M35.5,37.6c0-0.2,0.1-0.4,0.2-0.5c0.1-0.1,0.3-0.2,0.4-0.2H38
			c0.2,0,0.4,0.1,0.5,0.2c0.1,0.1,0.2,0.2,0.2,0.4c0,0.2-0.1,0.3-0.2,0.4c-0.1,0.1-0.3,0.2-0.5,0.2h-1.3v1h1.2
			c0.2,0,0.3,0.1,0.5,0.2c0.1,0.1,0.2,0.2,0.2,0.4c0,0.4-0.2,0.6-0.6,0.6h-1.2v1H38c0.2,0,0.4,0.1,0.5,0.2c0.1,0.1,0.2,0.2,0.2,0.4
			c0,0.2-0.1,0.3-0.2,0.4c-0.1,0.1-0.3,0.2-0.5,0.2h-1.9c-0.2,0-0.3-0.1-0.4-0.2c-0.1-0.1-0.2-0.3-0.2-0.5V37.6z M30.1,37.6
			c0-0.2,0.1-0.4,0.2-0.5c0.1-0.1,0.3-0.2,0.4-0.2c0.2,0,0.3,0.1,0.5,0.2c0.1,0.1,0.2,0.2,0.4,0.5l2.1,2.6l0-2.6
			c0-0.2,0.1-0.4,0.2-0.5c0.1-0.1,0.3-0.2,0.4-0.2c0.2,0,0.3,0.1,0.5,0.2c0.1,0.1,0.2,0.3,0.2,0.5v4.3c0,0.2-0.1,0.4-0.2,0.5
			c-0.1,0.1-0.3,0.2-0.4,0.2c-0.2,0-0.3-0.1-0.5-0.2c-0.1-0.1-0.2-0.2-0.4-0.4l-2.1-2.6l0,2.6c0,0.2-0.1,0.4-0.2,0.5
			c-0.1,0.1-0.3,0.2-0.4,0.2c-0.2,0-0.3-0.1-0.5-0.2c-0.1-0.1-0.2-0.3-0.2-0.5V37.6z M66.2,32.5c0.1,0,0.3,0.1,0.5,0.2
			c0.3,0.1,0.6,0.2,0.8,0.2c0.2,0,0.4-0.1,0.5-0.2c0.1-0.1,0.2-0.2,0.2-0.4c0-0.2-0.2-0.4-0.5-0.5c-0.1,0-0.3-0.1-0.7-0.2
			c-0.5-0.2-0.9-0.4-1.1-0.6c-0.2-0.2-0.3-0.5-0.3-0.9c0-0.6,0.2-1,0.6-1.3c0.4-0.3,0.8-0.4,1.4-0.4c0.5,0,0.9,0.1,1.1,0.2
			c0.3,0.2,0.4,0.4,0.4,0.6c0,0.2-0.1,0.3-0.2,0.4c-0.1,0.1-0.2,0.2-0.4,0.2c-0.1,0-0.3,0-0.6-0.1c-0.2-0.1-0.3-0.1-0.5-0.1
			c-0.2,0-0.3,0-0.4,0.1C67.1,29.8,67,29.9,67,30c0,0.2,0.1,0.3,0.4,0.4c0.3,0.1,0.5,0.2,0.7,0.3c0.4,0.1,0.7,0.3,0.9,0.5
			c0.3,0.3,0.4,0.6,0.4,1.1c0,0.6-0.2,1.1-0.6,1.4c-0.4,0.3-0.9,0.4-1.5,0.4c-0.4,0-0.8-0.1-1.2-0.2c-0.4-0.2-0.6-0.4-0.6-0.7
			c0-0.2,0.1-0.3,0.2-0.5C65.9,32.6,66,32.5,66.2,32.5 M62.1,29.1c0-0.2,0.1-0.4,0.2-0.5c0.1-0.1,0.3-0.2,0.4-0.2h1.9
			c0.2,0,0.4,0.1,0.5,0.2c0.1,0.1,0.2,0.2,0.2,0.4c0,0.2-0.1,0.3-0.2,0.4c-0.1,0.1-0.3,0.2-0.5,0.2h-1.3v1h1.2
			c0.2,0,0.3,0.1,0.5,0.2c0.1,0.1,0.2,0.2,0.2,0.4c0,0.4-0.2,0.6-0.6,0.6h-1.2v1h1.3c0.2,0,0.4,0.1,0.5,0.2c0.1,0.1,0.2,0.2,0.2,0.4
			c0,0.2-0.1,0.3-0.2,0.4C65,33.9,64.8,34,64.6,34h-1.9c-0.2,0-0.3-0.1-0.4-0.2c-0.1-0.1-0.2-0.3-0.2-0.5V29.1z M61.5,33.4
			c0,0.2-0.1,0.4-0.2,0.5C61.2,34,61,34,60.9,34c-0.2,0-0.3-0.1-0.5-0.2c-0.1-0.1-0.2-0.3-0.2-0.5v-4.3c0-0.2,0.1-0.4,0.2-0.5
			c0.1-0.1,0.3-0.2,0.4-0.2c0.2,0,0.3,0.1,0.5,0.2c0.1,0.1,0.2,0.3,0.2,0.5V33.4z M56.9,30.8h0.8c0.2,0,0.4-0.1,0.5-0.2
			c0.1-0.1,0.2-0.3,0.2-0.4c0-0.2-0.1-0.3-0.2-0.4c-0.1-0.1-0.3-0.2-0.5-0.2h-0.8V30.8z M55.6,29.1c0-0.2,0.1-0.4,0.2-0.5
			c0.1-0.1,0.3-0.2,0.4-0.2h1.5c0.6,0,1,0.2,1.3,0.5c0.3,0.3,0.5,0.7,0.5,1.2c0,0.4-0.1,0.7-0.3,1c-0.2,0.3-0.5,0.4-0.9,0.5l1.1,1.2
			c0.1,0.1,0.2,0.2,0.2,0.3c0,0.1,0.1,0.2,0.1,0.3c0,0.1,0,0.2-0.1,0.4C59.4,33.9,59.2,34,59,34c-0.2,0-0.3,0-0.3-0.1
			c-0.1,0-0.2-0.1-0.3-0.2l-1.5-1.9l0,1.6c0,0.2-0.1,0.4-0.2,0.5C56.6,34,56.4,34,56.2,34c-0.2,0-0.3-0.1-0.5-0.2
			c-0.1-0.1-0.2-0.3-0.2-0.5V29.1z M53,29.6h-0.7c-0.2,0-0.4-0.1-0.5-0.2c-0.1-0.1-0.2-0.2-0.2-0.4c0-0.4,0.2-0.6,0.6-0.6h2.6
			c0.4,0,0.6,0.2,0.6,0.6c0,0.2-0.1,0.3-0.2,0.4c-0.1,0.1-0.3,0.2-0.5,0.2h-0.7v3.7c0,0.2-0.1,0.4-0.2,0.5C54,34,53.8,34,53.6,34
			c-0.2,0-0.3-0.1-0.5-0.2c-0.1-0.1-0.2-0.3-0.2-0.5V29.6z M48.4,32.5c0.1,0,0.3,0.1,0.5,0.2c0.3,0.1,0.6,0.2,0.8,0.2
			c0.2,0,0.4-0.1,0.5-0.2c0.1-0.1,0.2-0.2,0.2-0.4c0-0.2-0.2-0.4-0.5-0.5c-0.1,0-0.3-0.1-0.7-0.2c-0.5-0.2-0.9-0.4-1.1-0.6
			c-0.2-0.2-0.3-0.5-0.3-0.9c0-0.6,0.2-1,0.6-1.3c0.4-0.3,0.8-0.4,1.4-0.4c0.5,0,0.9,0.1,1.1,0.2c0.3,0.2,0.4,0.4,0.4,0.6
			c0,0.2-0.1,0.3-0.2,0.4c-0.1,0.1-0.2,0.2-0.4,0.2c-0.1,0-0.3,0-0.6-0.1c-0.2-0.1-0.3-0.1-0.5-0.1c-0.2,0-0.3,0-0.4,0.1
			c-0.1,0.1-0.2,0.2-0.2,0.3c0,0.2,0.1,0.3,0.4,0.4c0.3,0.1,0.5,0.2,0.7,0.3c0.4,0.1,0.7,0.3,0.9,0.5c0.3,0.3,0.4,0.6,0.4,1.1
			c0,0.6-0.2,1.1-0.6,1.4c-0.4,0.3-0.9,0.4-1.5,0.4c-0.4,0-0.8-0.1-1.2-0.2c-0.4-0.2-0.6-0.4-0.6-0.7c0-0.2,0.1-0.3,0.2-0.5
			C48.1,32.6,48.2,32.5,48.4,32.5 M43.9,31.8c0,0.4,0.1,0.6,0.3,0.8c0.2,0.2,0.5,0.3,0.8,0.3c0.3,0,0.6-0.1,0.8-0.3
			c0.2-0.2,0.3-0.5,0.3-0.8v-2.7c0-0.2,0.1-0.4,0.2-0.5c0.1-0.1,0.3-0.2,0.4-0.2c0.2,0,0.3,0.1,0.5,0.2c0.1,0.1,0.2,0.3,0.2,0.5v2.7
			c0,0.7-0.2,1.3-0.7,1.7c-0.4,0.4-1,0.6-1.7,0.6c-0.7,0-1.3-0.2-1.7-0.6c-0.4-0.4-0.7-1-0.7-1.7v-2.7c0-0.2,0.1-0.4,0.2-0.5
			c0.1-0.1,0.3-0.2,0.4-0.2c0.2,0,0.3,0.1,0.5,0.2c0.1,0.1,0.2,0.3,0.2,0.5V31.8z M38.7,32.8h0.7c0.5,0,0.8-0.2,1.1-0.5
			c0.2-0.3,0.3-0.7,0.3-1.2c0-0.5-0.1-0.9-0.3-1.1c-0.2-0.3-0.6-0.4-1-0.4h-0.7V32.8z M37.4,29.1c0-0.2,0.1-0.4,0.2-0.5
			c0.1-0.1,0.3-0.2,0.4-0.2h1.5c0.8,0,1.4,0.3,1.9,0.8c0.4,0.5,0.7,1.1,0.7,1.9c0,0.9-0.3,1.6-0.8,2.1c-0.5,0.5-1.1,0.7-1.8,0.7
			h-1.5c-0.2,0-0.3-0.1-0.4-0.2c-0.1-0.1-0.2-0.3-0.2-0.5V29.1z M32,29.1c0-0.2,0.1-0.4,0.2-0.5c0.1-0.1,0.3-0.2,0.4-0.2
			c0.2,0,0.3,0.1,0.5,0.2c0.1,0.1,0.2,0.2,0.4,0.5l2.1,2.6l0-2.6c0-0.2,0.1-0.4,0.2-0.5c0.1-0.1,0.3-0.2,0.4-0.2
			c0.2,0,0.3,0.1,0.5,0.2c0.1,0.1,0.2,0.3,0.2,0.5v4.3c0,0.2-0.1,0.4-0.2,0.5C36.5,34,36.4,34,36.2,34c-0.2,0-0.3-0.1-0.5-0.2
			c-0.1-0.1-0.2-0.2-0.4-0.4l-2.1-2.6l0,2.6c0,0.2-0.1,0.4-0.2,0.5C33,34,32.8,34,32.7,34c-0.2,0-0.3-0.1-0.5-0.2
			c-0.1-0.1-0.2-0.3-0.2-0.5V29.1z M31.3,33.4c0,0.2-0.1,0.4-0.2,0.5C31,34,30.9,34,30.7,34c-0.2,0-0.3-0.1-0.5-0.2
			c-0.1-0.1-0.2-0.3-0.2-0.5v-4.3c0-0.2,0.1-0.4,0.2-0.5c0.1-0.1,0.3-0.2,0.4-0.2c0.2,0,0.3,0.1,0.5,0.2c0.1,0.1,0.2,0.3,0.2,0.5
			V33.4z M58.3,20.6c0-0.2,0.1-0.4,0.2-0.5c0.1-0.1,0.3-0.2,0.4-0.2h1.9c0.2,0,0.4,0.1,0.5,0.2c0.1,0.1,0.2,0.2,0.2,0.4
			c0,0.2-0.1,0.3-0.2,0.4c-0.1,0.1-0.3,0.2-0.5,0.2h-1.3v1h1.2c0.2,0,0.3,0.1,0.5,0.2c0.1,0.1,0.2,0.2,0.2,0.4
			c0,0.4-0.2,0.6-0.6,0.6h-1.2v1h1.3c0.2,0,0.4,0.1,0.5,0.2c0.1,0.1,0.2,0.2,0.2,0.4c0,0.2-0.1,0.3-0.2,0.4
			c-0.1,0.1-0.3,0.2-0.5,0.2h-1.9c-0.2,0-0.3-0.1-0.4-0.2c-0.1-0.1-0.2-0.3-0.2-0.5V20.6z M56.6,20.5c0.1-0.2,0.1-0.3,0.2-0.4
			c0.1-0.1,0.3-0.2,0.5-0.2c0.2,0,0.3,0.1,0.4,0.2c0.1,0.1,0.2,0.3,0.2,0.4c0,0.1,0,0.1,0,0.2c0,0.1-0.1,0.2-0.1,0.2l-1.5,3.9
			c-0.1,0.2-0.2,0.4-0.2,0.5c-0.1,0.1-0.3,0.2-0.5,0.2c-0.2,0-0.4-0.1-0.5-0.2c-0.1-0.1-0.1-0.2-0.2-0.5L53.3,21
			c0-0.1,0-0.1-0.1-0.2c0-0.1-0.1-0.2-0.1-0.2c0-0.2,0.1-0.3,0.2-0.4c0.1-0.1,0.3-0.2,0.4-0.2c0.2,0,0.4,0.1,0.5,0.2
			c0.1,0.1,0.1,0.2,0.2,0.4l1.1,2.8L56.6,20.5z M52.6,24.9c0,0.2-0.1,0.4-0.2,0.5c-0.1,0.1-0.3,0.2-0.4,0.2c-0.2,0-0.3-0.1-0.5-0.2
			c-0.1-0.1-0.2-0.3-0.2-0.5v-4.3c0-0.2,0.1-0.4,0.2-0.5c0.1-0.1,0.3-0.2,0.4-0.2c0.2,0,0.3,0.1,0.5,0.2c0.1,0.1,0.2,0.3,0.2,0.5
			V24.9z M48.6,21.1h-0.7c-0.2,0-0.4-0.1-0.5-0.2c-0.1-0.1-0.2-0.2-0.2-0.4c0-0.4,0.2-0.6,0.6-0.6h2.6c0.4,0,0.6,0.2,0.6,0.6
			c0,0.2-0.1,0.3-0.2,0.4c-0.1,0.1-0.3,0.2-0.5,0.2h-0.7v3.7c0,0.2-0.1,0.4-0.2,0.5c-0.1,0.1-0.3,0.2-0.4,0.2
			c-0.2,0-0.3-0.1-0.5-0.2c-0.1-0.1-0.2-0.3-0.2-0.5V21.1z M45,21.3l-0.7,2h1.3L45,21.3z M43.9,21c0.1-0.4,0.3-0.7,0.4-0.8
			c0.2-0.2,0.4-0.3,0.7-0.3c0.2,0,0.4,0.1,0.6,0.2c0.1,0.1,0.3,0.4,0.5,0.9l1.2,3.2c0.1,0.2,0.1,0.4,0.2,0.5c0,0.1,0,0.2,0,0.3
			c0,0.2-0.1,0.3-0.2,0.4c-0.1,0.1-0.3,0.1-0.4,0.1c-0.2,0-0.3-0.1-0.4-0.2c-0.1-0.1-0.2-0.2-0.2-0.4L46,24.4h-2l-0.2,0.5
			c-0.1,0.2-0.1,0.3-0.2,0.4c-0.1,0.1-0.2,0.2-0.4,0.2c-0.2,0-0.3,0-0.4-0.1c-0.1-0.1-0.2-0.2-0.2-0.4c0-0.1,0-0.2,0-0.3
			c0-0.1,0.1-0.3,0.1-0.5L43.9,21z M39.1,20.6c0-0.2,0.1-0.4,0.2-0.5c0.1-0.1,0.3-0.2,0.4-0.2h1.9c0.2,0,0.4,0.1,0.5,0.2
			c0.1,0.1,0.2,0.2,0.2,0.4c0,0.2-0.1,0.3-0.2,0.4c-0.1,0.1-0.3,0.2-0.5,0.2h-1.3v1h1.2c0.2,0,0.3,0.1,0.5,0.2
			c0.1,0.1,0.2,0.2,0.2,0.4c0,0.4-0.2,0.6-0.6,0.6h-1.2v1h1.3c0.2,0,0.4,0.1,0.5,0.2c0.1,0.1,0.2,0.2,0.2,0.4c0,0.2-0.1,0.3-0.2,0.4
			c-0.1,0.1-0.3,0.2-0.5,0.2h-1.9c-0.2,0-0.3-0.1-0.4-0.2c-0.1-0.1-0.2-0.3-0.2-0.5V20.6z M35.8,22.4h0.8c0.2,0,0.4-0.1,0.5-0.2
			c0.1-0.1,0.2-0.3,0.2-0.4c0-0.2-0.1-0.3-0.2-0.4c-0.1-0.1-0.3-0.2-0.5-0.2h-0.8V22.4z M34.6,20.6c0-0.2,0.1-0.4,0.2-0.5
			C34.9,20,35,20,35.2,20h1.5c0.6,0,1,0.2,1.3,0.5c0.3,0.3,0.5,0.7,0.5,1.2c0,0.4-0.1,0.7-0.3,1c-0.2,0.3-0.5,0.4-0.9,0.5l1.1,1.2
			c0.1,0.1,0.2,0.2,0.2,0.3c0,0.1,0.1,0.2,0.1,0.3c0,0.1,0,0.2-0.1,0.4c-0.1,0.1-0.3,0.2-0.5,0.2c-0.2,0-0.3,0-0.3-0.1
			c-0.1,0-0.2-0.1-0.3-0.2l-1.5-1.9l0,1.6c0,0.2-0.1,0.4-0.2,0.5c-0.1,0.1-0.3,0.2-0.4,0.2c-0.2,0-0.3-0.1-0.5-0.2
			c-0.1-0.1-0.2-0.3-0.2-0.5V20.6z M32.5,19.9c0.4,0,0.8,0.1,1.1,0.2c0.4,0.2,0.5,0.4,0.5,0.7c0,0.2,0,0.3-0.1,0.4
			c-0.1,0.1-0.2,0.2-0.4,0.2c-0.1,0-0.2-0.1-0.6-0.2c-0.2-0.1-0.3-0.1-0.5-0.1c-0.5,0-0.8,0.2-1.1,0.5c-0.2,0.3-0.3,0.7-0.3,1.2
			c0,0.5,0.1,0.9,0.3,1.2c0.2,0.3,0.5,0.5,1,0.5c0.3,0,0.5,0,0.7-0.1c0.2-0.1,0.4-0.1,0.6-0.2c0.2,0,0.4,0.1,0.5,0.2
			c0.1,0.1,0.1,0.2,0.1,0.4c0,0.3-0.2,0.6-0.6,0.7c-0.3,0.1-0.7,0.2-1.1,0.2c-0.8,0-1.5-0.3-2-0.8c-0.5-0.5-0.7-1.2-0.7-2
			c0-0.8,0.2-1.5,0.7-2.1C31.1,20.1,31.7,19.9,32.5,19.9 M68.6,12.2c0.1-0.3,0.2-0.5,0.3-0.6c0.1-0.1,0.3-0.1,0.5-0.1
			c0.3,0,0.5,0.1,0.6,0.3c0.1,0.1,0.2,0.5,0.4,1.1l0.6,1.9l0.6-1.9c0.1-0.4,0.2-0.7,0.3-0.9c0.2-0.3,0.4-0.5,0.8-0.5
			c0.2,0,0.4,0,0.5,0.1c0.2,0.1,0.3,0.3,0.3,0.6l0.5,2.8c0.1,0.5,0.1,0.8,0.2,1c0,0.2,0,0.3,0,0.4c0,0.2-0.1,0.3-0.2,0.4
			C74,17,73.8,17,73.7,17c-0.2,0-0.4-0.1-0.5-0.3c-0.1-0.1-0.1-0.3-0.2-0.6l-0.4-2.4l-0.8,2.7c-0.1,0.2-0.1,0.3-0.2,0.4
			C71.4,17,71.2,17,71.1,17c-0.2,0-0.3,0-0.4-0.1c-0.1-0.1-0.2-0.2-0.3-0.4l-0.8-2.7l-0.4,2.4c-0.1,0.3-0.1,0.6-0.2,0.7
			C68.8,17,68.6,17,68.4,17c-0.2,0-0.3-0.1-0.4-0.2c-0.1-0.1-0.2-0.3-0.2-0.4c0-0.1,0-0.2,0-0.4c0,0,0.1-0.3,0.2-1L68.6,12.2z
			 M65.2,12.8l-0.7,2h1.3L65.2,12.8z M64.1,12.5c0.1-0.4,0.3-0.7,0.4-0.8c0.2-0.2,0.4-0.3,0.7-0.3c0.2,0,0.4,0.1,0.6,0.2
			c0.1,0.1,0.3,0.4,0.5,0.9l1.2,3.2c0.1,0.2,0.1,0.4,0.2,0.5c0,0.1,0,0.2,0,0.3c0,0.2-0.1,0.3-0.2,0.4C67.3,17,67.1,17,66.9,17
			c-0.2,0-0.3-0.1-0.4-0.2c-0.1-0.1-0.2-0.2-0.2-0.4l-0.2-0.5h-2L64,16.4c-0.1,0.2-0.1,0.3-0.2,0.4C63.6,17,63.5,17,63.3,17
			c-0.2,0-0.3,0-0.4-0.1c-0.1-0.1-0.2-0.2-0.2-0.4c0-0.1,0-0.2,0-0.3c0-0.1,0.1-0.3,0.1-0.5L64.1,12.5z M58.9,15.8h0.7
			c0.5,0,0.8-0.2,1.1-0.5c0.2-0.3,0.3-0.7,0.3-1.2c0-0.5-0.1-0.9-0.3-1.1c-0.2-0.3-0.6-0.4-1-0.4h-0.7V15.8z M57.7,12.1
			c0-0.2,0.1-0.4,0.2-0.5c0.1-0.1,0.3-0.2,0.4-0.2h1.5c0.8,0,1.4,0.3,1.9,0.8c0.4,0.5,0.7,1.1,0.7,1.9c0,0.9-0.3,1.6-0.8,2.1
			c-0.5,0.5-1.1,0.7-1.8,0.7h-1.5c-0.2,0-0.3-0.1-0.4-0.2c-0.1-0.1-0.2-0.3-0.2-0.5V12.1z M54.4,13.9h0.8c0.2,0,0.4-0.1,0.5-0.2
			c0.1-0.1,0.2-0.3,0.2-0.4c0-0.2-0.1-0.3-0.2-0.4c-0.1-0.1-0.3-0.2-0.5-0.2h-0.8V13.9z M53.2,12.1c0-0.2,0.1-0.4,0.2-0.5
			c0.1-0.1,0.3-0.2,0.4-0.2h1.5c0.6,0,1,0.2,1.3,0.5c0.3,0.3,0.5,0.7,0.5,1.2c0,0.4-0.1,0.7-0.3,1c-0.2,0.3-0.5,0.4-0.9,0.5l1.1,1.2
			c0.1,0.1,0.2,0.2,0.2,0.3c0,0.1,0.1,0.2,0.1,0.3c0,0.1,0,0.2-0.1,0.4C56.9,17,56.7,17,56.5,17c-0.2,0-0.3,0-0.3-0.1
			c-0.1,0-0.2-0.1-0.3-0.2l-1.5-1.9l0,1.6c0,0.2-0.1,0.4-0.2,0.5C54.1,17,54,17,53.8,17c-0.2,0-0.3-0.1-0.5-0.2
			c-0.1-0.1-0.2-0.3-0.2-0.5V12.1z M49.5,12.1c0-0.2,0.1-0.4,0.2-0.5c0.1-0.1,0.3-0.2,0.4-0.2H52c0.2,0,0.4,0.1,0.5,0.2
			c0.1,0.1,0.2,0.2,0.2,0.4c0,0.2-0.1,0.3-0.2,0.4c-0.1,0.1-0.3,0.2-0.5,0.2h-1.3v1h1.2c0.2,0,0.3,0.1,0.5,0.2
			c0.1,0.1,0.2,0.2,0.2,0.4c0,0.4-0.2,0.6-0.6,0.6h-1.2v1h1.3c0.2,0,0.4,0.1,0.5,0.2c0.1,0.1,0.2,0.2,0.2,0.4c0,0.2-0.1,0.3-0.2,0.4
			c-0.1,0.1-0.3,0.2-0.5,0.2h-1.9c-0.2,0-0.3-0.1-0.4-0.2c-0.1-0.1-0.2-0.3-0.2-0.5V12.1z M46.9,12.7h-0.7c-0.2,0-0.4-0.1-0.5-0.2
			c-0.1-0.1-0.2-0.2-0.2-0.4c0-0.4,0.2-0.6,0.6-0.6h2.6c0.4,0,0.6,0.2,0.6,0.6c0,0.2-0.1,0.3-0.2,0.4c-0.1,0.1-0.3,0.2-0.5,0.2h-0.7
			v3.7c0,0.2-0.1,0.4-0.2,0.5C47.9,17,47.7,17,47.5,17c-0.2,0-0.3-0.1-0.5-0.2c-0.1-0.1-0.2-0.3-0.2-0.5V12.7z M42.3,15.5
			c0.1,0,0.3,0.1,0.5,0.2c0.3,0.1,0.6,0.2,0.8,0.2c0.2,0,0.4-0.1,0.5-0.2c0.1-0.1,0.2-0.2,0.2-0.4c0-0.2-0.2-0.4-0.5-0.5
			c-0.1,0-0.3-0.1-0.7-0.2c-0.5-0.2-0.9-0.4-1.1-0.6c-0.2-0.2-0.3-0.5-0.3-0.9c0-0.6,0.2-1,0.6-1.3c0.4-0.3,0.8-0.4,1.4-0.4
			c0.5,0,0.9,0.1,1.1,0.2c0.3,0.2,0.4,0.4,0.4,0.6c0,0.2-0.1,0.3-0.2,0.4c-0.1,0.1-0.2,0.2-0.4,0.2c-0.1,0-0.3,0-0.6-0.1
			c-0.2-0.1-0.3-0.1-0.5-0.1c-0.2,0-0.3,0-0.4,0.1c-0.1,0.1-0.2,0.2-0.2,0.3c0,0.2,0.1,0.3,0.4,0.4c0.3,0.1,0.5,0.2,0.7,0.3
			c0.4,0.1,0.7,0.3,0.9,0.5c0.3,0.3,0.4,0.6,0.4,1.1c0,0.6-0.2,1.1-0.6,1.4c-0.4,0.3-0.9,0.4-1.5,0.4c-0.4,0-0.8-0.1-1.2-0.2
			c-0.4-0.2-0.6-0.4-0.6-0.7c0-0.2,0.1-0.3,0.2-0.5C42,15.6,42.1,15.5,42.3,15.5 M35.7,12.2c0.1-0.3,0.2-0.5,0.3-0.6
			c0.1-0.1,0.3-0.1,0.5-0.1c0.3,0,0.5,0.1,0.6,0.3c0.1,0.1,0.2,0.5,0.4,1.1l0.6,1.9l0.6-1.9c0.1-0.4,0.2-0.7,0.3-0.9
			c0.2-0.3,0.4-0.5,0.8-0.5c0.2,0,0.4,0,0.5,0.1c0.2,0.1,0.3,0.3,0.3,0.6l0.5,2.8c0.1,0.5,0.1,0.8,0.2,1c0,0.2,0,0.3,0,0.4
			c0,0.2-0.1,0.3-0.2,0.4C41.1,17,41,17,40.8,17c-0.2,0-0.4-0.1-0.5-0.3c-0.1-0.1-0.1-0.3-0.2-0.6l-0.4-2.4l-0.8,2.7
			c-0.1,0.2-0.1,0.3-0.2,0.4C38.5,17,38.4,17,38.2,17c-0.2,0-0.3,0-0.4-0.1c-0.1-0.1-0.2-0.2-0.3-0.4l-0.8-2.7l-0.4,2.4
			c-0.1,0.3-0.1,0.6-0.2,0.7C35.9,17,35.8,17,35.6,17c-0.2,0-0.3-0.1-0.4-0.2C35,16.7,35,16.6,35,16.4c0-0.1,0-0.2,0-0.4
			c0,0,0.1-0.3,0.2-1L35.7,12.2z M32.3,12.8l-0.7,2h1.3L32.3,12.8z M31.2,12.5c0.1-0.4,0.3-0.7,0.4-0.8c0.2-0.2,0.4-0.3,0.7-0.3
			c0.2,0,0.4,0.1,0.6,0.2c0.1,0.1,0.3,0.4,0.5,0.9l1.2,3.2c0.1,0.2,0.1,0.4,0.2,0.5c0,0.1,0,0.2,0,0.3c0,0.2-0.1,0.3-0.2,0.4
			C34.4,17,34.2,17,34.1,17c-0.2,0-0.3-0.1-0.4-0.2c-0.1-0.1-0.2-0.2-0.2-0.4l-0.2-0.5h-2l-0.2,0.5c-0.1,0.2-0.1,0.3-0.2,0.4
			C30.8,17,30.6,17,30.4,17c-0.2,0-0.3,0-0.4-0.1c-0.1-0.1-0.2-0.2-0.2-0.4c0-0.1,0-0.2,0-0.3c0-0.1,0.1-0.3,0.1-0.5L31.2,12.5z
			 M12.8,24.8c-1.2,0-1.8,0.8-1.8,1.9v3.5H7.6l5.2-14.5h0.1L18,30.1h-3.5v-3.5C14.5,25.6,14,24.8,12.8,24.8 M25,38.9l-9.5-25.4
			c-0.5-1.3-1.3-2.3-2.7-2.3c-1.5,0-2.2,1-2.7,2.3L0.5,38.9C0.4,39.3,0,40.3,0,40.8c0,1,0.8,1.6,1.8,1.6c1,0,1.6-0.6,1.9-1.4
			l2.6-7.3l4.7,0v3.5c0,1.1,0.6,1.9,1.8,1.9c1.2,0,1.8-0.8,1.8-1.9v-3.5l4.7,0l2.6,7.3c0.3,0.8,0.8,1.4,1.9,1.4c1,0,1.8-0.6,1.8-1.6
			C25.6,40.3,25.2,39.3,25,38.9"/>
		<path id="XMLID_19_" class="st1" d="M29.8,3.8h0.3l0.1,0.3c0,0,0.1,0.1,0.1,0.1c0,0,0.1,0.1,0.1,0.1c0,0,0.1,0,0.1,0.1
			c0,0,0.1,0,0.2,0c0.2,0,0.3,0,0.4-0.1c0.1-0.1,0.1-0.2,0.1-0.3c0-0.1,0-0.1-0.1-0.1c0,0-0.1-0.1-0.1-0.1c-0.1,0-0.1-0.1-0.2-0.1
			c-0.1,0-0.2-0.1-0.2-0.1c-0.1,0-0.2-0.1-0.3-0.2c-0.1-0.1-0.2-0.1-0.3-0.2C30,3,29.9,2.9,29.9,2.8c0-0.1-0.1-0.2-0.1-0.3
			c0-0.1,0-0.2,0.1-0.2c0-0.1,0.1-0.1,0.1-0.2C30.1,2,30.1,2,30.2,1.9c0.1,0,0.1-0.1,0.2-0.1c0.1,0,0.2,0,0.2-0.1c0.1,0,0.2,0,0.2,0
			c0.1,0,0.2,0,0.3,0c0.1,0,0.2,0,0.2,0c0.1,0,0.1,0,0.2,0c0.1,0,0.1,0,0.2,0.1v0.6h-0.3l-0.1-0.3c0,0-0.1-0.1-0.2-0.1
			C31.1,2.1,31,2,30.9,2c-0.1,0-0.1,0-0.2,0c-0.1,0-0.1,0-0.1,0.1c0,0-0.1,0.1-0.1,0.1c0,0,0,0.1,0,0.1c0,0.1,0,0.1,0,0.2
			c0,0,0.1,0.1,0.1,0.1c0,0,0.1,0.1,0.2,0.1c0.1,0,0.1,0.1,0.2,0.1c0.1,0,0.2,0.1,0.3,0.1c0.1,0,0.2,0.1,0.3,0.2
			c0.1,0.1,0.2,0.1,0.2,0.2c0.1,0.1,0.1,0.2,0.1,0.3c0,0.1,0,0.3-0.1,0.4c-0.1,0.1-0.1,0.2-0.3,0.3c-0.1,0.1-0.2,0.1-0.4,0.2
			c-0.1,0-0.3,0-0.5,0c-0.1,0-0.2,0-0.2,0c-0.1,0-0.2,0-0.2,0c-0.1,0-0.2,0-0.2-0.1c-0.1,0-0.1-0.1-0.2-0.1V3.8z"/>
		<path id="XMLID_18_" class="st1" d="M32.5,2.3l-0.2-0.1V2l0.8-0.2l0.1,0v1.7c0,0.1,0,0.2,0,0.3c0,0.1,0,0.2,0.1,0.2
			c0,0.1,0.1,0.1,0.1,0.1c0.1,0,0.1,0,0.2,0c0.1,0,0.1,0,0.2,0c0.1,0,0.1,0,0.2,0c0,0,0.1,0,0.1-0.1c0,0,0.1,0,0.1-0.1V2.4l-0.3-0.1
			V2l0.9-0.2l0.1,0v2.4h0.3v0.2c0,0-0.1,0-0.1,0c0,0-0.1,0-0.1,0c-0.1,0-0.1,0-0.2,0c-0.1,0-0.1,0-0.2,0c-0.1,0-0.2,0-0.2-0.1
			c-0.1,0-0.1-0.1-0.1-0.2V4.2c-0.1,0.1-0.1,0.1-0.2,0.2c-0.1,0-0.1,0.1-0.2,0.1c-0.1,0-0.1,0.1-0.2,0.1c-0.1,0-0.1,0-0.2,0
			c-0.2,0-0.3,0-0.4-0.1c-0.1,0-0.2-0.1-0.3-0.2c-0.1-0.1-0.1-0.2-0.1-0.3c0-0.1,0-0.3,0-0.5V2.3z"/>
		<path class="st1" d="M36.5,4.1C36.5,4.1,36.5,4.1,36.5,4.1c0.1,0.1,0.1,0.1,0.2,0.1c0,0,0.1,0,0.1,0c0,0,0.1,0,0.2,0
			c0.1,0,0.1,0,0.2-0.1c0.1,0,0.1-0.1,0.2-0.2c0.1-0.1,0.1-0.2,0.2-0.3c0-0.1,0.1-0.3,0.1-0.5c0-0.2,0-0.4-0.1-0.5
			c0-0.1-0.1-0.2-0.2-0.3c-0.1-0.1-0.1-0.1-0.2-0.2c-0.1,0-0.2,0-0.2,0c-0.1,0-0.1,0-0.2,0c0,0-0.1,0-0.1,0.1c0,0-0.1,0-0.1,0.1
			c0,0-0.1,0-0.1,0.1l0,0.9V4.1z M35.8,5.4v-3l-0.3-0.2V2l0.8-0.2l0.1,0v0.3c0,0,0.1-0.1,0.1-0.1c0,0,0.1-0.1,0.2-0.1
			c0.1,0,0.1-0.1,0.2-0.1c0.1,0,0.2,0,0.3,0c0.1,0,0.3,0,0.4,0.1c0.1,0,0.2,0.1,0.3,0.2c0.1,0.1,0.2,0.2,0.2,0.4
			c0.1,0.2,0.1,0.4,0.1,0.6c0,0.2,0,0.4-0.1,0.6C38.1,3.9,38,4,37.9,4.1c-0.1,0.1-0.3,0.2-0.5,0.3c-0.2,0.1-0.4,0.1-0.6,0.1
			c-0.1,0-0.1,0-0.2,0c-0.1,0-0.1,0-0.2,0l0,0.5v0.4L37,5.5v0.3h-1.5V5.5L35.8,5.4z"/>
		<path class="st1" d="M39.7,4.1C39.7,4.1,39.7,4.1,39.7,4.1c0.1,0.1,0.1,0.1,0.2,0.1c0,0,0.1,0,0.1,0c0,0,0.1,0,0.2,0
			c0.1,0,0.1,0,0.2-0.1c0.1,0,0.1-0.1,0.2-0.2c0.1-0.1,0.1-0.2,0.2-0.3c0-0.1,0.1-0.3,0.1-0.5c0-0.2,0-0.4-0.1-0.5
			c0-0.1-0.1-0.2-0.2-0.3c-0.1-0.1-0.1-0.1-0.2-0.2c-0.1,0-0.2,0-0.2,0c-0.1,0-0.1,0-0.2,0c0,0-0.1,0-0.1,0.1c0,0-0.1,0-0.1,0.1
			c0,0-0.1,0-0.1,0.1l0,0.9V4.1z M39,5.4v-3l-0.3-0.2V2l0.8-0.2l0.1,0v0.3c0,0,0.1-0.1,0.1-0.1c0,0,0.1-0.1,0.2-0.1
			c0.1,0,0.1-0.1,0.2-0.1c0.1,0,0.2,0,0.3,0c0.1,0,0.3,0,0.4,0.1c0.1,0,0.2,0.1,0.3,0.2c0.1,0.1,0.2,0.2,0.2,0.4
			c0.1,0.2,0.1,0.4,0.1,0.6c0,0.2,0,0.4-0.1,0.6c-0.1,0.2-0.2,0.3-0.3,0.5c-0.1,0.1-0.3,0.2-0.5,0.3c-0.2,0.1-0.4,0.1-0.6,0.1
			c-0.1,0-0.1,0-0.2,0c-0.1,0-0.1,0-0.2,0l0,0.5v0.4l0.5,0.1v0.3h-1.5V5.5L39,5.4z"/>
		<path class="st1" d="M43.2,4.3c0.1,0,0.2,0,0.3-0.1c0.1-0.1,0.1-0.1,0.2-0.2c0-0.1,0.1-0.2,0.1-0.4c0-0.1,0-0.3,0-0.4
			c0-0.1,0-0.3,0-0.4c0-0.1-0.1-0.2-0.1-0.3c0-0.1-0.1-0.2-0.2-0.2c-0.1-0.1-0.2-0.1-0.3-0.1c-0.1,0-0.2,0-0.3,0.1
			c-0.1,0.1-0.1,0.1-0.2,0.2c0,0.1-0.1,0.2-0.1,0.3c0,0.1,0,0.3,0,0.4c0,0.1,0,0.2,0,0.3c0,0.1,0,0.2,0,0.3c0,0.1,0,0.2,0.1,0.2
			c0,0.1,0.1,0.1,0.1,0.2c0,0.1,0.1,0.1,0.2,0.1C43.1,4.3,43.2,4.3,43.2,4.3 M41.9,3.2c0-0.2,0-0.4,0.1-0.6c0.1-0.2,0.2-0.3,0.3-0.4
			c0.1-0.1,0.3-0.2,0.4-0.3c0.2-0.1,0.3-0.1,0.5-0.1c0.2,0,0.4,0,0.6,0.1C44,1.9,44.1,2,44.2,2.1c0.1,0.1,0.2,0.3,0.3,0.4
			c0.1,0.2,0.1,0.4,0.1,0.6c0,0.2,0,0.4-0.1,0.6c-0.1,0.2-0.2,0.3-0.3,0.5c-0.1,0.1-0.3,0.2-0.4,0.3c-0.2,0.1-0.3,0.1-0.5,0.1
			c-0.2,0-0.4,0-0.6-0.1c-0.2-0.1-0.3-0.2-0.4-0.3C42.1,4,42,3.9,42,3.7C41.9,3.5,41.9,3.4,41.9,3.2"/>
		<path id="XMLID_11_" class="st1" d="M45,4.3l0.3-0.1V2.5L45,2.2V2l0.8-0.2l0.1,0v0.4c0-0.1,0.1-0.1,0.1-0.2
			C46.1,2,46.2,2,46.3,1.9c0.1,0,0.1-0.1,0.2-0.1c0.1,0,0.1,0,0.2,0c0.1,0,0.1,0,0.1,0c0,0,0.1,0,0.1,0v0.6c0,0-0.1-0.1-0.2-0.1
			c-0.1,0-0.2,0-0.2,0c-0.1,0-0.1,0-0.2,0c-0.1,0-0.1,0-0.1,0c0,0-0.1,0-0.1,0c0,0-0.1,0-0.1,0v1.7l0.6,0.1v0.3H45V4.3z"/>
		<path id="XMLID_10_" class="st1" d="M47.6,2.2h-0.4V2c0.1,0,0.1,0,0.1,0c0,0,0.1,0,0.1,0c0,0,0.1,0,0.1,0c0,0,0.1,0,0.1-0.1
			c0,0,0-0.1,0.1-0.1c0,0,0-0.1,0.1-0.1c0-0.1,0-0.1,0.1-0.2c0-0.1,0-0.1,0.1-0.2h0.3v0.6H49v0.4h-0.8v1c0,0.2,0,0.4,0,0.5
			c0,0.1,0,0.2,0,0.3c0,0.1,0.1,0.1,0.1,0.1c0,0,0.1,0,0.1,0c0,0,0.1,0,0.1,0c0,0,0.1,0,0.1,0c0,0,0.1,0,0.1,0c0,0,0.1,0,0.1,0
			l0.1,0.2c0,0-0.1,0.1-0.2,0.1c-0.1,0-0.1,0.1-0.2,0.1c-0.1,0-0.2,0-0.2,0.1c-0.1,0-0.2,0-0.3,0c-0.1,0-0.2,0-0.3,0
			c-0.1,0-0.1-0.1-0.2-0.1c0-0.1-0.1-0.1-0.1-0.2c0-0.1,0-0.2,0-0.4V2.2z"/>
		<path class="st1" d="M51.2,2.9c0-0.1,0-0.1,0-0.2c0-0.1,0-0.1,0-0.2c0-0.1,0-0.1-0.1-0.2c0-0.1-0.1-0.1-0.1-0.1c0,0-0.1,0-0.1-0.1
			c0,0-0.1,0-0.2,0c-0.1,0-0.2,0-0.2,0.1c-0.1,0-0.1,0.1-0.2,0.2c0,0.1-0.1,0.2-0.1,0.3c0,0.1,0,0.2-0.1,0.3H51.2z M49.4,3.2
			c0-0.2,0-0.4,0.1-0.6c0.1-0.2,0.2-0.3,0.3-0.5s0.3-0.2,0.4-0.3c0.2-0.1,0.4-0.1,0.6-0.1c0.2,0,0.3,0,0.4,0.1
			c0.1,0,0.2,0.1,0.3,0.2c0.1,0.1,0.2,0.2,0.2,0.3c0,0.1,0.1,0.3,0.1,0.4c0,0.1,0,0.2,0,0.3c0,0.1,0,0.1,0,0.2h-1.7c0,0,0,0,0,0
			c0,0,0,0,0,0c0,0.2,0,0.3,0.1,0.4c0,0.1,0.1,0.2,0.2,0.3c0.1,0.1,0.2,0.1,0.3,0.2c0.1,0,0.2,0.1,0.3,0.1c0.1,0,0.1,0,0.2,0
			c0.1,0,0.1,0,0.2,0c0.1,0,0.1,0,0.2,0c0.1,0,0.1,0,0.2-0.1l0.1,0.3c-0.1,0-0.1,0.1-0.2,0.1c-0.1,0-0.2,0.1-0.3,0.1
			c-0.1,0-0.2,0-0.3,0.1c-0.1,0-0.2,0-0.3,0c-0.2,0-0.4,0-0.6-0.1c-0.2-0.1-0.3-0.2-0.4-0.3c-0.1-0.1-0.2-0.3-0.3-0.4
			C49.4,3.6,49.4,3.4,49.4,3.2"/>
		<path class="st1" d="M53.6,4.2c0.1,0,0.1,0,0.2,0c0.1,0,0.1,0,0.2,0c0.1,0,0.1,0,0.1-0.1V2.2c-0.1-0.1-0.2-0.1-0.4-0.1
			c0,0-0.1,0-0.1,0c-0.1,0-0.1,0-0.2,0.1c-0.1,0-0.1,0.1-0.2,0.1c-0.1,0-0.1,0.1-0.1,0.2c0,0.1-0.1,0.2-0.1,0.3c0,0.1,0,0.2,0,0.4
			c0,0.2,0,0.3,0,0.5c0,0.1,0.1,0.2,0.1,0.3c0.1,0.1,0.1,0.2,0.2,0.2C53.4,4.2,53.5,4.2,53.6,4.2 M53.4,4.6c-0.1,0-0.3,0-0.4-0.1
			c-0.1-0.1-0.2-0.1-0.4-0.2c-0.1-0.1-0.2-0.3-0.3-0.4c-0.1-0.2-0.1-0.4-0.1-0.6c0-0.2,0-0.4,0.1-0.6c0.1-0.2,0.2-0.3,0.3-0.5
			c0.1-0.1,0.3-0.2,0.5-0.3c0.2-0.1,0.4-0.1,0.6-0.1c0.1,0,0.1,0,0.2,0c0.1,0,0.1,0,0.2,0V1.1L53.6,1V0.7l1.1-0.1l0.1,0.1v3.6h0.3
			v0.2c-0.1,0-0.1,0.1-0.2,0.1c-0.1,0-0.2,0-0.4,0c-0.1,0-0.2,0-0.2,0c-0.1,0-0.1-0.1-0.1-0.2c0,0-0.1,0-0.1,0.1c0,0-0.1,0-0.2,0.1
			c-0.1,0-0.1,0-0.2,0C53.6,4.6,53.5,4.6,53.4,4.6"/>
		<path class="st1" d="M57.7,4.1c0,0.1,0.1,0.1,0.1,0.1c0.1,0,0.2,0.1,0.3,0.1c0.1,0,0.2,0,0.2-0.1c0.1,0,0.2-0.1,0.2-0.2
			c0.1-0.1,0.1-0.2,0.2-0.3c0-0.1,0.1-0.3,0.1-0.5c0-0.2,0-0.3-0.1-0.5c0-0.1-0.1-0.2-0.2-0.3c-0.1-0.1-0.1-0.1-0.2-0.2
			c-0.1,0-0.2-0.1-0.3-0.1c-0.1,0-0.2,0-0.3,0c-0.1,0-0.1,0-0.2,0.1V4.1z M57,1.1L56.7,1V0.7l0.9-0.1l0.1,0V2
			c0.1-0.1,0.2-0.1,0.3-0.1c0.1,0,0.2-0.1,0.4-0.1c0.1,0,0.3,0,0.4,0.1c0.1,0,0.3,0.1,0.4,0.2c0.1,0.1,0.2,0.2,0.3,0.4
			c0.1,0.2,0.1,0.4,0.1,0.6c0,0.2,0,0.4-0.1,0.6c-0.1,0.2-0.2,0.3-0.3,0.5c-0.1,0.1-0.3,0.3-0.5,0.3c-0.2,0.1-0.4,0.1-0.6,0.1
			c-0.1,0-0.2,0-0.4,0c-0.1,0-0.2,0-0.3-0.1c-0.1,0-0.2,0-0.2-0.1c-0.1,0-0.1,0-0.1-0.1V1.1z"/>
		<path id="XMLID_3_" class="st1" d="M60.2,5.3c0,0,0.1,0,0.2,0c0,0,0.1,0,0.2,0c0.1,0,0.1-0.1,0.2-0.1c0.1-0.1,0.1-0.1,0.2-0.2
			C60.9,4.8,61,4.7,61,4.5h-0.1l-1-2.3l-0.2-0.1V1.8H61v0.4l-0.3,0.1l0.5,1.4L61.3,4l0.1-0.4l0.4-1.4l-0.3-0.1V1.8h1.1v0.4l-0.3,0
			c-0.1,0.3-0.2,0.6-0.3,0.8c-0.1,0.2-0.2,0.4-0.2,0.6c-0.1,0.2-0.1,0.3-0.2,0.4c0,0.1-0.1,0.2-0.1,0.3s-0.1,0.1-0.1,0.2
			c0,0,0,0.1,0,0.1c-0.1,0.2-0.1,0.3-0.2,0.5c-0.1,0.1-0.1,0.3-0.2,0.4c-0.1,0.1-0.2,0.2-0.3,0.2c-0.1,0.1-0.2,0.1-0.3,0.1
			c-0.1,0-0.1,0-0.2,0c0,0-0.1,0-0.1,0c0,0-0.1,0-0.1,0l0-0.5C60.1,5.2,60.1,5.3,60.2,5.3"/>
		<path class="st1" d="M63.5,2.8c-0.1,0-0.1,0-0.1,0c0,0-0.1,0-0.1-0.1s-0.1-0.1-0.1-0.1c0,0,0-0.1,0-0.2c0-0.1,0-0.1,0-0.2
			c0-0.1,0.1-0.1,0.1-0.1c0,0,0.1-0.1,0.2-0.1c0.1,0,0.1,0,0.2,0c0.1,0,0.1,0,0.2,0c0.1,0,0.1,0,0.1,0.1c0,0,0.1,0.1,0.1,0.1
			c0,0,0,0.1,0,0.2c0,0.1,0,0.1,0,0.2c0,0.1-0.1,0.1-0.1,0.1c0,0-0.1,0.1-0.2,0.1C63.6,2.7,63.5,2.8,63.5,2.8 M63,4.2
			c0-0.1,0-0.1,0-0.2c0-0.1,0.1-0.1,0.1-0.1c0,0,0.1-0.1,0.2-0.1c0.1,0,0.1,0,0.2,0c0.1,0,0.1,0,0.2,0c0.1,0,0.1,0,0.1,0.1
			c0,0,0.1,0.1,0.1,0.1c0,0,0,0.1,0,0.2c0,0.1,0,0.1,0,0.2c0,0.1-0.1,0.1-0.1,0.1c0,0-0.1,0.1-0.2,0.1c-0.1,0-0.1,0-0.2,0
			c-0.1,0-0.1,0-0.1,0c0,0-0.1,0-0.1-0.1c0,0-0.1-0.1-0.1-0.1C63.1,4.3,63,4.3,63,4.2"/>
	</g>
</g>
</svg>
