<?xml version="1.0" encoding="utf-8"?>
<!-- Generator: Adobe Illustrator 16.0.4, SVG Export Plug-In . SVG Version: 6.00 Build 0)  -->
<!DOCTYPE svg PUBLIC "-//W3C//DTD SVG 1.1//EN" "http://www.w3.org/Graphics/SVG/1.1/DTD/svg11.dtd">
<svg version="1.1" id="Layer_1" xmlns="http://www.w3.org/2000/svg" xmlns:xlink="http://www.w3.org/1999/xlink" x="0px" y="0px"
	 width="43.134px" height="20px" viewBox="-3.649 -2.017 43.134 20" enable-background="new -3.649 -2.017 43.134 20"
	 xml:space="preserve">
<g>
	<path fill="#3d3d3c" d="M39.484,17.983H-3.649v-20h43.133L39.484,17.983L39.484,17.983z M-2.99,17.324h41.812V-1.357H-2.99V17.324z"/>
	<g>
		<path fill="#3d3d3c" d="M8.873,9.799l-0.666,1.514H7.007L9.94,4.657h1.198l2.935,6.656h-1.202l-0.667-1.514H8.873z M11.749,8.764
			l-1.208-2.745L9.33,8.764H11.749z"/>
		<path fill="#3d3d3c" d="M17.365,8.972V7.973h3.16v0.999H17.365z"/>
		<path fill="#3d3d3c" d="M28.142,5.683H24.39V4.657h5.314v0.877l-3.868,4.713v0.026h3.924v1.039h-5.496v-0.867l3.875-4.73V5.683
			H28.142z"/>
	</g>
</g>
</svg>
