<?xml version="1.0" encoding="utf-8"?>
<!-- Generator: Adobe Illustrator 18.1.1, SVG Export Plug-In . SVG Version: 6.00 Build 0)  -->
<svg version="1.1" id="Layer_1" xmlns="http://www.w3.org/2000/svg" xmlns:xlink="http://www.w3.org/1999/xlink" x="0px" y="0px"
	 width="11.9px" height="11.9px" viewBox="0 0 11.9 11.9" enable-background="new 0 0 11.9 11.9" xml:space="preserve">
<g>
	<path fill="#9C9B9B" d="M5.9,0C2.7,0,0,2.7,0,5.9c0,3.3,2.7,5.9,5.9,5.9c3.3,0,5.9-2.7,5.9-5.9C11.9,2.7,9.2,0,5.9,0 M5.9,1.1
		c2.7,0,4.9,2.2,4.9,4.9c0,2.7-2.2,4.9-4.9,4.9c-2.7,0-4.9-2.2-4.9-4.9C1.1,3.3,3.3,1.1,5.9,1.1"/>
	<polyline fill="none" stroke="#9C9B9B" stroke-width="1.381" stroke-miterlimit="10" points="3.8,4.5 5.9,6.3 9,3.6 	"/>
</g>
</svg>
