<?xml version="1.0" encoding="utf-8"?>
<!-- Generator: Adobe Illustrator 18.1.1, SVG Export Plug-In . SVG Version: 6.00 Build 0)  -->
<svg version="1.1" id="Layer_1" xmlns="http://www.w3.org/2000/svg" xmlns:xlink="http://www.w3.org/1999/xlink" x="0px" y="0px"
	 width="36.5px" height="15px" viewBox="0 0 36.5 15" enable-background="new 0 0 36.5 15" xml:space="preserve">
<g>
	<g>
		<path fill="#FFFFFF" d="M4.9,14.4c-2.4,0-4.3-1.9-4.3-4.3V4.9c0-2.4,1.9-4.3,4.3-4.3h5.1c2.4,0,4.3,1.9,4.3,4.3v5.1
			c0,2.4-1.9,4.3-4.3,4.3H4.9z"/>
		<g>
			<path fill="#D7D7D6" d="M10.1,1.2c2.1,0,3.7,1.7,3.7,3.7v5.1c0,2.1-1.7,3.7-3.7,3.7H4.9c-2.1,0-3.7-1.7-3.7-3.7V4.9
				c0-2.1,1.7-3.7,3.7-3.7H10.1 M10.1,0H4.9C2.2,0,0,2.2,0,4.9v5.1C0,12.8,2.2,15,4.9,15h5.1c2.7,0,4.9-2.2,4.9-4.9V4.9
				C15,2.2,12.8,0,10.1,0L10.1,0z"/>
		</g>
	</g>
	<g>
		<path fill="#FFFFFF" d="M10.3,14.4c-2.4,0-4.3-1.9-4.3-4.3V4.9c0-2.4,1.9-4.3,4.3-4.3h5.1c2.4,0,4.3,1.9,4.3,4.3v5.1
			c0,2.4-1.9,4.3-4.3,4.3H10.3z"/>
		<g>
			<path fill="#D7D7D6" d="M15.4,1.2c2.1,0,3.7,1.7,3.7,3.7v5.1c0,2.1-1.7,3.7-3.7,3.7h-5.1c-2.1,0-3.7-1.7-3.7-3.7V4.9
				c0-2.1,1.7-3.7,3.7-3.7H15.4 M15.4,0h-5.1C7.6,0,5.4,2.2,5.4,4.9v5.1c0,2.7,2.2,4.9,4.9,4.9h5.1c2.7,0,4.9-2.2,4.9-4.9V4.9
				C20.4,2.2,18.2,0,15.4,0L15.4,0z"/>
		</g>
	</g>
	<g>
		<path fill="#FFFFFF" d="M15.7,14.4c-2.4,0-4.3-1.9-4.3-4.3V4.9c0-2.4,1.9-4.3,4.3-4.3h5.1c2.4,0,4.3,1.9,4.3,4.3v5.1
			c0,2.4-1.9,4.3-4.3,4.3H15.7z"/>
		<g>
			<path fill="#D7D7D6" d="M20.8,1.2c2.1,0,3.7,1.7,3.7,3.7v5.1c0,2.1-1.7,3.7-3.7,3.7h-5.1c-2.1,0-3.7-1.7-3.7-3.7V4.9
				c0-2.1,1.7-3.7,3.7-3.7H20.8 M20.8,0h-5.1c-2.7,0-4.9,2.2-4.9,4.9v5.1c0,2.7,2.2,4.9,4.9,4.9h5.1c2.7,0,4.9-2.2,4.9-4.9V4.9
				C25.8,2.2,23.5,0,20.8,0L20.8,0z"/>
		</g>
	</g>
	<g>
		<path fill="#FFFFFF" d="M21.1,14.4c-2.4,0-4.3-1.9-4.3-4.3V4.9c0-2.4,1.9-4.3,4.3-4.3h5.1c2.4,0,4.3,1.9,4.3,4.3v5.1
			c0,2.4-1.9,4.3-4.3,4.3H21.1z"/>
		<g>
			<path fill="#D7D7D6" d="M26.2,1.2c2.1,0,3.7,1.7,3.7,3.7v5.1c0,2.1-1.7,3.7-3.7,3.7h-5.1c-2.1,0-3.7-1.7-3.7-3.7V4.9
				c0-2.1,1.7-3.7,3.7-3.7H26.2 M26.2,0h-5.1c-2.7,0-4.9,2.2-4.9,4.9v5.1c0,2.7,2.2,4.9,4.9,4.9h5.1c2.7,0,4.9-2.2,4.9-4.9V4.9
				C31.1,2.2,28.9,0,26.2,0L26.2,0z"/>
		</g>
	</g>
	<g>
		<path fill="#FFFFFF" d="M26.4,14.4c-2.4,0-4.3-1.9-4.3-4.3V4.9c0-2.4,1.9-4.3,4.3-4.3h5.1c2.4,0,4.3,1.9,4.3,4.3v5.1
			c0,2.4-1.9,4.3-4.3,4.3H26.4z"/>
		<g>
			<path fill="#D7D7D6" d="M31.6,1.2c2.1,0,3.7,1.7,3.7,3.7v5.1c0,2.1-1.7,3.7-3.7,3.7h-5.1c-2.1,0-3.7-1.7-3.7-3.7V4.9
				c0-2.1,1.7-3.7,3.7-3.7H31.6 M31.6,0h-5.1c-2.7,0-4.9,2.2-4.9,4.9v5.1c0,2.7,2.2,4.9,4.9,4.9h5.1c2.7,0,4.9-2.2,4.9-4.9V4.9
				C36.5,2.2,34.3,0,31.6,0L31.6,0z"/>
		</g>
	</g>
</g>
</svg>
