<?xml version="1.0" encoding="utf-8"?>
<!-- Generator: Adobe Illustrator 18.1.1, SVG Export Plug-In . SVG Version: 6.00 Build 0)  -->
<svg version="1.1" id="Layer_1" xmlns="http://www.w3.org/2000/svg" xmlns:xlink="http://www.w3.org/1999/xlink" x="0px" y="0px"
	 viewBox="0 165.6 640 314.4" enable-background="new 0 165.6 640 314.4" xml:space="preserve">
<g opacity="0.25">
	<g>
		<path fill="#5C5C5B" d="M156.3,480C70.7,480,0,409.3,0,321.9c0-85.6,70.7-156.3,156.3-156.3s156.3,70.7,156.3,156.3
			C314.4,409.3,243.7,480,156.3,480z M156.3,187.9c-74.4,0-135.8,61.4-135.8,135.8s61.4,135.8,135.8,135.8s135.8-61.4,135.8-135.8
			C292.1,247.5,230.7,187.9,156.3,187.9z"/>
		<polygon fill="#5C5C5B" points="234.4,333 145.1,333 145.1,232.6 167.4,232.6 167.4,310.7 234.4,310.7 		"/>
		<polygon fill="#5C5C5B" points="640,269.8 547,176.8 459.5,269.8 476.3,284.7 538.6,219.1 538.6,468.8 560.9,468.8 560.9,220.5 
			625.1,284.7 		"/>
	</g>
</g>
</svg>
