<?xml version="1.0" encoding="utf-8"?>
<!-- Generator: Adobe Illustrator 18.1.1, SVG Export Plug-In . SVG Version: 6.00 Build 0)  -->
<svg version="1.1" id="Layer_1" xmlns="http://www.w3.org/2000/svg" xmlns:xlink="http://www.w3.org/1999/xlink" x="0px" y="0px"
	 viewBox="0 0 34.4 16.9" enable-background="new 0 0 34.4 16.9" xml:space="preserve">
<g opacity="0.25">
	<path fill="#5C5C5B" d="M8.4,16.9C3.8,16.9,0,13.1,0,8.4C0,3.8,3.8,0,8.4,0c4.6,0,8.4,3.8,8.4,8.4C16.9,13.1,13.1,16.9,8.4,16.9z
		 M8.4,1.2c-4,0-7.3,3.3-7.3,7.3c0,4,3.3,7.3,7.3,7.3c4,0,7.3-3.3,7.3-7.3C15.7,4.4,12.4,1.2,8.4,1.2z"/>
	<polygon fill="#5C5C5B" points="12.6,9 7.8,9 7.8,3.6 9,3.6 9,7.8 12.6,7.8 	"/>
	<polygon fill="#5C5C5B" points="33.6,10.5 30.1,14.1 30.1,0.6 29,0.6 29,13.9 25.6,10.4 24.7,11.3 29.7,16.2 34.4,11.3 	"/>
</g>
</svg>
