<?xml version="1.0" encoding="utf-8"?>
<!-- Generator: Adobe Illustrator 19.0.0, SVG Export Plug-In . SVG Version: 6.00 Build 0)  -->
<svg version="1.1" id="Layer_1" xmlns="http://www.w3.org/2000/svg" xmlns:xlink="http://www.w3.org/1999/xlink" x="0px" y="0px"
	 viewBox="0 0 67.1 46.7" style="enable-background:new 0 0 67.1 46.7;" xml:space="preserve">
<style type="text/css">
	.st0{fill:#FFFFFF;}
	.st1{fill:#1E1E1C;}
	.st2{fill:#585857;}
</style>
<path id="XMLID_71_" class="st0" d="M9.5,2.8c-3.7,0-6.7,3-6.7,6.7v27.6c0,3.7,3,6.7,6.7,6.7h48c3.7,0,6.7-3,6.7-6.7V9.5
	c0-3.7-3-6.7-6.7-6.7H9.5z"/>
<g id="XMLID_31_">
	<path id="XMLID_2_" class="st1" d="M57.5,46.7h-48c-5.3,0-9.5-4.3-9.5-9.5V9.5C0,4.3,4.3,0,9.5,0h48c5.3,0,9.5,4.3,9.5,9.5v27.6
		C67.1,42.4,62.8,46.7,57.5,46.7z M9.5,2.8c-3.7,0-6.7,3-6.7,6.7v27.6c0,3.7,3,6.7,6.7,6.7h48c3.7,0,6.7-3,6.7-6.7V9.5
		c0-3.7-3-6.7-6.7-6.7H9.5z"/>
	<g>
		<g>
			
				<rect id="XMLID_8_" x="6.1" y="9.4" transform="matrix(0.7071 0.7071 -0.7071 0.7071 9.9349 -3.941)" class="st2" width="7.2" height="1.2"/>
			<polygon id="XMLID_7_" class="st2" points="7.8,12.9 6.6,12.9 6.6,6.9 12.6,6.9 12.6,8.1 7.8,8.1 			"/>
		</g>
		<g>
			
				<rect id="XMLID_6_" x="53.7" y="36.1" transform="matrix(0.7071 0.7071 -0.7071 0.7071 42.728 -29.8175)" class="st2" width="7.2" height="1.2"/>
			<polygon id="XMLID_5_" class="st2" points="60.5,39.8 54.5,39.8 54.5,38.6 59.3,38.6 59.3,33.8 60.5,33.8 			"/>
		</g>
	</g>
	<g id="XMLID_1_">
		<path id="XMLID_9_" class="st2" d="M22.9,18.2l1.6-4.1h1.6l-2.6,6.5h-1.2l-2.6-6.5h1.6L22.9,18.2z"/>
		<path id="XMLID_11_" class="st2" d="M27.6,14.1H29v6.5h-1.4V14.1z"/>
		<path id="XMLID_13_" class="st2" d="M36,14.1v1.3h-3.2v1.3h2.9V18h-2.9v1.3h3.3v1.3h-4.8v-6.5H36z"/>
		<path id="XMLID_15_" class="st2" d="M40,17.8l1.1-3.7h1.5l1.1,3.7l1.3-3.7h1.6l-2.3,6.5h-1.1l-1.4-4.5l-1.4,4.5h-1.1l-2.3-6.5h1.6
			L40,17.8z"/>
		<path id="XMLID_17_" class="st2" d="M16.9,27.6l-1.7,3.5h-0.9l-1.7-3.5v4.1h-1.4v-6.5h1.9l1.7,3.5l1.7-3.5h1.9v6.5h-1.4V27.6z"/>
		<path id="XMLID_19_" class="st2" d="M25.3,25.2v1.3h-3.2v1.3H25V29h-2.9v1.3h3.3v1.3h-4.8v-6.5H25.3z"/>
		<path id="XMLID_21_" class="st2" d="M30.1,26.4v5.2h-1.4v-5.2h-1.8v-1.2h5.1v1.2H30.1z"/>
		<path id="XMLID_23_" class="st2" d="M37.7,25.2h1.4v6.5h-1.4v-2.5h-2.6v2.5h-1.4v-6.5h1.4v2.7h2.6V25.2z"/>
		<path id="XMLID_25_" class="st2" d="M46.8,30.8c-0.7,0.6-1.5,1-2.4,1s-1.8-0.3-2.4-1s-1-1.4-1-2.4c0-0.9,0.3-1.7,1-2.4
			c0.7-0.6,1.5-1,2.4-1s1.8,0.3,2.4,1c0.7,0.6,1,1.4,1,2.4C47.8,29.3,47.5,30.1,46.8,30.8z M46.3,28.4c0-0.6-0.2-1.1-0.6-1.5
			s-0.8-0.6-1.4-0.6c-0.5,0-1,0.2-1.4,0.6c-0.4,0.4-0.6,0.9-0.6,1.5c0,0.6,0.2,1.1,0.6,1.5c0.4,0.4,0.8,0.6,1.4,0.6
			c0.5,0,1-0.2,1.4-0.6C46.2,29.5,46.3,29,46.3,28.4z"/>
		<path id="XMLID_28_" class="st2" d="M54.7,26c0.6,0.6,0.9,1.3,0.9,2.3s-0.3,1.8-0.9,2.4c-0.6,0.6-1.5,0.9-2.7,0.9h-2.2v-6.5H52
			C53.2,25.2,54,25.5,54.7,26z M53.6,29.9c0.4-0.3,0.5-0.8,0.5-1.4S54,27.3,53.6,27c-0.4-0.3-0.9-0.5-1.6-0.5h-0.8v3.9h0.9
			C52.7,30.4,53.2,30.2,53.6,29.9z"/>
	</g>
</g>
</svg>
