<?xml version="1.0" encoding="utf-8"?>
<!-- Generator: Adobe Illustrator 18.1.1, SVG Export Plug-In . SVG Version: 6.00 Build 0)  -->
<svg version="1.1" id="Layer_1" xmlns="http://www.w3.org/2000/svg" xmlns:xlink="http://www.w3.org/1999/xlink" x="0px" y="0px"
	 width="70px" height="70px" viewBox="0 0 70 70" enable-background="new 0 0 70 70" xml:space="preserve">
<path fill="#935A9F" d="M47,70H23C10.3,70,0,59.7,0,47V23C0,10.3,10.3,0,23,0h24c12.7,0,23,10.3,23,23v24C70,59.7,59.7,70,47,70z"/>
<g opacity="0.6">
	<g>
		<g>
			<g>
				<polygon fill="#FFFFFF" points="27.5,17.8 24.2,21.1 25.9,22.8 27.5,21.2 29.2,19.5 				"/>
				<path fill="#FFFFFF" d="M46.2,36.7c-0.1,0-0.3,0-0.5,0.1c-0.5,0.2-1,0.5-1.5,1c-0.7,0.7-1.1,1.4-1.1,2l0,0.3l4,0.7l-0.7-4
					C46.3,36.7,46.3,36.7,46.2,36.7"/>
				<path fill="#FFFFFF" d="M29.9,20.2l-1.6,1.6l-1.6,1.6l15.6,15.6c0.2-0.7,0.6-1.4,1.3-2.1c0.6-0.6,1.3-1,1.9-1.2l0.1,0L29.9,20.2
					z"/>
			</g>
		</g>
	</g>
</g>
<g>
	<path fill="#FFFFFF" d="M22,51.2c0.4,0,0.7-0.1,0.9-0.2c0.3-0.1,0.5-0.3,0.8-0.6l0.7,0.7c-0.7,0.7-1.5,1.1-2.4,1.1
		c-0.9,0-1.7-0.3-2.3-0.9c-0.6-0.6-0.9-1.4-0.9-2.3s0.3-1.7,1-2.3c0.6-0.6,1.4-0.9,2.4-0.9c1,0,1.8,0.4,2.4,1.1l-0.7,0.7
		c-0.3-0.3-0.6-0.5-0.8-0.6c-0.3-0.1-0.6-0.2-0.9-0.2c-0.6,0-1.2,0.2-1.6,0.6s-0.6,0.9-0.6,1.6c0,0.6,0.2,1.2,0.6,1.6
		C20.9,51,21.4,51.2,22,51.2z"/>
	<path fill="#FFFFFF" d="M28.7,48.3c-0.5,0-0.9,0.2-1.1,0.5c-0.2,0.3-0.4,0.8-0.4,1.3v2h-1v-4.8h1v1c0.2-0.3,0.4-0.5,0.7-0.7
		s0.6-0.3,0.9-0.3L28.7,48.3C28.7,48.3,28.7,48.3,28.7,48.3z"/>
	<path fill="#FFFFFF" d="M34.8,50.2h-3.7c0,0.3,0.2,0.6,0.5,0.8c0.3,0.2,0.6,0.3,1,0.3c0.6,0,1-0.2,1.4-0.6l0.6,0.6
		c-0.5,0.5-1.2,0.8-2,0.8c-0.7,0-1.2-0.2-1.7-0.7c-0.5-0.4-0.7-1-0.7-1.8s0.2-1.3,0.7-1.8c0.5-0.4,1-0.7,1.7-0.7
		c0.6,0,1.2,0.2,1.6,0.6c0.5,0.4,0.7,0.9,0.7,1.6V50.2z M31.1,49.4h2.7c0-0.4-0.1-0.7-0.4-0.9c-0.3-0.2-0.6-0.3-0.9-0.3
		c-0.4,0-0.7,0.1-1,0.3C31.3,48.7,31.1,49,31.1,49.4z"/>
	<path fill="#FFFFFF" d="M40.5,52.1h-0.9v-0.6c-0.4,0.5-0.9,0.7-1.6,0.7c-0.5,0-0.9-0.1-1.2-0.4c-0.3-0.3-0.5-0.7-0.5-1.1
		c0-0.5,0.2-0.8,0.5-1c0.3-0.2,0.8-0.3,1.4-0.3h1.3v-0.2c0-0.6-0.4-0.9-1.1-0.9c-0.4,0-0.9,0.2-1.4,0.5L36.6,48
		c0.6-0.5,1.2-0.7,2-0.7c0.6,0,1,0.1,1.4,0.4c0.4,0.3,0.5,0.7,0.5,1.3V52.1z M39.5,50.4V50h-1.1c-0.7,0-1.1,0.2-1.1,0.7
		c0,0.2,0.1,0.4,0.3,0.5s0.4,0.2,0.7,0.2c0.3,0,0.6-0.1,0.8-0.3C39.3,50.9,39.5,50.7,39.5,50.4z"/>
	<path fill="#FFFFFF" d="M43.7,48.2v2.4c0,0.2,0.1,0.4,0.2,0.5c0.1,0.1,0.3,0.2,0.5,0.2s0.4-0.1,0.6-0.3l0.4,0.7
		c-0.4,0.3-0.7,0.5-1.2,0.5s-0.8-0.1-1.1-0.4c-0.3-0.3-0.5-0.7-0.5-1.2v-2.4h-0.6v-0.8h0.6v-1.5h1v1.5H45v0.8H43.7z"/>
	<path fill="#FFFFFF" d="M51.3,50.2h-3.7c0,0.3,0.2,0.6,0.5,0.8c0.3,0.2,0.6,0.3,1,0.3c0.6,0,1-0.2,1.4-0.6l0.6,0.6
		c-0.5,0.5-1.2,0.8-2,0.8c-0.7,0-1.2-0.2-1.7-0.7c-0.5-0.4-0.7-1-0.7-1.8s0.2-1.3,0.7-1.8c0.5-0.4,1-0.7,1.7-0.7
		c0.6,0,1.2,0.2,1.6,0.6c0.5,0.4,0.7,0.9,0.7,1.6V50.2z M47.6,49.4h2.7c0-0.4-0.1-0.7-0.4-0.9c-0.3-0.2-0.6-0.3-0.9-0.3
		c-0.4,0-0.7,0.1-1,0.3C47.7,48.7,47.6,49,47.6,49.4z"/>
</g>
</svg>
