<?xml version="1.0" encoding="utf-8"?>
<!-- Generator: Adobe Illustrator 18.1.1, SVG Export Plug-In . SVG Version: 6.00 Build 0)  -->
<svg version="1.1" id="Layer_1" xmlns="http://www.w3.org/2000/svg" xmlns:xlink="http://www.w3.org/1999/xlink" x="0px" y="0px"
	 width="70px" height="70px" viewBox="-560 385.9 70 70" enable-background="new -560 385.9 70 70" xml:space="preserve">
<g>
	<path fill="#FFFFFF" d="M-537,453.4c-11.3,0-20.5-9.2-20.5-20.5v-24c0-11.3,9.2-20.5,20.5-20.5h24c11.3,0,20.5,9.2,20.5,20.5v24
		c0,11.3-9.2,20.5-20.5,20.5H-537z"/>
	<path fill="#D7D7D6" d="M-513,390.9c9.9,0,18,8.1,18,18v24c0,9.9-8.1,18-18,18h-24c-9.9,0-18-8.1-18-18v-24c0-9.9,8.1-18,18-18
		H-513 M-513,385.9h-24c-12.7,0-23,10.3-23,23v24c0,12.7,10.3,23,23,23h24c12.7,0,23-10.3,23-23v-24
		C-490,396.2-500.3,385.9-513,385.9L-513,385.9z"/>
</g>
<g>
	<g>
		<g>
			<g>
				<polygon fill="#D7D7D6" points="-532.5,403.7 -535.8,407 -534.1,408.7 -532.5,407.1 -530.8,405.4 				"/>
				<path fill="#D7D7D6" d="M-513.8,422.6c-0.1,0-0.3,0-0.5,0.1c-0.5,0.2-1,0.5-1.5,1c-0.7,0.7-1.1,1.4-1.1,2v0.3l4,0.7l-0.7-4
					C-513.7,422.6-513.7,422.6-513.8,422.6"/>
				<path fill="#D7D7D6" d="M-530.1,406.1l-1.6,1.6l-1.6,1.6l15.6,15.6c0.2-0.7,0.6-1.4,1.3-2.1c0.6-0.6,1.3-1,1.9-1.2h0.1
					L-530.1,406.1z"/>
			</g>
		</g>
	</g>
</g>
<g>
	<path fill="#AAAAAA" d="M-538,437.1c0.4,0,0.7-0.1,0.9-0.2c0.3-0.1,0.5-0.3,0.8-0.6l0.7,0.7c-0.7,0.7-1.5,1.1-2.4,1.1
		s-1.7-0.3-2.3-0.9c-0.6-0.6-0.9-1.4-0.9-2.3c0-0.9,0.3-1.7,1-2.3c0.6-0.6,1.4-0.9,2.4-0.9s1.8,0.4,2.4,1.1l-0.7,0.7
		c-0.3-0.3-0.6-0.5-0.8-0.6c-0.3-0.1-0.6-0.2-0.9-0.2c-0.6,0-1.2,0.2-1.6,0.6c-0.4,0.4-0.6,0.9-0.6,1.6c0,0.6,0.2,1.2,0.6,1.6
		C-539.1,436.9-538.6,437.1-538,437.1z"/>
	<path fill="#AAAAAA" d="M-531.3,434.2c-0.5,0-0.9,0.2-1.1,0.5c-0.2,0.3-0.4,0.8-0.4,1.3v2h-1v-4.8h1v1c0.2-0.3,0.4-0.5,0.7-0.7
		c0.3-0.2,0.6-0.3,0.9-0.3L-531.3,434.2L-531.3,434.2z"/>
	<path fill="#AAAAAA" d="M-525.2,436.1h-3.7c0,0.3,0.2,0.6,0.5,0.8c0.3,0.2,0.6,0.3,1,0.3c0.6,0,1-0.2,1.4-0.6l0.6,0.6
		c-0.5,0.5-1.2,0.8-2,0.8c-0.7,0-1.2-0.2-1.7-0.7c-0.5-0.4-0.7-1-0.7-1.8c0-0.8,0.2-1.3,0.7-1.8c0.5-0.4,1-0.7,1.7-0.7
		c0.6,0,1.2,0.2,1.6,0.6c0.5,0.4,0.7,0.9,0.7,1.6v0.9H-525.2z M-528.9,435.3h2.7c0-0.4-0.1-0.7-0.4-0.9c-0.3-0.2-0.6-0.3-0.9-0.3
		c-0.4,0-0.7,0.1-1,0.3C-528.7,434.6-528.9,434.9-528.9,435.3z"/>
	<path fill="#AAAAAA" d="M-519.5,438h-0.9v-0.6c-0.4,0.5-0.9,0.7-1.6,0.7c-0.5,0-0.9-0.1-1.2-0.4s-0.5-0.7-0.5-1.1
		c0-0.5,0.2-0.8,0.5-1c0.3-0.2,0.8-0.3,1.4-0.3h1.3v-0.2c0-0.6-0.4-0.9-1.1-0.9c-0.4,0-0.9,0.2-1.4,0.5l-0.4-0.8
		c0.6-0.5,1.2-0.7,2-0.7c0.6,0,1,0.1,1.4,0.4c0.4,0.3,0.5,0.7,0.5,1.3V438z M-520.5,436.3v-0.4h-1.1c-0.7,0-1.1,0.2-1.1,0.7
		c0,0.2,0.1,0.4,0.3,0.5c0.2,0.1,0.4,0.2,0.7,0.2s0.6-0.1,0.8-0.3C-520.7,436.8-520.5,436.6-520.5,436.3z"/>
	<path fill="#AAAAAA" d="M-516.3,434.1v2.4c0,0.2,0.1,0.4,0.2,0.5c0.1,0.1,0.3,0.2,0.5,0.2c0.2,0,0.4-0.1,0.6-0.3l0.4,0.7
		c-0.4,0.3-0.7,0.5-1.2,0.5s-0.8-0.1-1.1-0.4c-0.3-0.3-0.5-0.7-0.5-1.2v-2.4h-0.6v-0.8h0.6v-1.5h1v1.5h1.4v0.8H-516.3z"/>
	<path fill="#AAAAAA" d="M-508.7,436.1h-3.7c0,0.3,0.2,0.6,0.5,0.8c0.3,0.2,0.6,0.3,1,0.3c0.6,0,1-0.2,1.4-0.6l0.6,0.6
		c-0.5,0.5-1.2,0.8-2,0.8c-0.7,0-1.2-0.2-1.7-0.7c-0.5-0.4-0.7-1-0.7-1.8c0-0.8,0.2-1.3,0.7-1.8c0.5-0.4,1-0.7,1.7-0.7
		c0.6,0,1.2,0.2,1.6,0.6c0.5,0.4,0.7,0.9,0.7,1.6v0.9H-508.7z M-512.4,435.3h2.7c0-0.4-0.1-0.7-0.4-0.9c-0.3-0.2-0.6-0.3-0.9-0.3
		c-0.4,0-0.7,0.1-1,0.3C-512.3,434.6-512.4,434.9-512.4,435.3z"/>
</g>
</svg>
