<?xml version="1.0" encoding="utf-8"?>
<!-- Generator: Adobe Illustrator 18.1.1, SVG Export Plug-In . SVG Version: 6.00 Build 0)  -->
<svg version="1.1" id="Layer_1" xmlns="http://www.w3.org/2000/svg" xmlns:xlink="http://www.w3.org/1999/xlink" x="0px" y="0px"
	 width="70px" height="70px" viewBox="-604 366 70 70" enable-background="new -604 366 70 70" xml:space="preserve">
<path fill="#C25374" d="M-557,436h-24c-12.7,0-23-10.3-23-23v-24c0-12.7,10.3-23,23-23h24c12.7,0,23,10.3,23,23v24
	C-534,425.7-544.3,436-557,436z"/>
<g>
	<path fill="#FFFFFF" d="M-577.7,412.1c0.5,0.4,0.7,1,0.7,1.8c0,0.8-0.2,1.4-0.7,1.8s-1.2,0.7-2.1,0.7h-1.6v-4.9h1.7
		C-578.9,411.4-578.2,411.6-577.7,412.1z M-577.9,413.9c0-1.1-0.6-1.7-1.9-1.7h-0.8v3.4h0.9c0.6,0,1-0.1,1.4-0.4
		C-578,414.8-577.9,414.4-577.9,413.9z"/>
	<path fill="#FFFFFF" d="M-572.1,414.8h-2.9c0,0.3,0.1,0.5,0.4,0.7c0.2,0.2,0.5,0.2,0.8,0.2c0.5,0,0.8-0.1,1.1-0.4l0.4,0.5
		c-0.4,0.4-0.9,0.6-1.6,0.6c-0.5,0-1-0.2-1.3-0.5s-0.5-0.8-0.5-1.4s0.2-1.1,0.6-1.4c0.4-0.3,0.8-0.5,1.3-0.5c0.5,0,0.9,0.2,1.3,0.5
		s0.5,0.7,0.5,1.3V414.8z M-575,414.2h2.1c0-0.3-0.1-0.6-0.3-0.7s-0.4-0.3-0.7-0.3s-0.5,0.1-0.8,0.3
		C-574.9,413.6-575,413.9-575,414.2z"/>
	<path fill="#FFFFFF" d="M-569.8,412.3v0.3h1v0.6h-1v3.1h-0.8v-3.1h-0.5v-0.6h0.5v-0.3c0-0.4,0.1-0.7,0.4-0.9
		c0.2-0.2,0.5-0.3,0.9-0.3s0.6,0.1,0.9,0.4l-0.3,0.6c-0.2-0.2-0.3-0.2-0.5-0.2s-0.3,0.1-0.4,0.2C-569.7,412-569.8,412.1-569.8,412.3
		z"/>
	<path fill="#FFFFFF" d="M-567.4,411.8c-0.1-0.1-0.1-0.2-0.1-0.4c0-0.1,0-0.3,0.1-0.3s0.2-0.1,0.3-0.1c0.1,0,0.3,0,0.4,0.1
		c0.1,0.1,0.1,0.2,0.1,0.3c0,0.1,0,0.3-0.1,0.4c-0.1,0.1-0.2,0.1-0.4,0.1C-567.2,412-567.3,411.9-567.4,411.8z M-566.7,416.3h-0.8
		v-3.7h0.8V416.3z"/>
	<path fill="#FFFFFF" d="M-564.3,414.3v2h-0.8v-3.7h0.8v0.7c0.1-0.2,0.3-0.4,0.5-0.5s0.5-0.2,0.7-0.2c0.4,0,0.8,0.1,1,0.4
		c0.3,0.3,0.4,0.6,0.4,1.1v2.3h-0.8v-2c0-0.7-0.3-1-0.9-1c-0.3,0-0.5,0.1-0.7,0.3C-564.2,413.7-564.3,413.9-564.3,414.3z"/>
	<path fill="#FFFFFF" d="M-556.5,414.8h-2.9c0,0.3,0.1,0.5,0.4,0.7c0.2,0.2,0.5,0.2,0.8,0.2c0.5,0,0.8-0.1,1.1-0.4l0.4,0.5
		c-0.4,0.4-0.9,0.6-1.6,0.6c-0.5,0-1-0.2-1.3-0.5s-0.5-0.8-0.5-1.4s0.2-1.1,0.6-1.4s0.8-0.5,1.3-0.5c0.5,0,0.9,0.2,1.3,0.5
		s0.5,0.7,0.5,1.3V414.8z M-559.5,414.2h2.1c0-0.3-0.1-0.6-0.3-0.7c-0.2-0.2-0.4-0.3-0.7-0.3s-0.5,0.1-0.8,0.3
		C-559.3,413.6-559.5,413.9-559.5,414.2z"/>
	<path fill="#FFFFFF" d="M-588.8,419.8h0.8v4.9h-0.8V419.8z"/>
	<path fill="#FFFFFF" d="M-585.4,422.7v2h-0.8V421h0.8v0.7c0.1-0.2,0.3-0.4,0.5-0.5s0.5-0.2,0.7-0.2c0.4,0,0.8,0.1,1,0.4
		c0.3,0.3,0.4,0.6,0.4,1.1v2.3h-0.8v-2c0-0.7-0.3-1-0.9-1c-0.3,0-0.5,0.1-0.7,0.3C-585.3,422.1-585.4,422.3-585.4,422.7z"/>
	<path fill="#FFFFFF" d="M-580.2,421.6v1.9c0,0.2,0,0.3,0.1,0.4c0.1,0.1,0.2,0.2,0.4,0.2s0.3-0.1,0.5-0.2l0.3,0.6
		c-0.3,0.2-0.6,0.4-0.9,0.4c-0.3,0-0.6-0.1-0.9-0.3s-0.4-0.5-0.4-0.9v-1.9h-0.5V421h0.5v-1.2h0.8v1.2h1v0.6H-580.2z"/>
	<path fill="#FFFFFF" d="M-574.3,423.2h-2.9c0,0.3,0.1,0.5,0.4,0.7s0.5,0.2,0.8,0.2c0.5,0,0.8-0.1,1.1-0.4l0.4,0.5
		c-0.4,0.4-0.9,0.6-1.6,0.6c-0.5,0-1-0.2-1.3-0.5s-0.5-0.8-0.5-1.4c0-0.6,0.2-1.1,0.6-1.4c0.4-0.3,0.8-0.5,1.3-0.5
		c0.5,0,0.9,0.2,1.3,0.5c0.4,0.3,0.5,0.7,0.5,1.3V423.2z M-577.2,422.6h2.1c0-0.3-0.1-0.6-0.3-0.7s-0.4-0.3-0.7-0.3
		s-0.5,0.1-0.8,0.3C-577.1,422-577.2,422.3-577.2,422.6z"/>
	<path fill="#FFFFFF" d="M-572.1,422.7v2h-0.8V421h0.8v0.7c0.1-0.2,0.3-0.4,0.5-0.5s0.5-0.2,0.7-0.2c0.4,0,0.8,0.1,1,0.4
		s0.4,0.6,0.4,1.1v2.3h-0.8v-2c0-0.7-0.3-1-0.9-1c-0.3,0-0.5,0.1-0.7,0.3C-572,422.1-572.1,422.3-572.1,422.7z"/>
	<path fill="#FFFFFF" d="M-566.9,421.6v1.9c0,0.2,0,0.3,0.1,0.4c0.1,0.1,0.2,0.2,0.4,0.2s0.3-0.1,0.5-0.2l0.3,0.6
		c-0.3,0.2-0.6,0.4-0.9,0.4s-0.6-0.1-0.9-0.3c-0.2-0.2-0.4-0.5-0.4-0.9v-1.9h-0.5V421h0.5v-1.2h0.8v1.2h1v0.6H-566.9z"/>
	<path fill="#FFFFFF" d="M-564.4,420.2c-0.1-0.1-0.1-0.2-0.1-0.3s0-0.3,0.1-0.3c0.1-0.1,0.2-0.1,0.3-0.1c0.1,0,0.3,0,0.3,0.1
		c0.1,0.1,0.1,0.2,0.1,0.3s0,0.3-0.1,0.3c-0.1,0.1-0.2,0.1-0.3,0.1C-564.2,420.4-564.3,420.3-564.4,420.2z M-563.7,424.7h-0.8V421
		h0.8V424.7z"/>
	<path fill="#FFFFFF" d="M-558.9,424.2c-0.4,0.4-0.8,0.6-1.4,0.6s-1-0.2-1.4-0.6c-0.4-0.4-0.6-0.8-0.6-1.4s0.2-1,0.6-1.4
		c0.4-0.4,0.8-0.6,1.4-0.6s1,0.2,1.4,0.6c0.4,0.4,0.6,0.8,0.6,1.4S-558.5,423.8-558.9,424.2z M-561.1,423.7c0.2,0.2,0.5,0.3,0.8,0.3
		s0.6-0.1,0.8-0.3s0.3-0.5,0.3-0.9s-0.1-0.7-0.3-0.9c-0.2-0.2-0.5-0.3-0.8-0.3s-0.6,0.1-0.8,0.3c-0.2,0.2-0.3,0.5-0.3,0.9
		S-561.4,423.5-561.1,423.7z"/>
	<path fill="#FFFFFF" d="M-556.1,422.7v2h-0.8V421h0.8v0.7c0.1-0.2,0.3-0.4,0.5-0.5s0.5-0.2,0.7-0.2c0.4,0,0.8,0.1,1,0.4
		c0.3,0.3,0.4,0.6,0.4,1.1v2.3h-0.8v-2c0-0.7-0.3-1-0.9-1c-0.3,0-0.5,0.1-0.7,0.3C-556,422.1-556.1,422.3-556.1,422.7z"/>
	<path fill="#FFFFFF" d="M-549.2,423.6c0,0.4-0.1,0.6-0.4,0.8c-0.3,0.2-0.6,0.3-1,0.3c-0.3,0-0.6,0-0.8-0.1
		c-0.3-0.1-0.5-0.2-0.8-0.4l0.4-0.6c0.4,0.3,0.9,0.5,1.3,0.5c0.2,0,0.3,0,0.4-0.1s0.2-0.2,0.2-0.3c0-0.2-0.2-0.4-0.7-0.5
		c0,0-0.1,0-0.1,0c-0.8-0.2-1.2-0.6-1.2-1c0-0.3,0.1-0.6,0.4-0.8c0.3-0.2,0.6-0.3,1-0.3s0.8,0.1,1.2,0.4l-0.3,0.6
		c-0.3-0.2-0.6-0.3-1-0.3c-0.2,0-0.3,0-0.5,0.1c-0.1,0.1-0.2,0.2-0.2,0.3c0,0.1,0.1,0.2,0.2,0.3c0.1,0,0.2,0.1,0.4,0.1
		c0.2,0,0.3,0.1,0.4,0.1c0.1,0,0.2,0.1,0.3,0.1c0.1,0,0.2,0.1,0.4,0.2C-549.4,423-549.2,423.2-549.2,423.6z"/>
</g>
<path opacity="0.6" fill="#FFFFFF" d="M-569,383.1c-5.8,0-10.4,4.7-10.4,10.4c0,5.8,4.7,10.4,10.4,10.4c5.8,0,10.4-4.7,10.4-10.4
	C-558.6,387.8-563.2,383.1-569,383.1 M-570.1,387.4h2.2v-2c3.7,0.5,6.6,3.4,7.1,7.1h-2v2.2h2c-0.5,3.7-3.4,6.6-7.1,7.1v-2.1h-2.2
	v2.1c-3.7-0.5-6.6-3.4-7.1-7.1h2v-2.2h-2c0.5-3.7,3.4-6.6,7.1-7.1V387.4z"/>
<g opacity="0.6">
	<path fill="#FFFFFF" d="M-568.2,395.2h-1.6v-0.8c0-0.3,0-0.5,0.1-0.6c0.1-0.1,0.2-0.3,0.5-0.6l0.7-0.7c0.1-0.1,0.2-0.3,0.2-0.5
		s-0.1-0.4-0.2-0.5c-0.1-0.1-0.3-0.2-0.4-0.2s-0.3,0.1-0.5,0.2s-0.2,0.4-0.2,0.6h-1.7c0.1-0.7,0.3-1.2,0.8-1.6
		c0.4-0.4,1-0.6,1.6-0.6s1.2,0.2,1.6,0.5c0.4,0.4,0.6,0.8,0.6,1.5c0,0.3,0,0.5-0.1,0.6c-0.1,0.1-0.1,0.2-0.1,0.3s-0.1,0.1-0.2,0.3
		c-0.1,0.1-0.2,0.2-0.2,0.2c-0.2,0.2-0.3,0.3-0.5,0.5c-0.1,0.1-0.2,0.3-0.3,0.4c0,0.1-0.1,0.2-0.1,0.4V395.2z M-569.6,397.2
		c-0.2-0.2-0.3-0.4-0.3-0.6c0-0.3,0.1-0.5,0.3-0.6c0.2-0.2,0.4-0.3,0.6-0.3c0.3,0,0.5,0.1,0.6,0.3s0.3,0.4,0.3,0.6
		c0,0.3-0.1,0.5-0.3,0.6s-0.4,0.3-0.6,0.3C-569.2,397.4-569.4,397.3-569.6,397.2z"/>
</g>
</svg>
