<?xml version="1.0" encoding="utf-8"?>
<!-- Generator: Adobe Illustrator 18.1.1, SVG Export Plug-In . SVG Version: 6.00 Build 0)  -->
<svg version="1.1" id="Layer_1" xmlns="http://www.w3.org/2000/svg" xmlns:xlink="http://www.w3.org/1999/xlink" x="0px" y="0px"
	 width="70px" height="70px" viewBox="-560 385.9 70 70" enable-background="new -560 385.9 70 70" xml:space="preserve">
<g>
	<path fill="#FFFFFF" d="M-537,453.4c-11.3,0-20.5-9.2-20.5-20.5v-24c0-11.3,9.2-20.5,20.5-20.5h24c11.3,0,20.5,9.2,20.5,20.5v24
		c0,11.3-9.2,20.5-20.5,20.5H-537z"/>
	<path fill="#D7D7D6" d="M-513,390.9c9.9,0,18,8.1,18,18v24c0,9.9-8.1,18-18,18h-24c-9.9,0-18-8.1-18-18v-24c0-9.9,8.1-18,18-18
		H-513 M-513,385.9h-24c-12.7,0-23,10.3-23,23v24c0,12.7,10.3,23,23,23h24c12.7,0,23-10.3,23-23v-24
		C-490,396.2-500.3,385.9-513,385.9L-513,385.9z"/>
</g>
<g>
	<path fill="#AAAAAA" d="M-533.7,432c0.5,0.4,0.7,1,0.7,1.8s-0.2,1.4-0.7,1.8s-1.2,0.7-2.1,0.7h-1.6v-4.9h1.7
		C-534.9,431.3-534.2,431.5-533.7,432z M-533.9,433.8c0-1.1-0.6-1.7-1.9-1.7h-0.8v3.4h0.9c0.6,0,1-0.1,1.4-0.4
		C-534,434.7-533.9,434.3-533.9,433.8z"/>
	<path fill="#AAAAAA" d="M-528.1,434.7h-2.9c0,0.3,0.1,0.5,0.4,0.7c0.2,0.2,0.5,0.2,0.8,0.2c0.5,0,0.8-0.1,1.1-0.4l0.4,0.5
		c-0.4,0.4-0.9,0.6-1.6,0.6c-0.5,0-1-0.2-1.3-0.5s-0.5-0.8-0.5-1.4s0.2-1.1,0.6-1.4c0.4-0.3,0.8-0.5,1.3-0.5s0.9,0.2,1.3,0.5
		s0.5,0.7,0.5,1.3L-528.1,434.7L-528.1,434.7z M-531,434.1h2.1c0-0.3-0.1-0.6-0.3-0.7s-0.4-0.3-0.7-0.3s-0.5,0.1-0.8,0.3
		C-530.9,433.5-531,433.8-531,434.1z"/>
	<path fill="#AAAAAA" d="M-525.8,432.2v0.3h1v0.6h-1v3.1h-0.8v-3.1h-0.5v-0.6h0.5v-0.3c0-0.4,0.1-0.7,0.4-0.9
		c0.2-0.2,0.5-0.3,0.9-0.3s0.6,0.1,0.9,0.4l-0.3,0.6c-0.2-0.2-0.3-0.2-0.5-0.2s-0.3,0.1-0.4,0.2C-525.7,431.9-525.8,432-525.8,432.2
		z"/>
	<path fill="#AAAAAA" d="M-523.4,431.7c-0.1-0.1-0.1-0.2-0.1-0.4c0-0.1,0-0.3,0.1-0.3s0.2-0.1,0.3-0.1s0.3,0,0.4,0.1
		c0.1,0.1,0.1,0.2,0.1,0.3c0,0.1,0,0.3-0.1,0.4s-0.2,0.1-0.4,0.1C-523.2,431.9-523.3,431.8-523.4,431.7z M-522.7,436.2h-0.8v-3.7
		h0.8V436.2z"/>
	<path fill="#AAAAAA" d="M-520.3,434.2v2h-0.8v-3.7h0.8v0.7c0.1-0.2,0.3-0.4,0.5-0.5s0.5-0.2,0.7-0.2c0.4,0,0.8,0.1,1,0.4
		c0.3,0.3,0.4,0.6,0.4,1.1v2.3h-0.8v-2c0-0.7-0.3-1-0.9-1c-0.3,0-0.5,0.1-0.7,0.3C-520.2,433.6-520.3,433.8-520.3,434.2z"/>
	<path fill="#AAAAAA" d="M-512.5,434.7h-2.9c0,0.3,0.1,0.5,0.4,0.7c0.2,0.2,0.5,0.2,0.8,0.2c0.5,0,0.8-0.1,1.1-0.4l0.4,0.5
		c-0.4,0.4-0.9,0.6-1.6,0.6c-0.5,0-1-0.2-1.3-0.5s-0.5-0.8-0.5-1.4s0.2-1.1,0.6-1.4s0.8-0.5,1.3-0.5s0.9,0.2,1.3,0.5
		s0.5,0.7,0.5,1.3L-512.5,434.7L-512.5,434.7z M-515.5,434.1h2.1c0-0.3-0.1-0.6-0.3-0.7c-0.2-0.2-0.4-0.3-0.7-0.3s-0.5,0.1-0.8,0.3
		C-515.3,433.5-515.5,433.8-515.5,434.1z"/>
	<path fill="#AAAAAA" d="M-544.8,439.7h0.8v4.9h-0.8V439.7z"/>
	<path fill="#AAAAAA" d="M-541.4,442.6v2h-0.8v-3.7h0.8v0.7c0.1-0.2,0.3-0.4,0.5-0.5s0.5-0.2,0.7-0.2c0.4,0,0.8,0.1,1,0.4
		c0.3,0.3,0.4,0.6,0.4,1.1v2.3h-0.8v-2c0-0.7-0.3-1-0.9-1c-0.3,0-0.5,0.1-0.7,0.3C-541.3,442-541.4,442.2-541.4,442.6z"/>
	<path fill="#AAAAAA" d="M-536.2,441.5v1.9c0,0.2,0,0.3,0.1,0.4s0.2,0.2,0.4,0.2s0.3-0.1,0.5-0.2l0.3,0.6c-0.3,0.2-0.6,0.4-0.9,0.4
		c-0.3,0-0.6-0.1-0.9-0.3s-0.4-0.5-0.4-0.9v-1.9h-0.5v-0.8h0.5v-1.2h0.8v1.2h1v0.6H-536.2z"/>
	<path fill="#AAAAAA" d="M-530.3,443.1h-2.9c0,0.3,0.1,0.5,0.4,0.7s0.5,0.2,0.8,0.2c0.5,0,0.8-0.1,1.1-0.4l0.4,0.5
		c-0.4,0.4-0.9,0.6-1.6,0.6c-0.5,0-1-0.2-1.3-0.5s-0.5-0.8-0.5-1.4s0.2-1.1,0.6-1.4c0.4-0.3,0.8-0.5,1.3-0.5s0.9,0.2,1.3,0.5
		c0.4,0.3,0.5,0.7,0.5,1.3L-530.3,443.1L-530.3,443.1z M-533.2,442.5h2.1c0-0.3-0.1-0.6-0.3-0.7s-0.4-0.3-0.7-0.3s-0.5,0.1-0.8,0.3
		C-533.1,441.9-533.2,442.2-533.2,442.5z"/>
	<path fill="#AAAAAA" d="M-528.1,442.6v2h-0.8v-3.7h0.8v0.7c0.1-0.2,0.3-0.4,0.5-0.5s0.5-0.2,0.7-0.2c0.4,0,0.8,0.1,1,0.4
		s0.4,0.6,0.4,1.1v2.3h-0.8v-2c0-0.7-0.3-1-0.9-1c-0.3,0-0.5,0.1-0.7,0.3C-528,442-528.1,442.2-528.1,442.6z"/>
	<path fill="#AAAAAA" d="M-522.9,441.5v1.9c0,0.2,0,0.3,0.1,0.4s0.2,0.2,0.4,0.2s0.3-0.1,0.5-0.2l0.3,0.6c-0.3,0.2-0.6,0.4-0.9,0.4
		s-0.6-0.1-0.9-0.3c-0.2-0.2-0.4-0.5-0.4-0.9v-1.9h-0.5v-0.8h0.5v-1.2h0.8v1.2h1v0.6H-522.9z"/>
	<path fill="#AAAAAA" d="M-520.4,440.1c-0.1-0.1-0.1-0.2-0.1-0.3s0-0.3,0.1-0.3c0.1-0.1,0.2-0.1,0.3-0.1s0.3,0,0.3,0.1
		c0.1,0.1,0.1,0.2,0.1,0.3s0,0.3-0.1,0.3c-0.1,0.1-0.2,0.1-0.3,0.1C-520.2,440.3-520.3,440.2-520.4,440.1z M-519.7,444.6h-0.8v-3.7
		h0.8V444.6z"/>
	<path fill="#AAAAAA" d="M-514.9,444.1c-0.4,0.4-0.8,0.6-1.4,0.6s-1-0.2-1.4-0.6s-0.6-0.8-0.6-1.4s0.2-1,0.6-1.4
		c0.4-0.4,0.8-0.6,1.4-0.6s1,0.2,1.4,0.6s0.6,0.8,0.6,1.4S-514.5,443.7-514.9,444.1z M-517.1,443.6c0.2,0.2,0.5,0.3,0.8,0.3
		s0.6-0.1,0.8-0.3s0.3-0.5,0.3-0.9s-0.1-0.7-0.3-0.9c-0.2-0.2-0.5-0.3-0.8-0.3s-0.6,0.1-0.8,0.3c-0.2,0.2-0.3,0.5-0.3,0.9
		S-517.4,443.4-517.1,443.6z"/>
	<path fill="#AAAAAA" d="M-512.1,442.6v2h-0.8v-3.7h0.8v0.7c0.1-0.2,0.3-0.4,0.5-0.5s0.5-0.2,0.7-0.2c0.4,0,0.8,0.1,1,0.4
		c0.3,0.3,0.4,0.6,0.4,1.1v2.3h-0.8v-2c0-0.7-0.3-1-0.9-1c-0.3,0-0.5,0.1-0.7,0.3C-512,442-512.1,442.2-512.1,442.6z"/>
	<path fill="#AAAAAA" d="M-505.2,443.5c0,0.4-0.1,0.6-0.4,0.8c-0.3,0.2-0.6,0.3-1,0.3c-0.3,0-0.6,0-0.8-0.1
		c-0.3-0.1-0.5-0.2-0.8-0.4l0.4-0.6c0.4,0.3,0.9,0.5,1.3,0.5c0.2,0,0.3,0,0.4-0.1s0.2-0.2,0.2-0.3c0-0.2-0.2-0.4-0.7-0.5h-0.1
		c-0.8-0.2-1.2-0.6-1.2-1c0-0.3,0.1-0.6,0.4-0.8c0.3-0.2,0.6-0.3,1-0.3s0.8,0.1,1.2,0.4l-0.3,0.6c-0.3-0.2-0.6-0.3-1-0.3
		c-0.2,0-0.3,0-0.5,0.1c-0.1,0.1-0.2,0.2-0.2,0.3c0,0.1,0.1,0.2,0.2,0.3c0.1,0,0.2,0.1,0.4,0.1s0.3,0.1,0.4,0.1
		c0.1,0,0.2,0.1,0.3,0.1s0.2,0.1,0.4,0.2C-505.4,442.9-505.2,443.1-505.2,443.5z"/>
</g>
<path fill="#D7D7D6" enable-background="new    " d="M-525,403c-5.8,0-10.4,4.7-10.4,10.4c0,5.8,4.7,10.4,10.4,10.4
	c5.8,0,10.4-4.7,10.4-10.4C-514.6,407.7-519.2,403-525,403 M-526.1,407.3h2.2v-2c3.7,0.5,6.6,3.4,7.1,7.1h-2v2.2h2
	c-0.5,3.7-3.4,6.6-7.1,7.1v-2.1h-2.2v2.1c-3.7-0.5-6.6-3.4-7.1-7.1h2v-2.2h-2c0.5-3.7,3.4-6.6,7.1-7.1V407.3z"/>
<g enable-background="new    ">
	<path fill="#D7D7D6" d="M-524.2,415.1h-1.6v-0.8c0-0.3,0-0.5,0.1-0.6s0.2-0.3,0.5-0.6l0.7-0.7c0.1-0.1,0.2-0.3,0.2-0.5
		s-0.1-0.4-0.2-0.5c-0.1-0.1-0.3-0.2-0.4-0.2s-0.3,0.1-0.5,0.2s-0.2,0.4-0.2,0.6h-1.7c0.1-0.7,0.3-1.2,0.8-1.6
		c0.4-0.4,1-0.6,1.6-0.6s1.2,0.2,1.6,0.5c0.4,0.4,0.6,0.8,0.6,1.5c0,0.3,0,0.5-0.1,0.6s-0.1,0.2-0.1,0.3s-0.1,0.1-0.2,0.3
		c-0.1,0.1-0.2,0.2-0.2,0.2c-0.2,0.2-0.3,0.3-0.5,0.5c-0.1,0.1-0.2,0.3-0.3,0.4c0,0.1-0.1,0.2-0.1,0.4L-524.2,415.1L-524.2,415.1z
		 M-525.6,417.1c-0.2-0.2-0.3-0.4-0.3-0.6c0-0.3,0.1-0.5,0.3-0.6c0.2-0.2,0.4-0.3,0.6-0.3c0.3,0,0.5,0.1,0.6,0.3s0.3,0.4,0.3,0.6
		c0,0.3-0.1,0.5-0.3,0.6s-0.4,0.3-0.6,0.3C-525.2,417.3-525.4,417.2-525.6,417.1z"/>
</g>
</svg>
