<?xml version="1.0" encoding="utf-8"?>
<!-- Generator: Adobe Illustrator 18.1.1, SVG Export Plug-In . SVG Version: 6.00 Build 0)  -->
<svg version="1.1" id="Layer_1" xmlns="http://www.w3.org/2000/svg" xmlns:xlink="http://www.w3.org/1999/xlink" x="0px" y="0px"
	 width="70px" height="70px" viewBox="-560 385.9 70 70" enable-background="new -560 385.9 70 70" xml:space="preserve">
<g>
	<path fill="#FFFFFF" d="M-537,453.4c-11.3,0-20.5-9.2-20.5-20.5v-24c0-11.3,9.2-20.5,20.5-20.5h24c11.3,0,20.5,9.2,20.5,20.5v24
		c0,11.3-9.2,20.5-20.5,20.5H-537z"/>
	<path fill="#D7D7D6" d="M-513,390.9c9.9,0,18,8.1,18,18v24c0,9.9-8.1,18-18,18h-24c-9.9,0-18-8.1-18-18v-24c0-9.9,8.1-18,18-18
		H-513 M-513,385.9h-24c-12.7,0-23,10.3-23,23v24c0,12.7,10.3,23,23,23h24c12.7,0,23-10.3,23-23v-24
		C-490,396.2-500.3,385.9-513,385.9L-513,385.9z"/>
</g>
<g>
	<path fill="#AAAAAA" d="M-536,433.2v1.3h2.2v0.8h-2.2v2h-0.8v-4.9h3.3v0.8L-536,433.2L-536,433.2z"/>
	<path fill="#AAAAAA" d="M-530.2,434.3c-0.4,0-0.7,0.1-0.9,0.4s-0.3,0.6-0.3,1v1.6h-0.8v-3.7h0.8v0.7c0.1-0.2,0.3-0.4,0.5-0.6
		s0.4-0.2,0.7-0.2V434.3L-530.2,434.3z"/>
	<path fill="#AAAAAA" d="M-525.9,437.3h-0.7v-0.5c-0.3,0.4-0.7,0.6-1.2,0.6c-0.4,0-0.7-0.1-1-0.3c-0.3-0.2-0.4-0.5-0.4-0.9
		s0.1-0.6,0.4-0.8c0.3-0.2,0.6-0.3,1.1-0.3h1v-0.2c0-0.5-0.3-0.7-0.8-0.7c-0.3,0-0.7,0.1-1.1,0.4l-0.3-0.5c0.5-0.4,1-0.5,1.5-0.5
		c0.4,0,0.8,0.1,1.1,0.3c0.3,0.2,0.4,0.6,0.4,1V437.3z M-526.7,435.9v-0.3h-0.9c-0.6,0-0.8,0.2-0.8,0.5c0,0.2,0.1,0.3,0.2,0.4
		s0.3,0.1,0.6,0.1c0.2,0,0.5-0.1,0.7-0.2S-526.7,436.1-526.7,435.9z"/>
	<path fill="#AAAAAA" d="M-523.5,435.3v2h-0.8v-3.7h0.8v0.7c0.1-0.2,0.3-0.4,0.5-0.5s0.5-0.2,0.7-0.2c0.6,0,1,0.2,1.2,0.7
		c0.4-0.5,0.8-0.7,1.4-0.7c0.4,0,0.8,0.1,1,0.4c0.3,0.3,0.4,0.6,0.4,1.1v2.3h-0.8v-2c0-0.7-0.3-1-0.9-1c-0.3,0-0.5,0.1-0.7,0.3
		c-0.2,0.2-0.3,0.4-0.3,0.7v2.1h-0.8v-2c0-0.4-0.1-0.6-0.2-0.8c-0.1-0.2-0.3-0.2-0.6-0.2s-0.5,0.1-0.7,0.3
		C-523.4,434.7-523.5,434.9-523.5,435.3z"/>
	<path fill="#AAAAAA" d="M-513.2,435.8h-2.9c0,0.3,0.1,0.5,0.4,0.7c0.2,0.2,0.5,0.2,0.8,0.2c0.5,0,0.8-0.1,1.1-0.4l0.4,0.5
		c-0.4,0.4-0.9,0.6-1.6,0.6c-0.5,0-1-0.2-1.3-0.5s-0.5-0.8-0.5-1.4s0.2-1.1,0.6-1.4c0.4-0.3,0.8-0.5,1.3-0.5s0.9,0.2,1.3,0.5
		s0.5,0.7,0.5,1.3L-513.2,435.8L-513.2,435.8z M-516.1,435.1h2.1c0-0.3-0.1-0.6-0.3-0.7s-0.4-0.3-0.7-0.3s-0.5,0.1-0.8,0.3
		S-516.1,434.8-516.1,435.1z"/>
	<path fill="#AAAAAA" d="M-540.2,440.8h0.8v4.9h-0.8V440.8z"/>
	<path fill="#AAAAAA" d="M-536.8,443.7v2h-0.8V442h0.8v0.7c0.1-0.2,0.3-0.4,0.5-0.5s0.5-0.2,0.7-0.2c0.4,0,0.8,0.1,1,0.4
		s0.4,0.6,0.4,1.1v2.3h-0.8v-2c0-0.7-0.3-1-0.9-1c-0.3,0-0.5,0.1-0.7,0.3C-536.7,443.1-536.8,443.3-536.8,443.7z"/>
	<path fill="#AAAAAA" d="M-529.9,444.6c0,0.4-0.1,0.6-0.4,0.8c-0.3,0.2-0.6,0.3-1,0.3c-0.3,0-0.6,0-0.8-0.1
		c-0.3-0.1-0.5-0.2-0.8-0.4l0.4-0.6c0.4,0.3,0.9,0.5,1.3,0.5c0.2,0,0.3,0,0.4-0.1s0.2-0.2,0.2-0.3c0-0.2-0.2-0.4-0.7-0.5h-0.1
		c-0.8-0.2-1.2-0.6-1.2-1c0-0.3,0.1-0.6,0.4-0.8c0.3-0.2,0.6-0.3,1-0.3s0.8,0.1,1.2,0.4l-0.3,0.6c-0.3-0.2-0.6-0.3-1-0.3
		c-0.2,0-0.3,0-0.5,0.1c-0.1,0.1-0.2,0.2-0.2,0.3c0,0.1,0.1,0.2,0.2,0.3c0.1,0,0.2,0.1,0.4,0.1s0.3,0.1,0.4,0.1
		c0.1,0,0.2,0.1,0.3,0.1s0.2,0.1,0.4,0.2C-530,443.9-529.9,444.2-529.9,444.6z"/>
	<path fill="#AAAAAA" d="M-528.5,441.2c-0.1-0.1-0.1-0.2-0.1-0.3c0-0.1,0-0.3,0.1-0.4s0.2-0.1,0.3-0.1s0.3,0,0.3,0.1
		c0.1,0.1,0.1,0.2,0.1,0.4c0,0.1,0,0.3-0.1,0.3c-0.1,0.1-0.2,0.1-0.3,0.1C-528.2,441.4-528.4,441.3-528.5,441.2z M-527.7,445.7h-0.8
		V442h0.8V445.7z"/>
	<path fill="#AAAAAA" d="M-522.6,442v3.2c0,0.7-0.2,1.2-0.5,1.5c-0.4,0.3-0.8,0.5-1.4,0.5c-0.6,0-1.1-0.2-1.5-0.5l0.4-0.6
		c0.4,0.3,0.7,0.4,1.1,0.4s0.7-0.1,0.9-0.3s0.3-0.5,0.3-0.9v-0.5c-0.1,0.2-0.3,0.4-0.5,0.5s-0.5,0.2-0.7,0.2c-0.5,0-0.9-0.2-1.2-0.5
		s-0.5-0.8-0.5-1.3s0.2-0.9,0.5-1.3s0.7-0.5,1.2-0.5s0.9,0.2,1.2,0.6v-0.6L-522.6,442L-522.6,442z M-525.5,443.7
		c0,0.3,0.1,0.6,0.3,0.8c0.2,0.2,0.4,0.3,0.8,0.3c0.3,0,0.6-0.1,0.8-0.3c0.2-0.2,0.3-0.5,0.3-0.8s-0.1-0.6-0.3-0.8
		c-0.2-0.2-0.5-0.3-0.8-0.3s-0.6,0.1-0.8,0.3C-525.4,443.1-525.5,443.4-525.5,443.7z"/>
	<path fill="#AAAAAA" d="M-520.2,443.7v2h-0.8v-5.2h0.8v2.1c0.1-0.2,0.3-0.4,0.5-0.5s0.5-0.2,0.7-0.2c0.4,0,0.8,0.1,1,0.4
		s0.4,0.6,0.4,1.1v2.3h-0.8v-2c0-0.7-0.3-1-0.9-1c-0.3,0-0.5,0.1-0.7,0.3C-520.1,443.1-520.2,443.3-520.2,443.7z"/>
	<path fill="#AAAAAA" d="M-515,442.6v1.9c0,0.2,0,0.3,0.1,0.4s0.2,0.2,0.4,0.2s0.3-0.1,0.5-0.2l0.3,0.6c-0.3,0.2-0.6,0.4-0.9,0.4
		s-0.6-0.1-0.9-0.3c-0.2-0.2-0.4-0.5-0.4-0.9v-1.9h-0.5v-0.6h0.5V441h0.8v1.2h1v0.6h-0.9V442.6z"/>
	<path fill="#AAAAAA" d="M-509.8,444.6c0,0.4-0.1,0.6-0.4,0.8c-0.3,0.2-0.6,0.3-1,0.3c-0.3,0-0.6,0-0.8-0.1
		c-0.3-0.1-0.5-0.2-0.8-0.4l0.4-0.6c0.4,0.3,0.9,0.5,1.3,0.5c0.2,0,0.3,0,0.4-0.1s0.2-0.2,0.2-0.3c0-0.2-0.2-0.4-0.7-0.5h-0.1
		c-0.8-0.2-1.2-0.6-1.2-1c0-0.3,0.1-0.6,0.4-0.8c0.3-0.2,0.6-0.3,1-0.3s0.8,0.1,1.2,0.4l-0.3,0.6c-0.3-0.2-0.6-0.3-1-0.3
		c-0.2,0-0.3,0-0.5,0.1c-0.1,0.1-0.2,0.2-0.2,0.3c0,0.1,0.1,0.2,0.2,0.3c0.1,0,0.2,0.1,0.4,0.1s0.3,0.1,0.4,0.1
		c0.1,0,0.2,0.1,0.3,0.1s0.2,0.1,0.4,0.2C-509.9,443.9-509.8,444.2-509.8,444.6z"/>
</g>
<polygon fill="#D7D7D6" enable-background="new    " points="-525,401.8 -537.4,401.8 -537.4,414.2 -534.1,412.1 -534.1,405.2 
	-527,405.2 "/>
<polygon fill="#D7D7D6" enable-background="new    " points="-512.6,414.2 -515.9,416.3 -515.9,423.3 -523,423.3 -525,426.6 
	-512.6,426.6 "/>
<polygon fill="#D7D7D6" enable-background="new    " points="-522.9,409.6 -527.1,409.6 -526,415 -524,415 "/>
<path fill="#D7D7D6" enable-background="new    " d="M-525,416.2c-0.8,0-1.5,0.7-1.5,1.5s0.7,1.5,1.5,1.5s1.5-0.7,1.5-1.5
	S-524.2,416.2-525,416.2"/>
</svg>
