<?xml version="1.0" encoding="utf-8"?>
<!-- Generator: Adobe Illustrator 18.1.1, SVG Export Plug-In . SVG Version: 6.00 Build 0)  -->
<svg version="1.1" id="Layer_1" xmlns="http://www.w3.org/2000/svg" xmlns:xlink="http://www.w3.org/1999/xlink" x="0px" y="0px"
	 width="70px" height="70px" viewBox="-604 366 70 70" enable-background="new -604 366 70 70" xml:space="preserve">
<path fill="#EFC303" d="M-557,436h-24c-12.7,0-23-10.3-23-23v-24c0-12.7,10.3-23,23-23h24c12.7,0,23,10.3,23,23v24
	C-534,425.7-544.3,436-557,436z"/>
<g>
	<path fill="#FFFFFF" d="M-580,413.3v1.3h2.2v0.8h-2.2v2h-0.8v-4.9h3.3l0,0.8H-580z"/>
	<path fill="#FFFFFF" d="M-574.2,414.4c-0.4,0-0.7,0.1-0.9,0.4c-0.2,0.3-0.3,0.6-0.3,1v1.6h-0.8v-3.7h0.8v0.7
		c0.1-0.2,0.3-0.4,0.5-0.6s0.4-0.2,0.7-0.2L-574.2,414.4C-574.2,414.4-574.2,414.4-574.2,414.4z"/>
	<path fill="#FFFFFF" d="M-569.9,417.4h-0.7v-0.5c-0.3,0.4-0.7,0.6-1.2,0.6c-0.4,0-0.7-0.1-1-0.3c-0.3-0.2-0.4-0.5-0.4-0.9
		s0.1-0.6,0.4-0.8c0.3-0.2,0.6-0.3,1.1-0.3h1V415c0-0.5-0.3-0.7-0.8-0.7c-0.3,0-0.7,0.1-1.1,0.4l-0.3-0.5c0.5-0.4,1-0.5,1.5-0.5
		c0.4,0,0.8,0.1,1.1,0.3c0.3,0.2,0.4,0.6,0.4,1V417.4z M-570.7,416v-0.3h-0.9c-0.6,0-0.8,0.2-0.8,0.5c0,0.2,0.1,0.3,0.2,0.4
		s0.3,0.1,0.6,0.1c0.2,0,0.5-0.1,0.7-0.2S-570.7,416.2-570.7,416z"/>
	<path fill="#FFFFFF" d="M-567.5,415.4v2h-0.8v-3.7h0.8v0.7c0.1-0.2,0.3-0.4,0.5-0.5c0.2-0.1,0.5-0.2,0.7-0.2c0.6,0,1,0.2,1.2,0.7
		c0.4-0.5,0.8-0.7,1.4-0.7c0.4,0,0.8,0.1,1,0.4c0.3,0.3,0.4,0.6,0.4,1.1v2.3h-0.8v-2c0-0.7-0.3-1-0.9-1c-0.3,0-0.5,0.1-0.7,0.3
		c-0.2,0.2-0.3,0.4-0.3,0.7v2.1h-0.8v-2c0-0.4-0.1-0.6-0.2-0.8c-0.1-0.2-0.3-0.2-0.6-0.2s-0.5,0.1-0.7,0.3
		C-567.4,414.8-567.5,415-567.5,415.4z"/>
	<path fill="#FFFFFF" d="M-557.2,415.9h-2.9c0,0.3,0.1,0.5,0.4,0.7c0.2,0.2,0.5,0.2,0.8,0.2c0.5,0,0.8-0.1,1.1-0.4l0.4,0.5
		c-0.4,0.4-0.9,0.6-1.6,0.6c-0.5,0-1-0.2-1.3-0.5s-0.5-0.8-0.5-1.4c0-0.6,0.2-1.1,0.6-1.4c0.4-0.3,0.8-0.5,1.3-0.5
		c0.5,0,0.9,0.2,1.3,0.5s0.5,0.7,0.5,1.3V415.9z M-560.1,415.2h2.1c0-0.3-0.1-0.6-0.3-0.7s-0.4-0.3-0.7-0.3s-0.5,0.1-0.8,0.3
		S-560.1,414.9-560.1,415.2z"/>
	<path fill="#FFFFFF" d="M-584.2,420.9h0.8v4.9h-0.8V420.9z"/>
	<path fill="#FFFFFF" d="M-580.8,423.8v2h-0.8v-3.7h0.8v0.7c0.1-0.2,0.3-0.4,0.5-0.5c0.2-0.1,0.5-0.2,0.7-0.2c0.4,0,0.8,0.1,1,0.4
		s0.4,0.6,0.4,1.1v2.3h-0.8v-2c0-0.7-0.3-1-0.9-1c-0.3,0-0.5,0.1-0.7,0.3C-580.7,423.2-580.8,423.4-580.8,423.8z"/>
	<path fill="#FFFFFF" d="M-573.9,424.7c0,0.4-0.1,0.6-0.4,0.8c-0.3,0.2-0.6,0.3-1,0.3c-0.3,0-0.6,0-0.8-0.1
		c-0.3-0.1-0.5-0.2-0.8-0.4l0.4-0.6c0.4,0.3,0.9,0.5,1.3,0.5c0.2,0,0.3,0,0.4-0.1s0.2-0.2,0.2-0.3c0-0.2-0.2-0.4-0.7-0.5
		c0,0-0.1,0-0.1,0c-0.8-0.2-1.2-0.6-1.2-1c0-0.3,0.1-0.6,0.4-0.8c0.3-0.2,0.6-0.3,1-0.3s0.8,0.1,1.2,0.4l-0.3,0.6
		c-0.3-0.2-0.6-0.3-1-0.3c-0.2,0-0.3,0-0.5,0.1c-0.1,0.1-0.2,0.2-0.2,0.3c0,0.1,0.1,0.2,0.2,0.3c0.1,0,0.2,0.1,0.4,0.1
		c0.2,0,0.3,0.1,0.4,0.1c0.1,0,0.2,0.1,0.3,0.1c0.1,0,0.2,0.1,0.4,0.2C-574,424-573.9,424.3-573.9,424.7z"/>
	<path fill="#FFFFFF" d="M-572.5,421.3c-0.1-0.1-0.1-0.2-0.1-0.3c0-0.1,0-0.3,0.1-0.4c0.1-0.1,0.2-0.1,0.3-0.1c0.1,0,0.3,0,0.3,0.1
		c0.1,0.1,0.1,0.2,0.1,0.4c0,0.1,0,0.3-0.1,0.3c-0.1,0.1-0.2,0.1-0.3,0.1C-572.2,421.5-572.4,421.4-572.5,421.3z M-571.7,425.8h-0.8
		v-3.7h0.8V425.8z"/>
	<path fill="#FFFFFF" d="M-566.6,422.1v3.2c0,0.7-0.2,1.2-0.5,1.5c-0.4,0.3-0.8,0.5-1.4,0.5c-0.6,0-1.1-0.2-1.5-0.5l0.4-0.6
		c0.4,0.3,0.7,0.4,1.1,0.4s0.7-0.1,0.9-0.3s0.3-0.5,0.3-0.9v-0.5c-0.1,0.2-0.3,0.4-0.5,0.5c-0.2,0.1-0.5,0.2-0.7,0.2
		c-0.5,0-0.9-0.2-1.2-0.5c-0.3-0.3-0.5-0.8-0.5-1.3s0.2-0.9,0.5-1.3s0.7-0.5,1.2-0.5s0.9,0.2,1.2,0.6v-0.6H-566.6z M-569.5,423.8
		c0,0.3,0.1,0.6,0.3,0.8c0.2,0.2,0.4,0.3,0.8,0.3c0.3,0,0.6-0.1,0.8-0.3c0.2-0.2,0.3-0.5,0.3-0.8c0-0.3-0.1-0.6-0.3-0.8
		c-0.2-0.2-0.5-0.3-0.8-0.3s-0.6,0.1-0.8,0.3C-569.4,423.2-569.5,423.5-569.5,423.8z"/>
	<path fill="#FFFFFF" d="M-564.2,423.8v2h-0.8v-5.2h0.8v2.1c0.1-0.2,0.3-0.4,0.5-0.5c0.2-0.1,0.5-0.2,0.7-0.2c0.4,0,0.8,0.1,1,0.4
		s0.4,0.6,0.4,1.1v2.3h-0.8v-2c0-0.7-0.3-1-0.9-1c-0.3,0-0.5,0.1-0.7,0.3C-564.1,423.2-564.2,423.4-564.2,423.8z"/>
	<path fill="#FFFFFF" d="M-559,422.7v1.9c0,0.2,0,0.3,0.1,0.4c0.1,0.1,0.2,0.2,0.4,0.2s0.3-0.1,0.5-0.2l0.3,0.6
		c-0.3,0.2-0.6,0.4-0.9,0.4s-0.6-0.1-0.9-0.3c-0.2-0.2-0.4-0.5-0.4-0.9v-1.9h-0.5v-0.6h0.5v-1.2h0.8v1.2h1v0.6H-559z"/>
	<path fill="#FFFFFF" d="M-553.8,424.7c0,0.4-0.1,0.6-0.4,0.8c-0.3,0.2-0.6,0.3-1,0.3c-0.3,0-0.6,0-0.8-0.1
		c-0.3-0.1-0.5-0.2-0.8-0.4l0.4-0.6c0.4,0.3,0.9,0.5,1.3,0.5c0.2,0,0.3,0,0.4-0.1s0.2-0.2,0.2-0.3c0-0.2-0.2-0.4-0.7-0.5
		c0,0-0.1,0-0.1,0c-0.8-0.2-1.2-0.6-1.2-1c0-0.3,0.1-0.6,0.4-0.8c0.3-0.2,0.6-0.3,1-0.3c0.4,0,0.8,0.1,1.2,0.4l-0.3,0.6
		c-0.3-0.2-0.6-0.3-1-0.3c-0.2,0-0.3,0-0.5,0.1c-0.1,0.1-0.2,0.2-0.2,0.3c0,0.1,0.1,0.2,0.2,0.3c0.1,0,0.2,0.1,0.4,0.1
		c0.2,0,0.3,0.1,0.4,0.1c0.1,0,0.2,0.1,0.3,0.1s0.2,0.1,0.4,0.2C-553.9,424-553.8,424.3-553.8,424.7z"/>
</g>
<g>
	<polygon opacity="0.6" fill="#FFFFFF" points="-569,381.9 -581.4,381.9 -581.4,394.3 -578.1,392.2 -578.1,385.3 -571,385.3 	"/>
	<polygon opacity="0.6" fill="#FFFFFF" points="-556.6,394.3 -559.9,396.4 -559.9,403.4 -567,403.4 -569,406.7 -556.6,406.7 	"/>
	<polygon opacity="0.6" fill="#FFFFFF" points="-566.9,389.7 -571.1,389.7 -570,395.1 -568,395.1 	"/>
	<path opacity="0.6" fill="#FFFFFF" d="M-569,396.3c-0.8,0-1.5,0.7-1.5,1.5c0,0.8,0.7,1.5,1.5,1.5s1.5-0.7,1.5-1.5
		C-567.5,397-568.2,396.3-569,396.3"/>
</g>
</svg>
