<?xml version="1.0" encoding="utf-8"?>
<!-- Generator: Adobe Illustrator 18.1.1, SVG Export Plug-In . SVG Version: 6.00 Build 0)  -->
<svg version="1.1" id="Layer_1" xmlns="http://www.w3.org/2000/svg" xmlns:xlink="http://www.w3.org/1999/xlink" x="0px" y="0px"
	 width="70px" height="70px" viewBox="-560 385.9 70 70" enable-background="new -560 385.9 70 70" xml:space="preserve">
<g>
	<path fill="#FFFFFF" d="M-537,453.4c-11.3,0-20.5-9.2-20.5-20.5v-24c0-11.3,9.2-20.5,20.5-20.5h24c11.3,0,20.5,9.2,20.5,20.5v24
		c0,11.3-9.2,20.5-20.5,20.5H-537z"/>
	<path fill="#D7D7D6" d="M-513,390.9c9.9,0,18,8.1,18,18v24c0,9.9-8.1,18-18,18h-24c-9.9,0-18-8.1-18-18v-24c0-9.9,8.1-18,18-18
		H-513 M-513,385.9h-24c-12.7,0-23,10.3-23,23v24c0,12.7,10.3,23,23,23h24c12.7,0,23-10.3,23-23v-24
		C-490,396.2-500.3,385.9-513,385.9L-513,385.9z"/>
</g>
<g>
	<path fill="#AAAAAA" d="M-544.9,432.4h0.8v4.9h-0.8V432.4z"/>
	<path fill="#AAAAAA" d="M-542.1,436.8c-0.3-0.4-0.5-0.8-0.5-1.4s0.2-1,0.5-1.4c0.4-0.3,0.8-0.5,1.3-0.5s0.9,0.2,1.2,0.6v-2h0.8v5.2
		h-0.8v-0.6c-0.3,0.4-0.7,0.6-1.3,0.6C-541.3,437.3-541.7,437.2-542.1,436.8z M-541.8,435.4c0,0.4,0.1,0.6,0.3,0.9
		c0.2,0.2,0.5,0.3,0.8,0.3s0.6-0.1,0.8-0.3s0.3-0.5,0.3-0.9s-0.1-0.7-0.3-0.9s-0.5-0.4-0.8-0.4s-0.6,0.1-0.8,0.4
		S-541.8,435.1-541.8,435.4z"/>
	<path fill="#AAAAAA" d="M-533.6,435.8h-2.9c0,0.3,0.1,0.5,0.4,0.7c0.2,0.2,0.5,0.2,0.8,0.2c0.5,0,0.8-0.1,1.1-0.4l0.4,0.5
		c-0.4,0.4-0.9,0.6-1.6,0.6c-0.5,0-1-0.2-1.3-0.5s-0.5-0.8-0.5-1.4s0.2-1.1,0.6-1.4c0.4-0.3,0.8-0.5,1.3-0.5s0.9,0.2,1.3,0.5
		s0.5,0.7,0.5,1.3L-533.6,435.8L-533.6,435.8z M-536.6,435.1h2.1c0-0.3-0.1-0.6-0.3-0.7s-0.4-0.3-0.7-0.3s-0.5,0.1-0.8,0.3
		S-536.6,434.8-536.6,435.1z"/>
	<path fill="#AAAAAA" d="M-529.2,437.3h-0.7v-0.5c-0.3,0.4-0.7,0.6-1.2,0.6c-0.4,0-0.7-0.1-1-0.3c-0.3-0.2-0.4-0.5-0.4-0.9
		s0.1-0.6,0.4-0.8c0.3-0.2,0.6-0.3,1.1-0.3h1v-0.2c0-0.5-0.3-0.7-0.8-0.7c-0.3,0-0.7,0.1-1.1,0.4l-0.3-0.5c0.5-0.4,1-0.5,1.5-0.5
		c0.4,0,0.8,0.1,1.1,0.3c0.3,0.2,0.4,0.6,0.4,1V437.3z M-530,435.9v-0.3h-0.9c-0.6,0-0.8,0.2-0.8,0.5c0,0.2,0.1,0.3,0.2,0.4
		c0.1,0.1,0.3,0.1,0.6,0.1s0.5-0.1,0.7-0.2S-530,436.1-530,435.9z"/>
	<path fill="#AAAAAA" d="M-526.7,434.2v1.9c0,0.2,0,0.3,0.1,0.4s0.2,0.2,0.4,0.2s0.3-0.1,0.5-0.2l0.3,0.6c-0.3,0.2-0.6,0.4-0.9,0.4
		s-0.6-0.1-0.9-0.3c-0.2-0.2-0.4-0.5-0.4-0.9v-1.9h-0.5v-0.6h0.5v-1.2h0.8v1.2h1v0.6h-0.9V434.2z"/>
	<path fill="#AAAAAA" d="M-524.2,432.8c-0.1-0.1-0.1-0.2-0.1-0.4c0-0.1,0-0.3,0.1-0.3c0.1-0.1,0.2-0.1,0.3-0.1s0.3,0,0.3,0.1
		c0.1,0.1,0.1,0.2,0.1,0.3c0,0.1,0,0.3-0.1,0.4s-0.2,0.1-0.3,0.1C-524,433-524.1,432.9-524.2,432.8z M-523.4,437.3h-0.8v-3.7h0.8
		V437.3z"/>
	<path fill="#AAAAAA" d="M-518.7,436.8c-0.4,0.4-0.8,0.6-1.4,0.6s-1-0.2-1.4-0.6s-0.6-0.8-0.6-1.4c0-0.5,0.2-1,0.6-1.4
		c0.4-0.4,0.8-0.6,1.4-0.6s1,0.2,1.4,0.6s0.6,0.8,0.6,1.4C-518.1,436-518.3,436.4-518.7,436.8z M-520.9,436.3
		c0.2,0.2,0.5,0.3,0.8,0.3s0.6-0.1,0.8-0.3c0.2-0.2,0.3-0.5,0.3-0.9s-0.1-0.7-0.3-0.9c-0.2-0.2-0.5-0.3-0.8-0.3s-0.6,0.1-0.8,0.3
		c-0.2,0.2-0.3,0.5-0.3,0.9S-521.1,436.1-520.9,436.3z"/>
	<path fill="#AAAAAA" d="M-515.9,435.3v2h-0.8v-3.7h0.8v0.7c0.1-0.2,0.3-0.4,0.5-0.5s0.5-0.2,0.7-0.2c0.4,0,0.8,0.1,1,0.4
		c0.3,0.3,0.4,0.6,0.4,1.1v2.3h-0.8v-2c0-0.7-0.3-1-0.9-1c-0.3,0-0.5,0.1-0.7,0.3C-515.8,434.7-515.9,434.9-515.9,435.3z"/>
	<path fill="#AAAAAA" d="M-507.8,437.3c-0.5,0-0.8-0.1-1.2-0.4c-0.3-0.3-0.5-0.6-0.5-1c0-0.5,0.4-1,1.1-1.4
		c-0.2-0.2-0.3-0.4-0.4-0.5c-0.1-0.1-0.1-0.3-0.1-0.5c0-0.4,0.1-0.7,0.4-0.9c0.3-0.2,0.6-0.3,1-0.3s0.7,0.1,1,0.3
		c0.3,0.2,0.4,0.5,0.4,0.8c0,0.5-0.4,0.9-1.1,1.3c0.4,0.5,0.7,0.8,0.9,1c0.1-0.2,0.3-0.5,0.3-0.7l0.6,0.4c-0.1,0.3-0.3,0.6-0.4,0.8
		c0.2,0.2,0.4,0.4,0.7,0.7l-0.5,0.5l-0.6-0.6C-506.6,437.1-507.2,437.3-507.8,437.3z M-508.4,436.5c0.2,0.1,0.4,0.2,0.7,0.2
		s0.6-0.1,0.9-0.4c-0.5-0.5-0.8-0.9-1.1-1.2c-0.5,0.3-0.8,0.6-0.8,0.9C-508.6,436.2-508.6,436.3-508.4,436.5z M-507.4,432.9
		c-0.2,0-0.3,0-0.4,0.1c-0.1,0.1-0.2,0.2-0.2,0.3s0,0.2,0.1,0.4c0.1,0.1,0.2,0.3,0.3,0.4c0.5-0.3,0.8-0.5,0.8-0.7s-0.1-0.3-0.2-0.4
		C-507.1,432.9-507.3,432.9-507.4,432.9z"/>
	<path fill="#AAAAAA" d="M-541,444.9c0.3,0,0.5,0,0.7-0.1s0.4-0.2,0.6-0.5l0.5,0.5c-0.5,0.6-1.1,0.9-1.9,0.9c-0.7,0-1.4-0.2-1.8-0.7
		c-0.5-0.5-0.7-1.1-0.7-1.8c0-0.7,0.2-1.3,0.7-1.8s1.1-0.7,1.9-0.7c0.8,0,1.4,0.3,1.9,0.8l-0.5,0.6c-0.2-0.2-0.5-0.4-0.7-0.5
		s-0.5-0.1-0.7-0.1c-0.5,0-0.9,0.2-1.2,0.5s-0.5,0.7-0.5,1.2s0.2,0.9,0.5,1.2C-541.9,444.8-541.5,444.9-541,444.9z"/>
	<path fill="#AAAAAA" d="M-534.7,445.2c-0.4,0.4-0.8,0.6-1.4,0.6c-0.6,0-1-0.2-1.4-0.6s-0.6-0.8-0.6-1.4c0-0.5,0.2-1,0.6-1.4
		s0.8-0.6,1.4-0.6c0.6,0,1,0.2,1.4,0.6s0.6,0.8,0.6,1.4C-534.1,444.4-534.3,444.8-534.7,445.2z M-536.9,444.7
		c0.2,0.2,0.5,0.3,0.8,0.3s0.6-0.1,0.8-0.3s0.3-0.5,0.3-0.9s-0.1-0.7-0.3-0.9s-0.5-0.3-0.8-0.3s-0.6,0.1-0.8,0.3s-0.3,0.5-0.3,0.9
		S-537.1,444.5-536.9,444.7z"/>
	<path fill="#AAAAAA" d="M-531.9,443.7v2h-0.8V442h0.8v0.7c0.1-0.2,0.3-0.4,0.5-0.5s0.5-0.2,0.7-0.2c0.4,0,0.8,0.1,1,0.4
		c0.3,0.3,0.4,0.6,0.4,1.1v2.3h-0.8v-2c0-0.7-0.3-1-0.9-1c-0.3,0-0.5,0.1-0.7,0.3C-531.8,443.1-531.9,443.3-531.9,443.7z"/>
	<path fill="#AAAAAA" d="M-526,445.7c-0.5,0-1-0.2-1.3-0.5c-0.4-0.4-0.6-0.8-0.6-1.4s0.2-1,0.6-1.4c0.4-0.4,0.9-0.5,1.4-0.5
		c0.6,0,1,0.2,1.4,0.6l-0.5,0.6c-0.3-0.3-0.6-0.4-1-0.4c-0.3,0-0.6,0.1-0.9,0.3c-0.2,0.2-0.4,0.5-0.4,0.8s0.1,0.6,0.4,0.9
		c0.2,0.2,0.5,0.4,0.9,0.4s0.7-0.2,1-0.5l0.5,0.5C-524.9,445.5-525.4,445.7-526,445.7z"/>
	<path fill="#AAAAAA" d="M-519.6,444.2h-2.9c0,0.3,0.1,0.5,0.4,0.7s0.5,0.2,0.8,0.2c0.5,0,0.8-0.1,1.1-0.4l0.4,0.5
		c-0.4,0.4-0.9,0.6-1.6,0.6c-0.5,0-1-0.2-1.3-0.5s-0.5-0.8-0.5-1.4s0.2-1.1,0.6-1.4c0.4-0.3,0.8-0.5,1.3-0.5s0.9,0.2,1.3,0.5
		s0.5,0.7,0.5,1.3L-519.6,444.2L-519.6,444.2z M-522.6,443.5h2.1c0-0.3-0.1-0.6-0.3-0.7s-0.4-0.3-0.7-0.3s-0.5,0.1-0.8,0.3
		C-522.4,443-522.6,443.2-522.6,443.5z"/>
	<path fill="#AAAAAA" d="M-516.3,441.9c0.5,0,0.9,0.2,1.3,0.5s0.5,0.8,0.5,1.4s-0.2,1-0.5,1.4c-0.4,0.4-0.8,0.5-1.2,0.5
		s-0.9-0.2-1.3-0.6v1.9h-0.8v-5.1h0.8v0.7C-517.2,442.1-516.8,441.9-516.3,441.9z M-517.5,443.8c0,0.4,0.1,0.6,0.3,0.9
		c0.2,0.2,0.5,0.3,0.8,0.3s0.6-0.1,0.8-0.3c0.2-0.2,0.3-0.5,0.3-0.9s-0.1-0.7-0.3-0.9c-0.2-0.2-0.5-0.4-0.8-0.4s-0.6,0.1-0.8,0.4
		S-517.5,443.5-517.5,443.8z"/>
	<path fill="#AAAAAA" d="M-512.1,442.6v1.9c0,0.2,0,0.3,0.1,0.4s0.2,0.2,0.4,0.2s0.3-0.1,0.5-0.2l0.3,0.6c-0.3,0.2-0.6,0.4-0.9,0.4
		c-0.3,0-0.6-0.1-0.9-0.3c-0.2-0.2-0.4-0.5-0.4-0.9v-1.9h-0.5v-0.6h0.5V441h0.8v1.2h1v0.6h-0.9V442.6z"/>
	<path fill="#AAAAAA" d="M-506.9,444.6c0,0.4-0.1,0.6-0.4,0.8c-0.3,0.2-0.6,0.3-1,0.3c-0.3,0-0.6,0-0.8-0.1
		c-0.3-0.1-0.5-0.2-0.8-0.4l0.4-0.6c0.4,0.3,0.9,0.5,1.3,0.5c0.2,0,0.3,0,0.4-0.1s0.2-0.2,0.2-0.3c0-0.2-0.2-0.4-0.7-0.5h-0.1
		c-0.8-0.2-1.2-0.6-1.2-1c0-0.3,0.1-0.6,0.4-0.8c0.3-0.2,0.6-0.3,1-0.3s0.8,0.1,1.2,0.4l-0.3,0.6c-0.3-0.2-0.6-0.3-1-0.3
		c-0.2,0-0.3,0-0.5,0.1c-0.1,0.1-0.2,0.2-0.2,0.3c0,0.1,0.1,0.2,0.2,0.3c0.1,0,0.2,0.1,0.4,0.1s0.3,0.1,0.4,0.1
		c0.1,0,0.2,0.1,0.3,0.1s0.2,0.1,0.4,0.2C-507,443.9-506.9,444.2-506.9,444.6z"/>
</g>
<g>
	<path opacity="0.6" fill="#D7D7D6" enable-background="new    " d="M-531.5,407.7l-2.6-1.1l-0.4,0.9l2.6,1.1
		C-531.8,408.3-531.7,408-531.5,407.7"/>
	<path opacity="0.6" fill="#D7D7D6" enable-background="new    " d="M-528.2,404.4l-1.4-2.5l-0.9,0.5l1.4,2.5
		C-528.8,404.7-528.5,404.5-528.2,404.4"/>
	<path opacity="0.6" fill="#D7D7D6" enable-background="new    " d="M-518.1,408.6l2.6-1.1l-0.4-0.9l-2.6,1.1
		C-518.3,408-518.2,408.3-518.1,408.6"/>
	<path opacity="0.6" fill="#D7D7D6" enable-background="new    " d="M-520.9,404.9l1.4-2.5l-0.9-0.5l-1.4,2.5
		C-521.5,404.5-521.2,404.7-520.9,404.9"/>
	<path opacity="0.6" fill="#D7D7D6" enable-background="new    " d="M-525,403.7c0.2,0,0.3,0,0.5,0v-2.9h-1v2.9
		C-525.3,403.7-525.2,403.7-525,403.7"/>
	<path opacity="0.6" fill="#D7D7D6" enable-background="new    " d="M-520.1,416.5l2,2l0.7-0.7l-2-2
		C-519.6,416-519.9,416.3-520.1,416.5"/>
	<path opacity="0.6" fill="#D7D7D6" enable-background="new    " d="M-517.7,411.7c0,0.3-0.1,0.7-0.2,1l2.8,0.5l0.2-1L-517.7,411.7z
		"/>
	<path opacity="0.6" fill="#D7D7D6" enable-background="new    " d="M-530.6,415.8l-2,2l0.7,0.7l2-2
		C-530.1,416.3-530.4,416-530.6,415.8"/>
	<path opacity="0.6" fill="#D7D7D6" enable-background="new    " d="M-532.3,411.7l-2.8,0.5l0.2,1l2.8-0.5
		C-532.2,412.4-532.3,412.1-532.3,411.7"/>
	<path opacity="0.6" fill="#D7D7D6" enable-background="new    " d="M-519.3,410.7c0-3.2-2.6-5.7-5.7-5.7s-5.7,2.6-5.7,5.7
		c0,0.8,0.2,1.5,0.4,2.2l0,0l0,0v0.1c1,2.6,2.7,4.2,2.7,7.5h1.1h1.1h0.8h1.4h0.8c0-3.3,1.7-5,2.7-7.6l0,0
		C-519.4,412.2-519.3,411.5-519.3,410.7"/>
	<polygon opacity="0.6" fill="#D7D7D6" enable-background="new    " points="-527.6,422.9 -527.6,422.9 -527.6,422.8 	"/>
	<polygon opacity="0.6" fill="#D7D7D6" enable-background="new    " points="-527.6,421.9 -522.4,422.7 -522.4,422 -527.6,421.2 	
		"/>
	<polygon opacity="0.6" fill="#D7D7D6" enable-background="new    " points="-527.1,420.9 -522.4,421.7 -522.4,421 -522.9,420.9 	
		"/>
	<path opacity="0.6" fill="#D7D7D6" enable-background="new    " d="M-527.6,422.8v0.1l4.7,0.7c0.2-0.1,0.4-0.3,0.5-0.6l-5.2-0.8
		V422.8z"/>
	<path opacity="0.6" fill="#D7D7D6" enable-background="new    " d="M-526.6,423.8h2.3l-3.1-0.5
		C-527.3,423.6-526.9,423.8-526.6,423.8"/>
</g>
</svg>
