<?xml version="1.0" encoding="utf-8"?>
<!-- Generator: Adobe Illustrator 18.1.1, SVG Export Plug-In . SVG Version: 6.00 Build 0)  -->
<svg version="1.1" id="Layer_1" xmlns="http://www.w3.org/2000/svg" xmlns:xlink="http://www.w3.org/1999/xlink" x="0px" y="0px"
	 width="70px" height="70px" viewBox="-604 366 70 70" enable-background="new -604 366 70 70" xml:space="preserve">
<path fill="#E4493B" d="M-557,436h-24c-12.7,0-23-10.3-23-23v-24c0-12.7,10.3-23,23-23h24c12.7,0,23,10.3,23,23v24
	C-534,425.7-544.3,436-557,436z"/>
<g>
	<path fill="#FFFFFF" d="M-588.9,412.5h0.8v4.9h-0.8V412.5z"/>
	<path fill="#FFFFFF" d="M-586.1,416.9c-0.3-0.4-0.5-0.8-0.5-1.4c0-0.6,0.2-1,0.5-1.4c0.4-0.3,0.8-0.5,1.3-0.5s0.9,0.2,1.2,0.6v-2
		h0.8v5.2h-0.8v-0.6c-0.3,0.4-0.7,0.6-1.3,0.6C-585.3,417.4-585.7,417.3-586.1,416.9z M-585.8,415.5c0,0.4,0.1,0.6,0.3,0.9
		c0.2,0.2,0.5,0.3,0.8,0.3s0.6-0.1,0.8-0.3s0.3-0.5,0.3-0.9c0-0.4-0.1-0.7-0.3-0.9s-0.5-0.4-0.8-0.4s-0.6,0.1-0.8,0.4
		C-585.7,414.9-585.8,415.2-585.8,415.5z"/>
	<path fill="#FFFFFF" d="M-577.6,415.9h-2.9c0,0.3,0.1,0.5,0.4,0.7c0.2,0.2,0.5,0.2,0.8,0.2c0.5,0,0.8-0.1,1.1-0.4l0.4,0.5
		c-0.4,0.4-0.9,0.6-1.6,0.6c-0.5,0-1-0.2-1.3-0.5s-0.5-0.8-0.5-1.4c0-0.6,0.2-1.1,0.6-1.4c0.4-0.3,0.8-0.5,1.3-0.5
		c0.5,0,0.9,0.2,1.3,0.5s0.5,0.7,0.5,1.3V415.9z M-580.6,415.2h2.1c0-0.3-0.1-0.6-0.3-0.7s-0.4-0.3-0.7-0.3s-0.5,0.1-0.8,0.3
		S-580.6,414.9-580.6,415.2z"/>
	<path fill="#FFFFFF" d="M-573.2,417.4h-0.7v-0.5c-0.3,0.4-0.7,0.6-1.2,0.6c-0.4,0-0.7-0.1-1-0.3c-0.3-0.2-0.4-0.5-0.4-0.9
		s0.1-0.6,0.4-0.8c0.3-0.2,0.6-0.3,1.1-0.3h1V415c0-0.5-0.3-0.7-0.8-0.7c-0.3,0-0.7,0.1-1.1,0.4l-0.3-0.5c0.5-0.4,1-0.5,1.5-0.5
		c0.4,0,0.8,0.1,1.1,0.3c0.3,0.2,0.4,0.6,0.4,1V417.4z M-574,416v-0.3h-0.9c-0.6,0-0.8,0.2-0.8,0.5c0,0.2,0.1,0.3,0.2,0.4
		c0.1,0.1,0.3,0.1,0.6,0.1s0.5-0.1,0.7-0.2S-574,416.2-574,416z"/>
	<path fill="#FFFFFF" d="M-570.7,414.3v1.9c0,0.2,0,0.3,0.1,0.4c0.1,0.1,0.2,0.2,0.4,0.2s0.3-0.1,0.5-0.2l0.3,0.6
		c-0.3,0.2-0.6,0.4-0.9,0.4s-0.6-0.1-0.9-0.3c-0.2-0.2-0.4-0.5-0.4-0.9v-1.9h-0.5v-0.6h0.5v-1.2h0.8v1.2h1v0.6H-570.7z"/>
	<path fill="#FFFFFF" d="M-568.2,412.9c-0.1-0.1-0.1-0.2-0.1-0.4c0-0.1,0-0.3,0.1-0.3c0.1-0.1,0.2-0.1,0.3-0.1c0.1,0,0.3,0,0.3,0.1
		c0.1,0.1,0.1,0.2,0.1,0.3c0,0.1,0,0.3-0.1,0.4c-0.1,0.1-0.2,0.1-0.3,0.1C-568,413.1-568.1,413-568.2,412.9z M-567.4,417.4h-0.8
		v-3.7h0.8V417.4z"/>
	<path fill="#FFFFFF" d="M-562.7,416.9c-0.4,0.4-0.8,0.6-1.4,0.6s-1-0.2-1.4-0.6c-0.4-0.4-0.6-0.8-0.6-1.4c0-0.5,0.2-1,0.6-1.4
		c0.4-0.4,0.8-0.6,1.4-0.6s1,0.2,1.4,0.6c0.4,0.4,0.6,0.8,0.6,1.4C-562.1,416.1-562.3,416.5-562.7,416.9z M-564.9,416.4
		c0.2,0.2,0.5,0.3,0.8,0.3s0.6-0.1,0.8-0.3c0.2-0.2,0.3-0.5,0.3-0.9s-0.1-0.7-0.3-0.9c-0.2-0.2-0.5-0.3-0.8-0.3s-0.6,0.1-0.8,0.3
		c-0.2,0.2-0.3,0.5-0.3,0.9S-565.1,416.2-564.9,416.4z"/>
	<path fill="#FFFFFF" d="M-559.9,415.4v2h-0.8v-3.7h0.8v0.7c0.1-0.2,0.3-0.4,0.5-0.5s0.5-0.2,0.7-0.2c0.4,0,0.8,0.1,1,0.4
		c0.3,0.3,0.4,0.6,0.4,1.1v2.3h-0.8v-2c0-0.7-0.3-1-0.9-1c-0.3,0-0.5,0.1-0.7,0.3C-559.8,414.8-559.9,415-559.9,415.4z"/>
	<path fill="#FFFFFF" d="M-551.8,417.4c-0.5,0-0.8-0.1-1.2-0.4c-0.3-0.3-0.5-0.6-0.5-1c0-0.5,0.4-1,1.1-1.4
		c-0.2-0.2-0.3-0.4-0.4-0.5c-0.1-0.1-0.1-0.3-0.1-0.5c0-0.4,0.1-0.7,0.4-0.9c0.3-0.2,0.6-0.3,1-0.3c0.4,0,0.7,0.1,1,0.3
		c0.3,0.2,0.4,0.5,0.4,0.8c0,0.5-0.4,0.9-1.1,1.3c0.4,0.5,0.7,0.8,0.9,1c0.1-0.2,0.3-0.5,0.3-0.7l0.6,0.4c-0.1,0.3-0.3,0.6-0.4,0.8
		c0.2,0.2,0.4,0.4,0.7,0.7l-0.5,0.5l-0.6-0.6C-550.6,417.2-551.2,417.4-551.8,417.4z M-552.4,416.6c0.2,0.1,0.4,0.2,0.7,0.2
		s0.6-0.1,0.9-0.4c-0.5-0.5-0.8-0.9-1.1-1.2c-0.5,0.3-0.8,0.6-0.8,0.9C-552.6,416.3-552.6,416.4-552.4,416.6z M-551.4,413
		c-0.2,0-0.3,0-0.4,0.1c-0.1,0.1-0.2,0.2-0.2,0.3s0,0.2,0.1,0.4c0.1,0.1,0.2,0.3,0.3,0.4c0.5-0.3,0.8-0.5,0.8-0.7
		c0-0.2-0.1-0.3-0.2-0.4C-551.1,413-551.3,413-551.4,413z"/>
	<path fill="#FFFFFF" d="M-585,425c0.3,0,0.5,0,0.7-0.1c0.2-0.1,0.4-0.2,0.6-0.5l0.5,0.5c-0.5,0.6-1.1,0.9-1.9,0.9
		c-0.7,0-1.4-0.2-1.8-0.7c-0.5-0.5-0.7-1.1-0.7-1.8c0-0.7,0.2-1.3,0.7-1.8s1.1-0.7,1.9-0.7c0.8,0,1.4,0.3,1.9,0.8l-0.5,0.6
		c-0.2-0.2-0.5-0.4-0.7-0.5c-0.2-0.1-0.5-0.1-0.7-0.1c-0.5,0-0.9,0.2-1.2,0.5c-0.3,0.3-0.5,0.7-0.5,1.2s0.2,0.9,0.5,1.2
		C-585.9,424.9-585.5,425-585,425z"/>
	<path fill="#FFFFFF" d="M-578.7,425.3c-0.4,0.4-0.8,0.6-1.4,0.6c-0.6,0-1-0.2-1.4-0.6s-0.6-0.8-0.6-1.4c0-0.5,0.2-1,0.6-1.4
		s0.8-0.6,1.4-0.6c0.6,0,1,0.2,1.4,0.6s0.6,0.8,0.6,1.4C-578.1,424.5-578.3,424.9-578.7,425.3z M-580.9,424.8
		c0.2,0.2,0.5,0.3,0.8,0.3c0.3,0,0.6-0.1,0.8-0.3s0.3-0.5,0.3-0.9s-0.1-0.7-0.3-0.9s-0.5-0.3-0.8-0.3c-0.3,0-0.6,0.1-0.8,0.3
		s-0.3,0.5-0.3,0.9S-581.1,424.6-580.9,424.8z"/>
	<path fill="#FFFFFF" d="M-575.9,423.8v2h-0.8v-3.7h0.8v0.7c0.1-0.2,0.3-0.4,0.5-0.5c0.2-0.1,0.5-0.2,0.7-0.2c0.4,0,0.8,0.1,1,0.4
		c0.3,0.3,0.4,0.6,0.4,1.1v2.3h-0.8v-2c0-0.7-0.3-1-0.9-1c-0.3,0-0.5,0.1-0.7,0.3C-575.8,423.2-575.9,423.4-575.9,423.8z"/>
	<path fill="#FFFFFF" d="M-570,425.8c-0.5,0-1-0.2-1.3-0.5c-0.4-0.4-0.6-0.8-0.6-1.4s0.2-1,0.6-1.4c0.4-0.4,0.9-0.5,1.4-0.5
		c0.6,0,1,0.2,1.4,0.6l-0.5,0.6c-0.3-0.3-0.6-0.4-1-0.4c-0.3,0-0.6,0.1-0.9,0.3c-0.2,0.2-0.4,0.5-0.4,0.8c0,0.3,0.1,0.6,0.4,0.9
		c0.2,0.2,0.5,0.4,0.9,0.4s0.7-0.2,1-0.5l0.5,0.5C-568.9,425.6-569.4,425.8-570,425.8z"/>
	<path fill="#FFFFFF" d="M-563.6,424.3h-2.9c0,0.3,0.1,0.5,0.4,0.7s0.5,0.2,0.8,0.2c0.5,0,0.8-0.1,1.1-0.4l0.4,0.5
		c-0.4,0.4-0.9,0.6-1.6,0.6c-0.5,0-1-0.2-1.3-0.5s-0.5-0.8-0.5-1.4s0.2-1.1,0.6-1.4c0.4-0.3,0.8-0.5,1.3-0.5c0.5,0,0.9,0.2,1.3,0.5
		s0.5,0.7,0.5,1.3V424.3z M-566.6,423.6h2.1c0-0.3-0.1-0.6-0.3-0.7s-0.4-0.3-0.7-0.3s-0.5,0.1-0.8,0.3
		C-566.4,423.1-566.6,423.3-566.6,423.6z"/>
	<path fill="#FFFFFF" d="M-560.3,422c0.5,0,0.9,0.2,1.3,0.5s0.5,0.8,0.5,1.4s-0.2,1-0.5,1.4c-0.4,0.4-0.8,0.5-1.2,0.5
		s-0.9-0.2-1.3-0.6v1.9h-0.8v-5.1h0.8v0.7C-561.2,422.2-560.8,422-560.3,422z M-561.5,423.9c0,0.4,0.1,0.6,0.3,0.9
		c0.2,0.2,0.5,0.3,0.8,0.3c0.3,0,0.6-0.1,0.8-0.3c0.2-0.2,0.3-0.5,0.3-0.9c0-0.4-0.1-0.7-0.3-0.9c-0.2-0.2-0.5-0.4-0.8-0.4
		c-0.3,0-0.6,0.1-0.8,0.4C-561.4,423.3-561.5,423.6-561.5,423.9z"/>
	<path fill="#FFFFFF" d="M-556.1,422.7v1.9c0,0.2,0,0.3,0.1,0.4c0.1,0.1,0.2,0.2,0.4,0.2s0.3-0.1,0.5-0.2l0.3,0.6
		c-0.3,0.2-0.6,0.4-0.9,0.4c-0.3,0-0.6-0.1-0.9-0.3c-0.2-0.2-0.4-0.5-0.4-0.9v-1.9h-0.5v-0.6h0.5v-1.2h0.8v1.2h1v0.6H-556.1z"/>
	<path fill="#FFFFFF" d="M-550.9,424.7c0,0.4-0.1,0.6-0.4,0.8c-0.3,0.2-0.6,0.3-1,0.3c-0.3,0-0.6,0-0.8-0.1
		c-0.3-0.1-0.5-0.2-0.8-0.4l0.4-0.6c0.4,0.3,0.9,0.5,1.3,0.5c0.2,0,0.3,0,0.4-0.1s0.2-0.2,0.2-0.3c0-0.2-0.2-0.4-0.7-0.5
		c0,0-0.1,0-0.1,0c-0.8-0.2-1.2-0.6-1.2-1c0-0.3,0.1-0.6,0.4-0.8c0.3-0.2,0.6-0.3,1-0.3s0.8,0.1,1.2,0.4l-0.3,0.6
		c-0.3-0.2-0.6-0.3-1-0.3c-0.2,0-0.3,0-0.5,0.1c-0.1,0.1-0.2,0.2-0.2,0.3c0,0.1,0.1,0.2,0.2,0.3c0.1,0,0.2,0.1,0.4,0.1
		c0.2,0,0.3,0.1,0.4,0.1c0.1,0,0.2,0.1,0.3,0.1c0.1,0,0.2,0.1,0.4,0.2C-551,424-550.9,424.3-550.9,424.7z"/>
</g>
<g>
	<path opacity="0.6" fill="#FFFDF8" d="M-575.5,387.8l-2.6-1.1l-0.4,0.9l2.6,1.1C-575.8,388.4-575.7,388.1-575.5,387.8"/>
	<path opacity="0.6" fill="#FFFDF8" d="M-572.2,384.5l-1.4-2.5l-0.9,0.5l1.4,2.5C-572.8,384.8-572.5,384.6-572.2,384.5"/>
	<path opacity="0.6" fill="#FFFDF8" d="M-562.1,388.7l2.6-1.1l-0.4-0.9l-2.6,1.1C-562.3,388.1-562.2,388.4-562.1,388.7"/>
	<path opacity="0.6" fill="#FFFDF8" d="M-564.9,385l1.4-2.5l-0.9-0.5l-1.4,2.5C-565.5,384.6-565.2,384.8-564.9,385"/>
	<path opacity="0.6" fill="#FFFDF8" d="M-569,383.8c0.2,0,0.3,0,0.5,0v-2.9h-1v2.9C-569.3,383.8-569.2,383.8-569,383.8"/>
	<path opacity="0.6" fill="#FFFDF8" d="M-564.1,396.6l2,2l0.7-0.7l-2-2C-563.6,396.1-563.9,396.4-564.1,396.6"/>
	<path opacity="0.6" fill="#FFFDF8" d="M-561.7,391.8c0,0.3-0.1,0.7-0.2,1l2.8,0.5l0.2-1L-561.7,391.8z"/>
	<path opacity="0.6" fill="#FFFDF8" d="M-574.6,395.9l-2,2l0.7,0.7l2-2C-574.1,396.4-574.4,396.1-574.6,395.9"/>
	<path opacity="0.6" fill="#FFFDF8" d="M-576.3,391.8l-2.8,0.5l0.2,1l2.8-0.5C-576.2,392.5-576.3,392.2-576.3,391.8"/>
	<path opacity="0.6" fill="#FFFDF8" d="M-563.3,390.8c0-3.2-2.6-5.7-5.7-5.7s-5.7,2.6-5.7,5.7c0,0.8,0.2,1.5,0.4,2.2h0l0,0l0,0.1
		c1,2.6,2.7,4.2,2.7,7.5h1.1h1.1h0.8h1.4h0.8c0-3.3,1.7-5,2.7-7.6h0C-563.4,392.3-563.3,391.6-563.3,390.8"/>
	<polygon opacity="0.6" fill="#FFFDF8" points="-571.6,403 -571.6,403 -571.6,402.9 	"/>
	<polygon opacity="0.6" fill="#FFFDF8" points="-571.6,402 -566.4,402.8 -566.4,402.1 -571.6,401.3 	"/>
	<polygon opacity="0.6" fill="#FFFDF8" points="-571.1,401 -566.4,401.8 -566.4,401.1 -566.9,401 	"/>
	<path opacity="0.6" fill="#FFFDF8" d="M-571.6,402.9l0,0.1l4.7,0.7c0.2-0.1,0.4-0.3,0.5-0.6l-5.2-0.8V402.9z"/>
	<path opacity="0.6" fill="#FFFDF8" d="M-570.6,403.9h2.3l-3.1-0.5C-571.3,403.7-570.9,403.9-570.6,403.9"/>
</g>
</svg>
