<?xml version="1.0" encoding="utf-8"?>
<!-- Generator: Adobe Illustrator 18.1.1, SVG Export Plug-In . SVG Version: 6.00 Build 0)  -->
<svg version="1.1" id="Layer_1" xmlns="http://www.w3.org/2000/svg" xmlns:xlink="http://www.w3.org/1999/xlink" x="0px" y="0px"
	 width="70px" height="70px" viewBox="-560 385.9 70 70" enable-background="new -560 385.9 70 70" xml:space="preserve">
<g>
	<path fill="#FFFFFF" d="M-537,453.4c-11.3,0-20.5-9.2-20.5-20.5v-24c0-11.3,9.2-20.5,20.5-20.5h24c11.3,0,20.5,9.2,20.5,20.5v24
		c0,11.3-9.2,20.5-20.5,20.5H-537z"/>
	<path fill="#D7D7D6" d="M-513,390.9c9.9,0,18,8.1,18,18v24c0,9.9-8.1,18-18,18h-24c-9.9,0-18-8.1-18-18v-24c0-9.9,8.1-18,18-18
		H-513 M-513,385.9h-24c-12.7,0-23,10.3-23,23v24c0,12.7,10.3,23,23,23h24c12.7,0,23-10.3,23-23v-24
		C-490,396.2-500.3,385.9-513,385.9L-513,385.9z"/>
</g>
<g>
	<path fill="#AAAAAA" d="M-535.5,432.4h0.8v2.4l2.2-2.4h1l-2,2.1l2,2.8h-1l-1.6-2.1l-0.7,0.8v1.4h-0.8L-535.5,432.4L-535.5,432.4z"
		/>
	<path fill="#AAAAAA" d="M-529.5,435.3v2h-0.8v-3.7h0.8v0.7c0.1-0.2,0.3-0.4,0.5-0.5s0.5-0.2,0.7-0.2c0.4,0,0.8,0.1,1,0.4
		c0.3,0.3,0.4,0.6,0.4,1.1v2.3h-0.8v-2c0-0.7-0.3-1-0.9-1c-0.3,0-0.5,0.1-0.7,0.3C-529.4,434.7-529.5,434.9-529.5,435.3z"/>
	<path fill="#AAAAAA" d="M-522.1,436.8c-0.4,0.4-0.8,0.6-1.4,0.6c-0.6,0-1-0.2-1.4-0.6s-0.6-0.8-0.6-1.4c0-0.5,0.2-1,0.6-1.4
		s0.8-0.6,1.4-0.6c0.6,0,1,0.2,1.4,0.6s0.6,0.8,0.6,1.4S-521.7,436.4-522.1,436.8z M-524.3,436.3c0.2,0.2,0.5,0.3,0.8,0.3
		s0.6-0.1,0.8-0.3c0.2-0.2,0.3-0.5,0.3-0.9s-0.1-0.7-0.3-0.9c-0.2-0.2-0.5-0.3-0.8-0.3s-0.6,0.1-0.8,0.3c-0.2,0.2-0.3,0.5-0.3,0.9
		S-524.5,436.1-524.3,436.3z"/>
	<path fill="#AAAAAA" d="M-518.4,437.3h-0.9l-1.3-3.7h0.8l0.9,2.8l0.9-2.8h0.8l0.9,2.8l0.9-2.8h0.8l-1.3,3.7h-0.9l-0.9-2.5
		L-518.4,437.3z"/>
	<path fill="#AAAAAA" d="M-532.3,444.6c0.2,0.3,0.5,0.4,0.9,0.4s0.7-0.1,0.9-0.4s0.3-0.6,0.3-1.1v-2.7h0.8v2.7
		c0,0.7-0.2,1.2-0.6,1.6c-0.4,0.4-0.9,0.6-1.5,0.6s-1.1-0.2-1.5-0.6s-0.6-0.9-0.6-1.6v-2.7h0.8v2.7
		C-532.6,443.9-532.5,444.3-532.3,444.6z"/>
	<path fill="#AAAAAA" d="M-525,444.6c0,0.4-0.1,0.6-0.4,0.8c-0.3,0.2-0.6,0.3-1,0.3c-0.3,0-0.6,0-0.8-0.1c-0.3-0.1-0.5-0.2-0.8-0.4
		l0.4-0.6c0.4,0.3,0.9,0.5,1.3,0.5c0.2,0,0.3,0,0.4-0.1s0.2-0.2,0.2-0.3c0-0.2-0.2-0.4-0.7-0.5h-0.1c-0.8-0.2-1.2-0.6-1.2-1
		c0-0.3,0.1-0.6,0.4-0.8c0.3-0.2,0.6-0.3,1-0.3s0.8,0.1,1.2,0.4l-0.3,0.6c-0.3-0.2-0.6-0.3-1-0.3c-0.2,0-0.3,0-0.5,0.1
		c-0.1,0.1-0.2,0.2-0.2,0.3c0,0.1,0.1,0.2,0.2,0.3c0.1,0,0.2,0.1,0.4,0.1s0.3,0.1,0.4,0.1c0.1,0,0.2,0.1,0.3,0.1s0.2,0.1,0.4,0.2
		C-525.1,443.9-525,444.2-525,444.6z"/>
	<path fill="#AAAAAA" d="M-520.1,444.2h-2.9c0,0.3,0.1,0.5,0.4,0.7s0.5,0.2,0.8,0.2c0.5,0,0.8-0.1,1.1-0.4l0.4,0.5
		c-0.4,0.4-0.9,0.6-1.6,0.6c-0.5,0-1-0.2-1.3-0.5s-0.5-0.8-0.5-1.4s0.2-1.1,0.6-1.4c0.4-0.3,0.8-0.5,1.3-0.5s0.9,0.2,1.3,0.5
		s0.5,0.7,0.5,1.3L-520.1,444.2L-520.1,444.2z M-523,443.5h2.1c0-0.3-0.1-0.6-0.3-0.7s-0.4-0.3-0.7-0.3s-0.5,0.1-0.8,0.3
		C-522.9,443-523,443.2-523,443.5z"/>
	<path fill="#AAAAAA" d="M-516.8,442.7c-0.4,0-0.7,0.1-0.9,0.4s-0.3,0.6-0.3,1v1.6h-0.8V442h0.8v0.7c0.1-0.2,0.3-0.4,0.5-0.6
		s0.4-0.2,0.7-0.2V442.7L-516.8,442.7z"/>
</g>
<g>
	<path fill="#D7D7D6" d="M-525,402.9c-3.7,0-6.7,3-6.7,6.7c0,2.3,1.1,4.3,2.9,5.5c-3.1,1-5.3,4-5.3,7.7v3.1h18.2v-3.1
		c0-3.6-2.2-6.7-5.3-7.7c1.7-1.2,2.9-3.2,2.9-5.5C-518.3,405.9-521.3,402.9-525,402.9 M-525,414.8c-2.8,0-5.1-2.3-5.1-5.1
		c0-2.8,2.3-5.1,5.1-5.1s5.1,2.3,5.1,5.1S-522.2,414.8-525,414.8 M-532.5,424.2v-1.5c0-3.5,2.6-6.4,5.8-6.4h3.4
		c3.2,0,5.8,2.9,5.8,6.4v1.5H-532.5z"/>
</g>
</svg>
