<?xml version="1.0" encoding="utf-8"?>
<!-- Generator: Adobe Illustrator 18.1.1, SVG Export Plug-In . SVG Version: 6.00 Build 0)  -->
<svg version="1.1" id="Layer_1" xmlns="http://www.w3.org/2000/svg" xmlns:xlink="http://www.w3.org/1999/xlink" x="0px" y="0px"
	 width="70px" height="70px" viewBox="-604 366 70 70" enable-background="new -604 366 70 70" xml:space="preserve">
<path fill="#45A9A5" d="M-557,436h-24c-12.7,0-23-10.3-23-23v-24c0-12.7,10.3-23,23-23h24c12.7,0,23,10.3,23,23v24
	C-534,425.7-544.3,436-557,436z"/>
<g>
	<path fill="#FFFFFF" d="M-579.5,412.5h0.8v2.4l2.2-2.4h1l-2,2.1l2,2.8h-1l-1.6-2.1l-0.7,0.8v1.4h-0.8V412.5z"/>
	<path fill="#FFFFFF" d="M-573.5,415.4v2h-0.8v-3.7h0.8v0.7c0.1-0.2,0.3-0.4,0.5-0.5s0.5-0.2,0.7-0.2c0.4,0,0.8,0.1,1,0.4
		c0.3,0.3,0.4,0.6,0.4,1.1v2.3h-0.8v-2c0-0.7-0.3-1-0.9-1c-0.3,0-0.5,0.1-0.7,0.3C-573.4,414.8-573.5,415-573.5,415.4z"/>
	<path fill="#FFFFFF" d="M-566.1,416.9c-0.4,0.4-0.8,0.6-1.4,0.6c-0.6,0-1-0.2-1.4-0.6s-0.6-0.8-0.6-1.4c0-0.5,0.2-1,0.6-1.4
		s0.8-0.6,1.4-0.6c0.6,0,1,0.2,1.4,0.6s0.6,0.8,0.6,1.4C-565.5,416.1-565.7,416.5-566.1,416.9z M-568.3,416.4
		c0.2,0.2,0.5,0.3,0.8,0.3c0.3,0,0.6-0.1,0.8-0.3c0.2-0.2,0.3-0.5,0.3-0.9s-0.1-0.7-0.3-0.9c-0.2-0.2-0.5-0.3-0.8-0.3
		c-0.3,0-0.6,0.1-0.8,0.3c-0.2,0.2-0.3,0.5-0.3,0.9S-568.5,416.2-568.3,416.4z"/>
	<path fill="#FFFFFF" d="M-562.4,417.4h-0.9l-1.3-3.7h0.8l0.9,2.8l0.9-2.8h0.8l0.9,2.8l0.9-2.8h0.8l-1.3,3.7h-0.9l-0.9-2.5
		L-562.4,417.4z"/>
	<path fill="#FFFFFF" d="M-576.3,424.7c0.2,0.3,0.5,0.4,0.9,0.4s0.7-0.1,0.9-0.4c0.2-0.3,0.3-0.6,0.3-1.1v-2.7h0.8v2.7
		c0,0.7-0.2,1.2-0.6,1.6c-0.4,0.4-0.9,0.6-1.5,0.6c-0.6,0-1.1-0.2-1.5-0.6c-0.4-0.4-0.6-0.9-0.6-1.6v-2.7h0.8v2.7
		C-576.6,424-576.5,424.4-576.3,424.7z"/>
	<path fill="#FFFFFF" d="M-569,424.7c0,0.4-0.1,0.6-0.4,0.8c-0.3,0.2-0.6,0.3-1,0.3c-0.3,0-0.6,0-0.8-0.1c-0.3-0.1-0.5-0.2-0.8-0.4
		l0.4-0.6c0.4,0.3,0.9,0.5,1.3,0.5c0.2,0,0.3,0,0.4-0.1s0.2-0.2,0.2-0.3c0-0.2-0.2-0.4-0.7-0.5c0,0-0.1,0-0.1,0
		c-0.8-0.2-1.2-0.6-1.2-1c0-0.3,0.1-0.6,0.4-0.8c0.3-0.2,0.6-0.3,1-0.3c0.4,0,0.8,0.1,1.2,0.4l-0.3,0.6c-0.3-0.2-0.6-0.3-1-0.3
		c-0.2,0-0.3,0-0.5,0.1c-0.1,0.1-0.2,0.2-0.2,0.3c0,0.1,0.1,0.2,0.2,0.3c0.1,0,0.2,0.1,0.4,0.1c0.2,0,0.3,0.1,0.4,0.1
		c0.1,0,0.2,0.1,0.3,0.1s0.2,0.1,0.4,0.2C-569.1,424-569,424.3-569,424.7z"/>
	<path fill="#FFFFFF" d="M-564.1,424.3h-2.9c0,0.3,0.1,0.5,0.4,0.7s0.5,0.2,0.8,0.2c0.5,0,0.8-0.1,1.1-0.4l0.4,0.5
		c-0.4,0.4-0.9,0.6-1.6,0.6c-0.5,0-1-0.2-1.3-0.5s-0.5-0.8-0.5-1.4s0.2-1.1,0.6-1.4c0.4-0.3,0.8-0.5,1.3-0.5c0.5,0,0.9,0.2,1.3,0.5
		s0.5,0.7,0.5,1.3V424.3z M-567,423.6h2.1c0-0.3-0.1-0.6-0.3-0.7s-0.4-0.3-0.7-0.3s-0.5,0.1-0.8,0.3
		C-566.9,423.1-567,423.3-567,423.6z"/>
	<path fill="#FFFFFF" d="M-560.8,422.8c-0.4,0-0.7,0.1-0.9,0.4c-0.2,0.3-0.3,0.6-0.3,1v1.6h-0.8v-3.7h0.8v0.7
		c0.1-0.2,0.3-0.4,0.5-0.6s0.4-0.2,0.7-0.2L-560.8,422.8C-560.8,422.8-560.8,422.8-560.8,422.8z"/>
</g>
<g opacity="0.6">
	<path fill="#FFFFFF" d="M-569,383c-3.7,0-6.7,3-6.7,6.7c0,2.3,1.1,4.3,2.9,5.5c-3.1,1-5.3,4-5.3,7.7v3.1h18.2v-3.1
		c0-3.6-2.2-6.7-5.3-7.7c1.7-1.2,2.9-3.2,2.9-5.5C-562.3,386-565.3,383-569,383 M-569,394.9c-2.8,0-5.1-2.3-5.1-5.1
		c0-2.8,2.3-5.1,5.1-5.1c2.8,0,5.1,2.3,5.1,5.1C-563.9,392.6-566.2,394.9-569,394.9 M-576.5,404.3v-1.5c0-3.5,2.6-6.4,5.8-6.4h3.4
		c3.2,0,5.8,2.9,5.8,6.4v1.5H-576.5z"/>
</g>
</svg>
