<?xml version="1.0" encoding="utf-8"?>
<!-- Generator: Adobe Illustrator 18.1.1, SVG Export Plug-In . SVG Version: 6.00 Build 0)  -->
<svg version="1.1" id="Layer_1" xmlns="http://www.w3.org/2000/svg" xmlns:xlink="http://www.w3.org/1999/xlink" x="0px" y="0px"
	 width="70px" height="70px" viewBox="-560 385.9 70 70" enable-background="new -560 385.9 70 70" xml:space="preserve">
<g>
	<path fill="#FFFFFF" d="M-537,453.4c-11.3,0-20.5-9.2-20.5-20.5v-24c0-11.3,9.2-20.5,20.5-20.5h24c11.3,0,20.5,9.2,20.5,20.5v24
		c0,11.3-9.2,20.5-20.5,20.5H-537z"/>
	<path fill="#D7D7D6" d="M-513,390.9c9.9,0,18,8.1,18,18v24c0,9.9-8.1,18-18,18h-24c-9.9,0-18-8.1-18-18v-24c0-9.9,8.1-18,18-18
		H-513 M-513,385.9h-24c-12.7,0-23,10.3-23,23v24c0,12.7,10.3,23,23,23h24c12.7,0,23-10.3,23-23v-24
		C-490,396.2-500.3,385.9-513,385.9L-513,385.9z"/>
</g>
<path fill="#D7D7D6" enable-background="new    " d="M-526.9,403.7c-1,0-1.9,0.1-2.8,0.4c-1.4,0.4-2.7,1.2-3.7,2.3
	c-2,2-2.9,4.7-2.7,7.3c0.2,2.1,1.1,4.2,2.7,5.8c1.6,1.6,3.7,2.5,5.8,2.7c0.2,0,0.5,0,0.7,0c1.8,0,3.6-0.5,5.2-1.6l5.4,5.4
	c0.4,0.4,0.8,0.5,1.3,0.5s0.9-0.2,1.3-0.5c0.7-0.7,0.7-1.8,0-2.5l-5.4-5.4c0.5-0.7,0.9-1.5,1.1-2.3c1-3.2,0.3-6.8-2.3-9.4
	C-522.2,404.6-524.6,403.7-526.9,403.7 M-527,420.2c-1.4,0-2.8-0.4-4-1.2c-0.4-0.3-0.8-0.6-1.1-0.9c-0.4-0.4-0.7-0.7-0.9-1.1
	c-1.8-2.8-1.5-6.6,0.9-9.1c1.1-1.1,2.5-1.8,4-2c0.4-0.1,0.7-0.1,1.1-0.1c1.8,0,3.7,0.7,5.1,2.1c1.7,1.7,2.4,4,2,6.2
	c-0.2,1.5-0.9,2.9-2,4C-523.3,419.5-525.1,420.2-527,420.2"/>
<path fill="#D7D7D6" enable-background="new    " d="M-527,409.4c-1.2,0-2.1,0.9-2.1,2.1c0,0.7,0.4,1.3,0.9,1.7
	c-1,0.3-1.7,1.3-1.7,2.4v1h5.7v-1c0-1.1-0.7-2.1-1.7-2.4c0.5-0.4,0.9-1,0.9-1.7C-524.9,410.3-525.8,409.4-527,409.4 M-527,413.1
	c-0.9,0-1.6-0.7-1.6-1.6c0-0.9,0.7-1.6,1.6-1.6s1.6,0.7,1.6,1.6C-525.4,412.4-526.1,413.1-527,413.1 M-529.3,416v-0.5
	c0-1.1,0.8-2,1.8-2h1.1c1,0,1.8,0.9,1.8,2v0.5H-529.3z"/>
<g>
	<path fill="#AAAAAA" d="M-542.5,433.8c0,1-0.4,1.7-1.3,1.9l1.6,2.3h-1.3l-1.5-2.1h-1.4v2.1h-1.1v-6.2h2.3c1,0,1.6,0.2,2,0.5
		C-542.7,432.6-542.5,433.1-542.5,433.8z M-543.9,434.7c0.2-0.2,0.3-0.5,0.3-0.9c0-0.4-0.1-0.7-0.3-0.8c-0.2-0.2-0.6-0.2-1.2-0.2
		h-1.3v2.2h1.3C-544.5,435-544.1,434.9-543.9,434.7z"/>
	<path fill="#AAAAAA" d="M-536,436.1h-3.7c0,0.3,0.2,0.6,0.5,0.8c0.3,0.2,0.6,0.3,1,0.3c0.6,0,1-0.2,1.4-0.6l0.6,0.6
		c-0.5,0.5-1.2,0.8-2,0.8c-0.7,0-1.2-0.2-1.7-0.7c-0.5-0.4-0.7-1-0.7-1.8c0-0.8,0.2-1.3,0.7-1.8c0.5-0.4,1-0.7,1.7-0.7
		c0.6,0,1.2,0.2,1.6,0.6c0.5,0.4,0.7,0.9,0.7,1.6L-536,436.1L-536,436.1z M-539.7,435.3h2.7c0-0.4-0.1-0.7-0.4-0.9
		c-0.3-0.2-0.6-0.3-0.9-0.3c-0.4,0-0.7,0.1-1,0.3C-539.6,434.6-539.7,434.9-539.7,435.3z"/>
	<path fill="#AAAAAA" d="M-530.9,436.6c0,0.5-0.2,0.8-0.5,1.1c-0.3,0.3-0.7,0.4-1.3,0.4c-0.3,0-0.7-0.1-1.1-0.2
		c-0.4-0.1-0.7-0.3-1-0.5l0.5-0.8c0.6,0.4,1.1,0.6,1.6,0.6c0.2,0,0.4-0.1,0.5-0.2c0.1-0.1,0.2-0.2,0.2-0.4s-0.3-0.5-0.9-0.6h-0.1
		c-1-0.3-1.5-0.7-1.5-1.3c0-0.4,0.2-0.8,0.5-1.1c0.3-0.3,0.8-0.4,1.3-0.4s1.1,0.2,1.6,0.5l-0.4,0.7c-0.4-0.3-0.8-0.4-1.3-0.4
		c-0.2,0-0.4,0-0.6,0.1c-0.1,0.1-0.2,0.2-0.2,0.4c0,0.2,0.1,0.3,0.2,0.3c0.1,0.1,0.3,0.1,0.5,0.2c0.2,0,0.4,0.1,0.5,0.1
		c0.1,0,0.3,0.1,0.4,0.2c0.1,0.1,0.3,0.1,0.5,0.2C-531,435.8-530.9,436.2-530.9,436.6z"/>
	<path fill="#AAAAAA" d="M-524.6,436.1h-3.7c0,0.3,0.2,0.6,0.5,0.8c0.3,0.2,0.6,0.3,1,0.3c0.6,0,1-0.2,1.4-0.6l0.6,0.6
		c-0.5,0.5-1.2,0.8-2,0.8c-0.7,0-1.2-0.2-1.7-0.7c-0.5-0.4-0.7-1-0.7-1.8c0-0.8,0.2-1.3,0.7-1.8c0.5-0.4,1-0.7,1.7-0.7
		c0.6,0,1.2,0.2,1.6,0.6c0.5,0.4,0.7,0.9,0.7,1.6L-524.6,436.1L-524.6,436.1z M-528.4,435.3h2.7c0-0.4-0.1-0.7-0.4-0.9
		c-0.3-0.2-0.6-0.3-0.9-0.3c-0.4,0-0.7,0.1-1,0.3C-528.2,434.6-528.4,434.9-528.4,435.3z"/>
	<path fill="#AAAAAA" d="M-519,438h-0.9v-0.6c-0.4,0.5-0.9,0.7-1.6,0.7c-0.5,0-0.9-0.1-1.2-0.4s-0.5-0.7-0.5-1.1
		c0-0.5,0.2-0.8,0.5-1c0.3-0.2,0.8-0.3,1.4-0.3h1.3v-0.2c0-0.6-0.4-0.9-1.1-0.9c-0.4,0-0.9,0.2-1.4,0.5l-0.4-0.8
		c0.6-0.5,1.2-0.7,2-0.7c0.6,0,1,0.1,1.4,0.4c0.4,0.3,0.5,0.7,0.5,1.3V438z M-520,436.3v-0.4h-1.1c-0.7,0-1.1,0.2-1.1,0.7
		c0,0.2,0.1,0.4,0.3,0.5c0.2,0.1,0.4,0.2,0.7,0.2s0.6-0.1,0.8-0.3C-520.1,436.8-520,436.6-520,436.3z"/>
	<path fill="#AAAAAA" d="M-514.5,434.2c-0.5,0-0.9,0.2-1.1,0.5c-0.2,0.3-0.4,0.8-0.4,1.3v2h-1v-4.8h1v1c0.2-0.3,0.4-0.5,0.7-0.7
		c0.3-0.2,0.6-0.3,0.9-0.3L-514.5,434.2C-514.4,434.2-514.4,434.2-514.5,434.2z"/>
	<path fill="#AAAAAA" d="M-510.6,438.1c-0.7,0-1.2-0.2-1.7-0.7c-0.5-0.4-0.7-1-0.7-1.8c0-0.7,0.2-1.3,0.7-1.8s1.1-0.7,1.8-0.7
		s1.3,0.2,1.8,0.7l-0.6,0.7c-0.4-0.4-0.8-0.5-1.2-0.5s-0.8,0.1-1.1,0.4c-0.3,0.3-0.4,0.8-0.4,1.2s0.2,0.8,0.5,1.1s0.7,0.5,1.1,0.5
		s0.9-0.2,1.3-0.6l0.6,0.6C-509.2,437.8-509.9,438.1-510.6,438.1z"/>
	<path fill="#AAAAAA" d="M-505.9,435.5v2.6h-1v-6.6h1v2.7c0.1-0.3,0.4-0.5,0.6-0.7c0.3-0.2,0.6-0.2,0.9-0.2c0.5,0,1,0.2,1.3,0.5
		c0.3,0.3,0.5,0.8,0.5,1.4v2.9h-1v-2.6c0-0.9-0.4-1.3-1.1-1.3c-0.3,0-0.6,0.1-0.9,0.3C-505.8,434.7-505.9,435-505.9,435.5z"/>
</g>
</svg>
