<?xml version="1.0" encoding="utf-8"?>
<!-- Generator: Adobe Illustrator 18.1.1, SVG Export Plug-In . SVG Version: 6.00 Build 0)  -->
<svg version="1.1" id="Layer_1" xmlns="http://www.w3.org/2000/svg" xmlns:xlink="http://www.w3.org/1999/xlink" x="0px" y="0px"
	 width="70px" height="70px" viewBox="0 0 70 70" enable-background="new 0 0 70 70" xml:space="preserve">
<path fill="#56B46D" d="M47,70H23C10.3,70,0,59.7,0,47V23C0,10.3,10.3,0,23,0h24c12.7,0,23,10.3,23,23v24C70,59.7,59.7,70,47,70z"/>
<g>
	<path opacity="0.6" fill="#FFFFFF" d="M33.1,17.8c-1,0-1.9,0.1-2.8,0.4c-1.4,0.4-2.7,1.2-3.7,2.3c-2,2-2.9,4.7-2.7,7.3
		c0.2,2.1,1.1,4.2,2.7,5.8s3.7,2.5,5.8,2.7c0.2,0,0.5,0,0.7,0c1.8,0,3.6-0.5,5.2-1.6l5.4,5.4c0.4,0.4,0.8,0.5,1.3,0.5
		c0.5,0,0.9-0.2,1.3-0.5c0.7-0.7,0.7-1.8,0-2.5l-5.4-5.4c0.5-0.7,0.9-1.5,1.1-2.3c1-3.2,0.3-6.8-2.3-9.4
		C37.8,18.7,35.4,17.8,33.1,17.8 M33,34.3c-1.4,0-2.8-0.4-4-1.2c-0.4-0.3-0.8-0.6-1.1-0.9c-0.4-0.4-0.7-0.7-0.9-1.1
		c-1.8-2.8-1.5-6.6,0.9-9.1c1.1-1.1,2.5-1.8,4-2c0.4-0.1,0.7-0.1,1.1-0.1c1.8,0,3.7,0.7,5.1,2.1c1.7,1.7,2.4,4,2,6.2
		c-0.2,1.5-0.9,2.9-2,4C36.7,33.6,34.9,34.3,33,34.3"/>
	<path opacity="0.6" fill="#FFFFFF" d="M33,23.5c-1.2,0-2.1,0.9-2.1,2.1c0,0.7,0.4,1.3,0.9,1.7c-1,0.3-1.7,1.3-1.7,2.4v1h5.7v-1
		c0-1.1-0.7-2.1-1.7-2.4c0.5-0.4,0.9-1,0.9-1.7C35.1,24.4,34.2,23.5,33,23.5 M33,27.2c-0.9,0-1.6-0.7-1.6-1.6c0-0.9,0.7-1.6,1.6-1.6
		c0.9,0,1.6,0.7,1.6,1.6C34.6,26.5,33.9,27.2,33,27.2 M30.7,30.1v-0.5c0-1.1,0.8-2,1.8-2h1.1c1,0,1.8,0.9,1.8,2v0.5H30.7z"/>
	<g>
		<path fill="#FFFFFF" d="M17.5,47.9c0,1-0.4,1.7-1.3,1.9l1.6,2.3h-1.3L15,50h-1.4v2.1h-1.1v-6.2h2.3c1,0,1.6,0.2,2,0.5
			C17.3,46.7,17.5,47.2,17.5,47.9z M16.1,48.8c0.2-0.2,0.3-0.5,0.3-0.9s-0.1-0.7-0.3-0.8c-0.2-0.2-0.6-0.2-1.2-0.2h-1.3v2.2h1.3
			C15.5,49.1,15.9,49,16.1,48.8z"/>
		<path fill="#FFFFFF" d="M24,50.2h-3.7c0,0.3,0.2,0.6,0.5,0.8c0.3,0.2,0.6,0.3,1,0.3c0.6,0,1-0.2,1.4-0.6l0.6,0.6
			c-0.5,0.5-1.2,0.8-2,0.8c-0.7,0-1.2-0.2-1.7-0.7c-0.5-0.4-0.7-1-0.7-1.8s0.2-1.3,0.7-1.8c0.5-0.4,1-0.7,1.7-0.7
			c0.6,0,1.2,0.2,1.6,0.6c0.5,0.4,0.7,0.9,0.7,1.6V50.2z M20.3,49.4H23c0-0.4-0.1-0.7-0.4-0.9c-0.3-0.2-0.6-0.3-0.9-0.3
			c-0.4,0-0.7,0.1-1,0.3C20.4,48.7,20.3,49,20.3,49.4z"/>
		<path fill="#FFFFFF" d="M29.1,50.7c0,0.5-0.2,0.8-0.5,1.1c-0.3,0.3-0.7,0.4-1.3,0.4c-0.3,0-0.7-0.1-1.1-0.2
			c-0.4-0.1-0.7-0.3-1-0.5l0.5-0.8c0.6,0.4,1.1,0.6,1.6,0.6c0.2,0,0.4-0.1,0.5-0.2c0.1-0.1,0.2-0.2,0.2-0.4c0-0.2-0.3-0.5-0.9-0.6
			c0,0-0.1,0-0.1,0c-1-0.3-1.5-0.7-1.5-1.3c0-0.4,0.2-0.8,0.5-1.1c0.3-0.3,0.8-0.4,1.3-0.4s1.1,0.2,1.6,0.5l-0.4,0.7
			c-0.4-0.3-0.8-0.4-1.3-0.4c-0.2,0-0.4,0-0.6,0.1c-0.1,0.1-0.2,0.2-0.2,0.4c0,0.2,0.1,0.3,0.2,0.3c0.1,0.1,0.3,0.1,0.5,0.2
			c0.2,0,0.4,0.1,0.5,0.1c0.1,0,0.3,0.1,0.4,0.2c0.1,0.1,0.3,0.1,0.5,0.2C29,49.9,29.1,50.3,29.1,50.7z"/>
		<path fill="#FFFFFF" d="M35.4,50.2h-3.7c0,0.3,0.2,0.6,0.5,0.8c0.3,0.2,0.6,0.3,1,0.3c0.6,0,1-0.2,1.4-0.6l0.6,0.6
			c-0.5,0.5-1.2,0.8-2,0.8c-0.7,0-1.2-0.2-1.7-0.7c-0.5-0.4-0.7-1-0.7-1.8s0.2-1.3,0.7-1.8c0.5-0.4,1-0.7,1.7-0.7
			c0.6,0,1.2,0.2,1.6,0.6c0.5,0.4,0.7,0.9,0.7,1.6V50.2z M31.6,49.4h2.7c0-0.4-0.1-0.7-0.4-0.9c-0.3-0.2-0.6-0.3-0.9-0.3
			c-0.4,0-0.7,0.1-1,0.3C31.8,48.7,31.6,49,31.6,49.4z"/>
		<path fill="#FFFFFF" d="M41,52.1h-0.9v-0.6c-0.4,0.5-0.9,0.7-1.6,0.7c-0.5,0-0.9-0.1-1.2-0.4c-0.3-0.3-0.5-0.7-0.5-1.1
			c0-0.5,0.2-0.8,0.5-1c0.3-0.2,0.8-0.3,1.4-0.3H40v-0.2c0-0.6-0.4-0.9-1.1-0.9c-0.4,0-0.9,0.2-1.4,0.5L37.1,48
			c0.6-0.5,1.2-0.7,2-0.7c0.6,0,1,0.1,1.4,0.4c0.4,0.3,0.5,0.7,0.5,1.3V52.1z M40,50.4V50h-1.1c-0.7,0-1.1,0.2-1.1,0.7
			c0,0.2,0.1,0.4,0.3,0.5s0.4,0.2,0.7,0.2c0.3,0,0.6-0.1,0.8-0.3C39.9,50.9,40,50.7,40,50.4z"/>
		<path fill="#FFFFFF" d="M45.5,48.3c-0.5,0-0.9,0.2-1.1,0.5c-0.2,0.3-0.4,0.8-0.4,1.3v2h-1v-4.8h1v1c0.2-0.3,0.4-0.5,0.7-0.7
			s0.6-0.3,0.9-0.3L45.5,48.3C45.6,48.3,45.6,48.3,45.5,48.3z"/>
		<path fill="#FFFFFF" d="M49.4,52.2c-0.7,0-1.2-0.2-1.7-0.7c-0.5-0.4-0.7-1-0.7-1.8c0-0.7,0.2-1.3,0.7-1.8c0.5-0.5,1.1-0.7,1.8-0.7
			c0.7,0,1.3,0.2,1.8,0.7l-0.6,0.7c-0.4-0.4-0.8-0.5-1.2-0.5c-0.4,0-0.8,0.1-1.1,0.4S48,49.3,48,49.7s0.2,0.8,0.5,1.1
			s0.7,0.5,1.1,0.5s0.9-0.2,1.3-0.6l0.6,0.6C50.8,51.9,50.1,52.2,49.4,52.2z"/>
		<path fill="#FFFFFF" d="M54.1,49.6v2.6h-1v-6.6h1v2.7c0.1-0.3,0.4-0.5,0.6-0.7c0.3-0.2,0.6-0.2,0.9-0.2c0.5,0,1,0.2,1.3,0.5
			c0.3,0.3,0.5,0.8,0.5,1.4v2.9h-1v-2.6c0-0.9-0.4-1.3-1.1-1.3c-0.3,0-0.6,0.1-0.9,0.3C54.2,48.8,54.1,49.1,54.1,49.6z"/>
	</g>
</g>
</svg>
