<?xml version="1.0" encoding="utf-8"?>
<!-- Generator: Adobe Illustrator 18.1.1, SVG Export Plug-In . SVG Version: 6.00 Build 0)  -->
<svg version="1.1" id="Layer_1" xmlns="http://www.w3.org/2000/svg" xmlns:xlink="http://www.w3.org/1999/xlink" x="0px" y="0px"
	 width="50.5px" height="50.6px" viewBox="0 0 50.5 50.6" enable-background="new 0 0 50.5 50.6" xml:space="preserve">
<path fill="#935A9F" d="M50.5,50.6H0V21.5C0,9.6,9.6,0,21.5,0h29V50.6z"/>
<g>
	<path fill="#FFFFFF" d="M17.1,38.6c0.5,0,0.9-0.2,1.2-0.6l0.6,0.7c-0.5,0.6-1.1,0.8-1.8,0.8c-0.7,0-1.2-0.2-1.7-0.6
		c-0.4-0.4-0.7-1-0.7-1.6c0-0.7,0.2-1.2,0.7-1.6c0.4-0.4,1-0.7,1.6-0.7c0.7,0,1.3,0.3,1.8,0.8l-0.6,0.7c-0.3-0.4-0.7-0.6-1.2-0.6
		c-0.4,0-0.7,0.1-0.9,0.4c-0.3,0.2-0.4,0.6-0.4,1s0.1,0.7,0.4,1S16.7,38.6,17.1,38.6z"/>
	<path fill="#FFFFFF" d="M21.4,36.9c-0.3,0-0.5,0.1-0.6,0.3s-0.2,0.5-0.2,0.8v1.5h-0.9v-3.4h0.9v0.4c0.1-0.1,0.3-0.3,0.5-0.4
		c0.2-0.1,0.4-0.1,0.6-0.2l0,0.9H21.4z"/>
	<path fill="#FFFFFF" d="M25.1,39c-0.4,0.4-0.8,0.5-1.3,0.5c-0.5,0-0.9-0.2-1.3-0.5c-0.3-0.3-0.5-0.7-0.5-1.3c0-0.5,0.2-1,0.5-1.3
		c0.3-0.3,0.7-0.5,1.2-0.5c0.5,0,0.9,0.1,1.2,0.4c0.3,0.3,0.5,0.7,0.5,1.2v0.5h-2.5c0,0.2,0.1,0.3,0.3,0.5s0.3,0.2,0.6,0.2
		c0.3,0,0.6-0.1,0.8-0.3L25.1,39z M24.2,37c-0.1-0.1-0.3-0.2-0.5-0.2c-0.2,0-0.4,0.1-0.5,0.2c-0.2,0.1-0.2,0.3-0.3,0.5h1.5
		C24.4,37.2,24.4,37.1,24.2,37z"/>
	<path fill="#FFFFFF" d="M29,39.5h-0.9V39c-0.2,0.3-0.5,0.5-0.9,0.5c-0.4,0-0.7-0.1-0.9-0.3c-0.2-0.2-0.4-0.5-0.4-0.8
		s0.1-0.6,0.4-0.8c0.3-0.2,0.6-0.3,1-0.3H28v0c0-0.4-0.2-0.5-0.6-0.5c-0.2,0-0.3,0-0.5,0.1c-0.2,0.1-0.3,0.1-0.5,0.2L26,36.5
		c0.4-0.3,1-0.5,1.5-0.5c0.4,0,0.7,0.1,1,0.3s0.4,0.5,0.4,1V39.5z M28,38.2V38h-0.6c-0.4,0-0.6,0.1-0.6,0.4c0,0.1,0,0.2,0.1,0.3
		c0.1,0.1,0.2,0.1,0.4,0.1c0.2,0,0.3-0.1,0.4-0.2S28,38.3,28,38.2z"/>
	<path fill="#FFFFFF" d="M30.9,36.7v1.5c0,0.1,0,0.2,0.1,0.3c0.1,0.1,0.1,0.1,0.2,0.1c0.2,0,0.3-0.1,0.4-0.2l0.4,0.7
		c-0.3,0.3-0.6,0.4-0.9,0.4s-0.6-0.1-0.8-0.3C30.1,39,30,38.7,30,38.3v-1.6h-0.4v-0.7H30v-1h1v1h0.8v0.7H30.9z"/>
	<path fill="#FFFFFF" d="M35.5,39c-0.4,0.4-0.8,0.5-1.3,0.5c-0.5,0-0.9-0.2-1.3-0.5c-0.3-0.3-0.5-0.7-0.5-1.3c0-0.5,0.2-1,0.5-1.3
		c0.3-0.3,0.7-0.5,1.2-0.5c0.5,0,0.9,0.1,1.2,0.4c0.3,0.3,0.5,0.7,0.5,1.2v0.5h-2.5c0,0.2,0.1,0.3,0.3,0.5s0.3,0.2,0.6,0.2
		c0.3,0,0.6-0.1,0.8-0.3L35.5,39z M34.6,37c-0.1-0.1-0.3-0.2-0.5-0.2c-0.2,0-0.4,0.1-0.5,0.2c-0.2,0.1-0.2,0.3-0.3,0.5h1.5
		C34.8,37.2,34.7,37.1,34.6,37z"/>
</g>
<polygon opacity="0.6" fill="#FFFFFF" points="19.9,14.5 17.7,16.6 18.8,17.8 19.9,16.7 21,15.6 "/>
<path opacity="0.6" fill="#FFFFFF" d="M32.2,26.9c-0.1,0-0.2,0-0.3,0.1c-0.3,0.1-0.7,0.3-1,0.6c-0.4,0.4-0.7,0.9-0.7,1.3l0,0.2
	l2.6,0.5L32.4,27C32.3,26.9,32.3,26.9,32.2,26.9"/>
<path opacity="0.6" fill="#FFFFFF" d="M21.5,16.1l-1.1,1.1l-1.1,1.1l10.3,10.3c0.1-0.4,0.4-0.9,0.8-1.4c0.4-0.4,0.8-0.7,1.3-0.8l0,0
	L21.5,16.1z"/>
</svg>
