<?xml version="1.0" encoding="utf-8"?>
<!-- Generator: Adobe Illustrator 18.1.1, SVG Export Plug-In . SVG Version: 6.00 Build 0)  -->
<svg version="1.1" id="Layer_1" xmlns="http://www.w3.org/2000/svg" xmlns:xlink="http://www.w3.org/1999/xlink" x="0px" y="0px"
	 width="50.5px" height="50.6px" viewBox="0 0 50.5 50.6" enable-background="new 0 0 50.5 50.6" xml:space="preserve">
<path fill="#C25375" d="M0,50.6h50.5V21.5C50.5,9.6,40.9,0,29,0L0,0L0,50.6z"/>
<path opacity="0.6" fill="#FFFFFF" d="M25.1,15.1c-4.1,0-7.4,3.3-7.4,7.4c0,4.1,3.3,7.4,7.4,7.4c4.1,0,7.4-3.3,7.4-7.4
	C32.5,18.4,29.2,15.1,25.1,15.1 M24.4,18.1h1.5v-1.4c2.6,0.3,4.7,2.4,5,5h-1.4v1.5h1.4c-0.3,2.6-2.4,4.7-5,5v-1.5h-1.5v1.5
	c-2.6-0.3-4.7-2.4-5-5h1.4v-1.5h-1.4c0.3-2.6,2.4-4.7,5-5V18.1z"/>
<g opacity="0.6">
	<path fill="#FFFFFF" d="M25.6,23.5h-1.1V23c0-0.2,0-0.3,0.1-0.5c0.1-0.1,0.2-0.2,0.3-0.4l0.5-0.5c0.1-0.1,0.1-0.2,0.1-0.3
		c0-0.1,0-0.3-0.1-0.3s-0.2-0.1-0.3-0.1s-0.2,0.1-0.3,0.2c-0.1,0.1-0.1,0.3-0.2,0.4h-1.2c0.1-0.5,0.2-0.9,0.5-1.1s0.7-0.4,1.1-0.4
		s0.8,0.1,1.1,0.4s0.4,0.6,0.4,1c0,0.2,0,0.3-0.1,0.4c0,0.1-0.1,0.2-0.1,0.2c0,0-0.1,0.1-0.1,0.2s-0.1,0.1-0.1,0.2
		c-0.1,0.1-0.2,0.2-0.3,0.3c-0.1,0.1-0.2,0.2-0.2,0.3c0,0.1-0.1,0.2-0.1,0.3V23.5z M24.6,24.9c-0.1-0.1-0.2-0.3-0.2-0.5
		s0.1-0.3,0.2-0.5c0.1-0.1,0.3-0.2,0.5-0.2c0.2,0,0.3,0.1,0.5,0.2c0.1,0.1,0.2,0.3,0.2,0.5s-0.1,0.3-0.2,0.5
		c-0.1,0.1-0.3,0.2-0.5,0.2C24.9,25.1,24.8,25,24.6,24.9z"/>
</g>
<path fill="#FFFFFF" d="M16.7,32.9c0.8,0,1.4,0.2,1.8,0.6c0.4,0.4,0.6,0.9,0.6,1.6c0,0.7-0.2,1.2-0.6,1.6c-0.4,0.4-1,0.6-1.9,0.6
	h-1.5v-4.4H16.7L16.7,32.9z M16.7,36.4c0.5,0,0.8-0.1,1-0.3c0.2-0.2,0.4-0.6,0.4-1c0-0.4-0.1-0.8-0.4-1c-0.2-0.2-0.6-0.4-1.1-0.4
	h-0.5v2.7H16.7L16.7,36.4z M22.8,36.8c-0.4,0.4-0.8,0.5-1.3,0.5c-0.5,0-0.9-0.2-1.3-0.5c-0.3-0.3-0.5-0.7-0.5-1.3
	c0-0.5,0.2-1,0.5-1.3c0.3-0.3,0.7-0.5,1.2-0.5s0.9,0.1,1.2,0.4c0.3,0.3,0.5,0.7,0.5,1.2V36h-2.5c0,0.2,0.1,0.3,0.3,0.5
	c0.2,0.1,0.3,0.2,0.6,0.2c0.3,0,0.6-0.1,0.8-0.3L22.8,36.8z M22.2,35.3c0-0.2-0.1-0.4-0.2-0.5c-0.1-0.1-0.3-0.2-0.5-0.2
	c-0.2,0-0.4,0.1-0.5,0.2c-0.2,0.1-0.2,0.3-0.3,0.5H22.2L22.2,35.3z M24.9,33.7V34h0.8v0.7h-0.8v2.7h-1v-2.7h-0.4V34H24v-0.2
	c0-0.4,0.1-0.7,0.3-0.9c0.2-0.2,0.5-0.3,0.8-0.3s0.6,0.1,0.9,0.4l-0.3,0.6c-0.1-0.2-0.3-0.2-0.5-0.2c-0.1,0-0.2,0-0.2,0.1
	C25,33.5,24.9,33.6,24.9,33.7z M26.4,33.5c-0.1-0.1-0.2-0.2-0.2-0.4c0-0.2,0.1-0.3,0.2-0.4s0.2-0.2,0.4-0.2c0.2,0,0.3,0.1,0.4,0.2
	s0.2,0.2,0.2,0.4c0,0.2-0.1,0.3-0.2,0.4s-0.2,0.2-0.4,0.2C26.7,33.6,26.5,33.6,26.4,33.5z M27.3,37.3h-0.9v-3.4h0.9V37.3z
	 M29.1,35.4v1.9h-0.9v-3.4h0.9v0.4c0.3-0.3,0.6-0.4,1-0.4c0.4,0,0.7,0.1,0.9,0.4c0.2,0.3,0.4,0.6,0.4,1v2.1h-0.9v-1.9
	c0-0.5-0.2-0.8-0.6-0.8c-0.2,0-0.4,0.1-0.5,0.2C29.2,35,29.1,35.2,29.1,35.4z M35.2,36.8c-0.4,0.4-0.8,0.5-1.3,0.5
	c-0.5,0-0.9-0.2-1.3-0.5c-0.3-0.3-0.5-0.7-0.5-1.3c0-0.5,0.2-1,0.5-1.3c0.3-0.3,0.7-0.5,1.2-0.5s0.9,0.1,1.2,0.4
	c0.3,0.3,0.5,0.7,0.5,1.2V36H33c0,0.2,0.1,0.3,0.3,0.5c0.2,0.1,0.3,0.2,0.6,0.2c0.3,0,0.6-0.1,0.8-0.3L35.2,36.8z M34.5,35.3
	c0-0.2-0.1-0.4-0.2-0.5c-0.1-0.1-0.3-0.2-0.5-0.2c-0.2,0-0.4,0.1-0.5,0.2c-0.2,0.1-0.2,0.3-0.3,0.5H34.5L34.5,35.3z"/>
<g>
	<path fill="#FFFFFF" d="M9.3,40.6h1V45h-1V40.6z"/>
	<path fill="#FFFFFF" d="M12.2,43.2V45h-0.9v-3.4h0.9V42c0.3-0.3,0.6-0.4,1-0.4c0.4,0,0.7,0.1,0.9,0.4c0.2,0.3,0.4,0.6,0.4,1V45
		h-0.9v-1.9c0-0.5-0.2-0.8-0.6-0.8c-0.2,0-0.4,0.1-0.5,0.2S12.2,42.9,12.2,43.2z"/>
	<path fill="#FFFFFF" d="M16.4,42.3v1.5c0,0.1,0,0.2,0.1,0.3c0.1,0.1,0.1,0.1,0.2,0.1c0.2,0,0.3-0.1,0.4-0.2l0.4,0.7
		c-0.3,0.3-0.6,0.4-0.9,0.4S16,45,15.8,44.8s-0.3-0.5-0.3-0.9v-1.6H15v-0.7h0.4v-1h1v1h0.8v0.7H16.4z"/>
	<path fill="#FFFFFF" d="M21,44.6c-0.4,0.4-0.8,0.5-1.3,0.5c-0.5,0-0.9-0.2-1.3-0.5c-0.3-0.3-0.5-0.7-0.5-1.3s0.2-1,0.5-1.3
		s0.7-0.5,1.2-0.5s0.9,0.1,1.2,0.4c0.3,0.3,0.5,0.7,0.5,1.2v0.5h-2.5c0,0.2,0.1,0.3,0.3,0.5c0.2,0.1,0.3,0.2,0.6,0.2
		c0.3,0,0.6-0.1,0.8-0.3L21,44.6z M20.1,42.5c-0.1-0.1-0.3-0.2-0.5-0.2c-0.2,0-0.4,0.1-0.5,0.2s-0.2,0.3-0.3,0.5h1.5
		C20.3,42.8,20.2,42.7,20.1,42.5z"/>
	<path fill="#FFFFFF" d="M22.9,43.2V45h-0.9v-3.4h0.9V42c0.3-0.3,0.6-0.4,1-0.4c0.4,0,0.7,0.1,0.9,0.4c0.2,0.3,0.4,0.6,0.4,1V45
		h-0.9v-1.9c0-0.5-0.2-0.8-0.6-0.8c-0.2,0-0.4,0.1-0.5,0.2S22.9,42.9,22.9,43.2z"/>
	<path fill="#FFFFFF" d="M27.1,42.3v1.5c0,0.1,0,0.2,0.1,0.3c0.1,0.1,0.1,0.1,0.2,0.1c0.2,0,0.3-0.1,0.4-0.2l0.4,0.7
		c-0.3,0.3-0.6,0.4-0.9,0.4s-0.6-0.1-0.8-0.3s-0.3-0.5-0.3-0.9v-1.6h-0.4v-0.7h0.4v-1h1v1h0.8v0.7H27.1z"/>
	<path fill="#FFFFFF" d="M28.8,41.2c-0.1-0.1-0.2-0.2-0.2-0.4s0.1-0.3,0.2-0.4s0.2-0.2,0.4-0.2s0.3,0.1,0.4,0.2
		c0.1,0.1,0.2,0.2,0.2,0.4s-0.1,0.3-0.2,0.4c-0.1,0.1-0.2,0.2-0.4,0.2S28.9,41.3,28.8,41.2z M29.6,45h-0.9v-3.4h0.9V45z"/>
	<path fill="#FFFFFF" d="M33.9,43.3c0,0.5-0.2,0.9-0.5,1.2c-0.3,0.3-0.8,0.5-1.3,0.5c-0.5,0-0.9-0.2-1.3-0.5
		c-0.3-0.3-0.5-0.8-0.5-1.2s0.2-0.9,0.5-1.2c0.3-0.3,0.8-0.5,1.3-0.5c0.5,0,0.9,0.2,1.3,0.5C33.8,42.4,33.9,42.9,33.9,43.3z
		 M31.3,43.3c0,0.3,0.1,0.5,0.2,0.7c0.2,0.2,0.4,0.3,0.6,0.3s0.4-0.1,0.6-0.3c0.2-0.2,0.2-0.4,0.2-0.7c0-0.3-0.1-0.5-0.2-0.7
		c-0.2-0.2-0.4-0.3-0.6-0.3s-0.4,0.1-0.6,0.3S31.3,43.1,31.3,43.3z"/>
	<path fill="#FFFFFF" d="M35.6,43.2V45h-0.9v-3.4h0.9V42c0.3-0.3,0.6-0.4,1-0.4c0.4,0,0.7,0.1,0.9,0.4c0.2,0.3,0.4,0.6,0.4,1V45
		h-0.9v-1.9c0-0.5-0.2-0.8-0.6-0.8c-0.2,0-0.4,0.1-0.5,0.2S35.6,42.9,35.6,43.2z"/>
	<path fill="#FFFFFF" d="M41.2,44c0,0.3-0.1,0.6-0.4,0.8c-0.2,0.2-0.6,0.3-0.9,0.3c-0.3,0-0.5,0-0.8-0.1c-0.3-0.1-0.5-0.2-0.7-0.4
		l0.4-0.6c0.4,0.3,0.7,0.4,1.1,0.4c0.1,0,0.2,0,0.3-0.1c0.1,0,0.1-0.1,0.1-0.2s0-0.2-0.1-0.2c-0.1-0.1-0.2-0.1-0.4-0.2
		c-0.2-0.1-0.3-0.1-0.4-0.2s-0.2-0.1-0.3-0.2c-0.3-0.2-0.4-0.4-0.4-0.7s0.1-0.6,0.4-0.8c0.3-0.2,0.6-0.3,1-0.3
		c0.4,0,0.8,0.1,1.2,0.4l-0.4,0.6c-0.3-0.2-0.6-0.3-0.9-0.3s-0.4,0.1-0.4,0.2c0,0.1,0,0.2,0.1,0.2c0.1,0,0.2,0.1,0.5,0.2
		c0.2,0.1,0.4,0.1,0.5,0.2c0.1,0,0.2,0.1,0.3,0.2C41.1,43.4,41.2,43.7,41.2,44z"/>
</g>
</svg>
