<?xml version="1.0" encoding="utf-8"?>
<!-- Generator: Adobe Illustrator 18.1.1, SVG Export Plug-In . SVG Version: 6.00 Build 0)  -->
<svg version="1.1" id="Layer_1" xmlns="http://www.w3.org/2000/svg" xmlns:xlink="http://www.w3.org/1999/xlink" x="0px" y="0px"
	 width="50.5px" height="50.6px" viewBox="0 0 50.5 50.6" enable-background="new 0 0 50.5 50.6" xml:space="preserve">
<path fill="#EFC303" d="M0,50.6h50.5V21.5C50.5,9.6,40.9,0,29,0L0,0L0,50.6z"/>
<g>
	<polygon opacity="0.6" fill="#FFFFFF" points="25.4,13.7 18,13.7 18,21.1 19.9,19.8 19.9,15.7 24.2,15.7 	"/>
	<polygon opacity="0.6" fill="#FFFFFF" points="32.8,21.1 30.8,22.3 30.8,26.5 26.6,26.5 25.4,28.5 32.8,28.5 	"/>
	<polygon opacity="0.6" fill="#FFFFFF" points="26.7,18.3 24.1,18.3 24.8,21.6 26,21.6 	"/>
	<path opacity="0.6" fill="#FFFFFF" d="M25.4,22.3c-0.5,0-0.9,0.4-0.9,0.9c0,0.5,0.4,0.9,0.9,0.9c0.5,0,0.9-0.4,0.9-0.9
		C26.3,22.7,25.9,22.3,25.4,22.3"/>
</g>
<g>
	<path fill="#FFFFFF" d="M18.8,32.8v0.9h-2.1v1h2v0.9h-2v1.8h-1v-4.5H18.8z"/>
	<path fill="#FFFFFF" d="M21.4,34.7c-0.3,0-0.5,0.1-0.6,0.3s-0.2,0.5-0.2,0.8v1.5h-1v-3.5h1v0.5c0.1-0.1,0.3-0.3,0.5-0.4
		s0.4-0.1,0.6-0.2l0,0.9H21.4z"/>
	<path fill="#FFFFFF" d="M25.1,37.3h-0.9v-0.4c-0.2,0.3-0.6,0.5-0.9,0.5c-0.4,0-0.7-0.1-0.9-0.3c-0.2-0.2-0.4-0.5-0.4-0.8
		c0-0.4,0.1-0.6,0.4-0.8s0.6-0.3,1.1-0.3h0.7v0c0-0.4-0.2-0.6-0.6-0.6c-0.2,0-0.3,0-0.5,0.1s-0.3,0.1-0.5,0.2l-0.4-0.6
		c0.5-0.3,1-0.5,1.6-0.5c0.4,0,0.8,0.1,1,0.3c0.3,0.2,0.4,0.5,0.4,1V37.3z M24.2,36v-0.2h-0.6c-0.4,0-0.6,0.1-0.6,0.4
		c0,0.1,0,0.2,0.1,0.3c0.1,0.1,0.2,0.1,0.4,0.1c0.2,0,0.3-0.1,0.5-0.2S24.2,36.2,24.2,36z"/>
	<path fill="#FFFFFF" d="M29.2,35.5v1.9h-1v-1.9c0-0.3,0-0.5-0.1-0.6c-0.1-0.1-0.2-0.2-0.4-0.2c-0.2,0-0.4,0.1-0.5,0.2
		C27.1,35,27,35.2,27,35.5v1.9h-1v-3.5h1v0.4c0.3-0.3,0.6-0.5,0.9-0.5c0.2,0,0.4,0.1,0.6,0.2c0.2,0.1,0.3,0.3,0.4,0.5
		c0.1-0.2,0.3-0.4,0.5-0.5s0.5-0.2,0.7-0.2c0.4,0,0.7,0.1,1,0.4s0.4,0.6,0.4,1.1v2.1h-1v-1.9c0-0.5-0.2-0.8-0.6-0.8
		c-0.2,0-0.4,0.1-0.5,0.2C29.3,35,29.2,35.2,29.2,35.5z"/>
	<path fill="#FFFFFF" d="M35.3,36.8c-0.4,0.4-0.8,0.6-1.4,0.6s-1-0.2-1.3-0.5c-0.3-0.3-0.5-0.8-0.5-1.3c0-0.5,0.2-1,0.5-1.3
		c0.3-0.3,0.8-0.5,1.2-0.5c0.5,0,0.9,0.1,1.2,0.4c0.3,0.3,0.5,0.7,0.5,1.2v0.5h-2.5c0,0.2,0.1,0.3,0.3,0.5c0.2,0.1,0.4,0.2,0.6,0.2
		c0.3,0,0.6-0.1,0.8-0.3L35.3,36.8z M34.4,34.8c-0.1-0.1-0.3-0.2-0.5-0.2s-0.4,0.1-0.5,0.2c-0.2,0.1-0.3,0.3-0.3,0.5h1.5
		C34.6,35,34.5,34.9,34.4,34.8z"/>
</g>
<g>
	<path fill="#FFFFFF" d="M12.7,40.6h1v4.5h-1V40.6z"/>
	<path fill="#FFFFFF" d="M15.7,43.2v1.9h-1v-3.5h1v0.4c0.3-0.3,0.6-0.4,1-0.4s0.7,0.1,0.9,0.4c0.2,0.3,0.4,0.6,0.4,1v2.1h-1v-2
		c0-0.5-0.2-0.8-0.6-0.8c-0.2,0-0.4,0.1-0.5,0.2C15.7,42.7,15.7,42.9,15.7,43.2z"/>
	<path fill="#FFFFFF" d="M21.4,44.1c0,0.3-0.1,0.6-0.4,0.8c-0.3,0.2-0.6,0.3-1,0.3c-0.3,0-0.5,0-0.8-0.1c-0.3-0.1-0.5-0.2-0.8-0.4
		l0.4-0.6c0.4,0.3,0.7,0.4,1.2,0.4c0.1,0,0.2,0,0.3-0.1c0.1,0,0.1-0.1,0.1-0.2S20.4,44,20.3,44c-0.1-0.1-0.2-0.1-0.4-0.2
		c-0.2-0.1-0.3-0.1-0.4-0.2s-0.2-0.1-0.3-0.2c-0.3-0.2-0.4-0.4-0.4-0.7s0.1-0.6,0.4-0.8c0.3-0.2,0.6-0.3,1-0.3
		c0.4,0,0.8,0.1,1.2,0.4L21,42.7c-0.3-0.2-0.6-0.3-0.9-0.3s-0.4,0.1-0.4,0.2c0,0.1,0,0.2,0.1,0.2c0.1,0.1,0.3,0.1,0.5,0.2
		c0.2,0.1,0.4,0.1,0.5,0.2c0.1,0,0.2,0.1,0.3,0.2C21.3,43.5,21.4,43.7,21.4,44.1z"/>
	<path fill="#FFFFFF" d="M22.2,41.2c-0.1-0.1-0.2-0.2-0.2-0.4s0.1-0.3,0.2-0.4c0.1-0.1,0.2-0.2,0.4-0.2c0.2,0,0.3,0.1,0.4,0.2
		s0.2,0.2,0.2,0.4s-0.1,0.3-0.2,0.4s-0.2,0.2-0.4,0.2C22.5,41.4,22.3,41.3,22.2,41.2z M23.1,45.1h-1v-3.5h1V45.1z"/>
	<path fill="#FFFFFF" d="M26.6,44.6c-0.3,0.3-0.7,0.5-1.1,0.5c-0.5,0-0.8-0.2-1.1-0.5c-0.3-0.3-0.5-0.7-0.5-1.2s0.2-0.9,0.5-1.3
		c0.3-0.3,0.7-0.5,1.1-0.5c0.4,0,0.8,0.2,1,0.5v-0.5h1v3c0,0.3-0.1,0.6-0.2,0.8c-0.1,0.2-0.3,0.4-0.4,0.6c-0.4,0.3-0.8,0.4-1.3,0.4
		c-0.3,0-0.5,0-0.8-0.1c-0.3-0.1-0.5-0.2-0.7-0.4l0.4-0.7c0.3,0.2,0.7,0.4,1,0.4c0.4,0,0.6-0.1,0.8-0.3
		C26.5,45.2,26.6,44.9,26.6,44.6z M26.4,43.3c0-0.3-0.1-0.5-0.2-0.7c-0.2-0.2-0.3-0.2-0.6-0.2c-0.2,0-0.4,0.1-0.6,0.2
		c-0.2,0.2-0.2,0.4-0.2,0.6s0.1,0.5,0.2,0.7c0.2,0.2,0.4,0.3,0.6,0.3s0.4-0.1,0.6-0.3C26.4,43.8,26.4,43.6,26.4,43.3z"/>
	<path fill="#FFFFFF" d="M29.3,43.3v1.9h-1v-4.8h1v1.7c0.3-0.3,0.6-0.4,1-0.4c0.4,0,0.7,0.1,0.9,0.4s0.4,0.6,0.4,1v2.1h-1v-1.9
		c0-0.5-0.2-0.8-0.6-0.8c-0.2,0-0.4,0.1-0.5,0.2C29.3,42.8,29.3,43,29.3,43.3z"/>
	<path fill="#FFFFFF" d="M33.6,42.4v1.5c0,0.1,0,0.2,0.1,0.3c0.1,0.1,0.1,0.1,0.2,0.1c0.2,0,0.3-0.1,0.5-0.2l0.4,0.7
		c-0.3,0.3-0.6,0.4-0.9,0.4c-0.3,0-0.6-0.1-0.8-0.3c-0.2-0.2-0.3-0.5-0.3-0.9v-1.6h-0.4v-0.7h0.4v-1h1v1h0.8v0.7H33.6z"/>
	<path fill="#FFFFFF" d="M37.8,44.1c0,0.3-0.1,0.6-0.4,0.8c-0.3,0.2-0.6,0.3-1,0.3c-0.3,0-0.5,0-0.8-0.1c-0.3-0.1-0.5-0.2-0.8-0.4
		l0.4-0.6c0.4,0.3,0.7,0.4,1.2,0.4c0.1,0,0.2,0,0.3-0.1c0.1,0,0.1-0.1,0.1-0.2S36.9,44,36.8,44c-0.1-0.1-0.2-0.1-0.4-0.2
		c-0.2-0.1-0.3-0.1-0.4-0.2s-0.2-0.1-0.3-0.2c-0.3-0.2-0.4-0.4-0.4-0.7s0.1-0.6,0.4-0.8c0.3-0.2,0.6-0.3,1-0.3
		c0.4,0,0.8,0.1,1.2,0.4l-0.4,0.6c-0.3-0.2-0.6-0.3-0.9-0.3s-0.4,0.1-0.4,0.2c0,0.1,0,0.2,0.1,0.2c0.1,0.1,0.3,0.1,0.5,0.2
		c0.2,0.1,0.4,0.1,0.5,0.2c0.1,0,0.2,0.1,0.3,0.2C37.7,43.5,37.8,43.7,37.8,44.1z"/>
</g>
</svg>
