<?xml version="1.0" encoding="utf-8"?>
<!-- Generator: Adobe Illustrator 18.1.1, SVG Export Plug-In . SVG Version: 6.00 Build 0)  -->
<svg version="1.1" id="Layer_1" xmlns="http://www.w3.org/2000/svg" xmlns:xlink="http://www.w3.org/1999/xlink" x="0px" y="0px"
	 width="50.5px" height="50.6px" viewBox="0 0 50.5 50.6" enable-background="new 0 0 50.5 50.6" xml:space="preserve">
<path fill="#E44A3B" d="M0,50.6h50.5V21.5C50.5,9.6,40.9,0,29,0L0,0L0,50.6z"/>
<g>
	<g>
		<path opacity="0.6" fill="#FFFDF8" d="M20.3,17.7l-1.9-0.8L18,17.5l1.9,0.8C20,18.1,20.1,17.9,20.3,17.7"/>
		<path opacity="0.6" fill="#FFFDF8" d="M22.7,15.2l-1-1.8L21,13.8l1,1.8C22.3,15.5,22.5,15.4,22.7,15.2"/>
		<path opacity="0.6" fill="#FFFDF8" d="M30.2,18.4l1.9-0.8l-0.3-0.7l-1.9,0.8C30,17.9,30.1,18.1,30.2,18.4"/>
		<path opacity="0.6" fill="#FFFDF8" d="M28.1,15.6l1-1.8l-0.7-0.4l-1,1.8C27.6,15.4,27.8,15.5,28.1,15.6"/>
		<path opacity="0.6" fill="#FFFDF8" d="M25.1,14.7c0.1,0,0.3,0,0.4,0v-2.1h-0.8v2.1C24.8,14.7,24.9,14.7,25.1,14.7"/>
		<path opacity="0.6" fill="#FFFDF8" d="M28.6,24.2l1.5,1.5l0.5-0.5l-1.5-1.5C29,23.8,28.8,24,28.6,24.2"/>
		<path opacity="0.6" fill="#FFFDF8" d="M30.4,20.6c0,0.3-0.1,0.5-0.1,0.7l2.1,0.4l0.1-0.7L30.4,20.6z"/>
		<path opacity="0.6" fill="#FFFDF8" d="M21,23.6l-1.5,1.5l0.5,0.5l1.5-1.5C21.3,24,21.1,23.8,21,23.6"/>
		<path opacity="0.6" fill="#FFFDF8" d="M19.7,20.6L17.6,21l0.1,0.7l2.1-0.4C19.8,21.2,19.7,20.9,19.7,20.6"/>
		<path opacity="0.6" fill="#FFFDF8" d="M29.3,19.9c0-2.3-1.9-4.2-4.2-4.2s-4.2,1.9-4.2,4.2c0,0.6,0.1,1.1,0.3,1.6h0l0,0l0,0.1
			c0.8,1.9,2,3.1,2,5.5H24h0.8h0.6h1H27c0-2.4,1.3-3.6,2-5.6h0C29.2,21,29.3,20.5,29.3,19.9"/>
		<polygon opacity="0.6" fill="#FFFDF8" points="23.1,28.9 23.2,28.9 23.1,28.8 		"/>
		<polygon opacity="0.6" fill="#FFFDF8" points="23.1,28.1 27,28.7 27,28.2 23.1,27.6 		"/>
		<polygon opacity="0.6" fill="#FFFDF8" points="23.5,27.4 27,28 27,27.5 26.6,27.4 		"/>
		<path opacity="0.6" fill="#FFFDF8" d="M23.1,28.8l0,0.1l3.4,0.5c0.2-0.1,0.3-0.2,0.3-0.4l-3.8-0.6V28.8z"/>
		<path opacity="0.6" fill="#FFFDF8" d="M23.9,29.5h1.7l-2.3-0.4C23.4,29.4,23.6,29.5,23.9,29.5"/>
	</g>
	<g>
		<path fill="#FFFFFF" d="M9.3,32.8h1v4.4h-1V32.8z"/>
		<path fill="#FFFFFF" d="M12.6,37.2c-0.4,0-0.8-0.2-1.1-0.5C11.2,36.4,11,36,11,35.5s0.2-0.9,0.5-1.2c0.3-0.3,0.7-0.5,1.1-0.5
			c0.4,0,0.7,0.1,1,0.4v-1.7h0.9v4.7h-0.9v-0.4C13.3,37.1,13,37.2,12.6,37.2z M12,35.5c0,0.3,0.1,0.5,0.2,0.7
			c0.2,0.2,0.4,0.3,0.6,0.3s0.4-0.1,0.6-0.3c0.2-0.2,0.2-0.4,0.2-0.7s-0.1-0.5-0.2-0.7c-0.2-0.2-0.3-0.3-0.6-0.3
			c-0.2,0-0.4,0.1-0.6,0.3S12,35.2,12,35.5z"/>
		<path fill="#FFFFFF" d="M18.3,36.7c-0.4,0.4-0.8,0.5-1.3,0.5c-0.5,0-0.9-0.2-1.3-0.5c-0.3-0.3-0.5-0.7-0.5-1.3
			c0-0.5,0.2-1,0.5-1.3c0.3-0.3,0.7-0.5,1.2-0.5c0.5,0,0.9,0.1,1.2,0.4c0.3,0.3,0.5,0.7,0.5,1.2v0.5h-2.5c0,0.2,0.1,0.3,0.3,0.5
			s0.3,0.2,0.6,0.2c0.3,0,0.6-0.1,0.8-0.3L18.3,36.7z M17.4,34.7c-0.1-0.1-0.3-0.2-0.5-0.2c-0.2,0-0.4,0.1-0.5,0.2
			c-0.2,0.1-0.2,0.3-0.3,0.5h1.5C17.6,34.9,17.6,34.8,17.4,34.7z"/>
		<path fill="#FFFFFF" d="M22.2,37.2h-0.9v-0.4c-0.2,0.3-0.5,0.5-0.9,0.5c-0.4,0-0.7-0.1-0.9-0.3c-0.2-0.2-0.4-0.5-0.4-0.8
			s0.1-0.6,0.4-0.8c0.3-0.2,0.6-0.3,1-0.3h0.7v0c0-0.4-0.2-0.5-0.6-0.5c-0.2,0-0.3,0-0.5,0.1c-0.2,0.1-0.3,0.1-0.5,0.2l-0.4-0.6
			c0.4-0.3,1-0.5,1.5-0.5c0.4,0,0.7,0.1,1,0.3s0.4,0.5,0.4,1V37.2z M21.2,35.9v-0.2h-0.6c-0.4,0-0.6,0.1-0.6,0.4
			c0,0.1,0,0.2,0.1,0.3c0.1,0.1,0.2,0.1,0.4,0.1c0.2,0,0.3-0.1,0.4-0.2S21.2,36.1,21.2,35.9z"/>
		<path fill="#FFFFFF" d="M24.1,34.5V36c0,0.1,0,0.2,0.1,0.3c0.1,0.1,0.1,0.1,0.2,0.1c0.2,0,0.3-0.1,0.4-0.2l0.4,0.7
			c-0.3,0.3-0.6,0.4-0.9,0.4s-0.6-0.1-0.8-0.3c-0.2-0.2-0.3-0.5-0.3-0.9v-1.6h-0.4v-0.7h0.4v-1h1v1H25v0.7H24.1z"/>
		<path fill="#FFFFFF" d="M25.9,33.4c-0.1-0.1-0.2-0.2-0.2-0.4s0.1-0.3,0.2-0.4c0.1-0.1,0.2-0.2,0.4-0.2c0.2,0,0.3,0.1,0.4,0.2
			s0.2,0.2,0.2,0.4s-0.1,0.3-0.2,0.4c-0.1,0.1-0.2,0.2-0.4,0.2C26.1,33.5,26,33.5,25.9,33.4z M26.7,37.2h-0.9v-3.4h0.9V37.2z"/>
		<path fill="#FFFFFF" d="M31,35.5c0,0.5-0.2,0.9-0.5,1.2c-0.3,0.3-0.8,0.5-1.3,0.5s-0.9-0.2-1.3-0.5c-0.3-0.3-0.5-0.8-0.5-1.2
			c0-0.5,0.2-0.9,0.5-1.2c0.3-0.3,0.8-0.5,1.3-0.5s0.9,0.2,1.3,0.5C30.9,34.6,31,35,31,35.5z M28.4,35.5c0,0.3,0.1,0.5,0.2,0.7
			c0.2,0.2,0.4,0.3,0.6,0.3s0.4-0.1,0.6-0.3c0.2-0.2,0.2-0.4,0.2-0.7c0-0.3-0.1-0.5-0.2-0.7c-0.2-0.2-0.4-0.3-0.6-0.3
			s-0.4,0.1-0.6,0.3C28.5,35,28.4,35.2,28.4,35.5z"/>
		<path fill="#FFFFFF" d="M32.7,35.3v1.9h-0.9v-3.4h0.9v0.4c0.3-0.3,0.6-0.4,1-0.4s0.7,0.1,0.9,0.4c0.2,0.3,0.4,0.6,0.4,1v2.1H34
			v-1.9c0-0.5-0.2-0.8-0.6-0.8c-0.2,0-0.4,0.1-0.5,0.2C32.7,34.8,32.7,35,32.7,35.3z"/>
		<path fill="#FFFFFF" d="M40.1,36.8c-0.4,0.3-0.8,0.4-1.2,0.4s-0.8-0.1-1.1-0.4c-0.3-0.2-0.4-0.6-0.4-1c0-0.5,0.3-0.9,0.9-1.2
			c-0.1-0.2-0.2-0.3-0.3-0.4c-0.1-0.1-0.1-0.3-0.1-0.5c0-0.4,0.1-0.6,0.4-0.8s0.6-0.3,0.9-0.3s0.7,0.1,0.9,0.3
			c0.3,0.2,0.4,0.4,0.4,0.8c0,0.4-0.3,0.8-0.9,1.1c0.2,0.3,0.4,0.5,0.5,0.6c0.1-0.2,0.2-0.4,0.2-0.6l0.7,0.5
			c-0.1,0.3-0.2,0.5-0.4,0.7l0.6,0.6l-0.6,0.6L40.1,36.8z M38.4,36.3c0.1,0.1,0.3,0.1,0.5,0.1c0.2,0,0.4-0.1,0.6-0.3
			c-0.3-0.3-0.6-0.6-0.8-0.9c-0.3,0.2-0.5,0.4-0.5,0.6C38.2,36.1,38.3,36.2,38.4,36.3z M39.1,33.4c-0.1,0-0.2,0-0.2,0.1
			c-0.1,0.1-0.1,0.2-0.1,0.3c0,0.1,0.1,0.3,0.3,0.5c0.3-0.2,0.5-0.3,0.5-0.5c0-0.1,0-0.2-0.1-0.3C39.3,33.4,39.2,33.4,39.1,33.4z"/>
	</g>
	<g>
		<path fill="#FFFFFF" d="M12.4,43.9c0.5,0,0.9-0.2,1.2-0.6l0.6,0.7c-0.5,0.6-1.1,0.8-1.8,0.8c-0.7,0-1.2-0.2-1.7-0.6
			c-0.4-0.4-0.7-1-0.7-1.6c0-0.7,0.2-1.2,0.7-1.6c0.4-0.4,1-0.7,1.6-0.7c0.7,0,1.3,0.3,1.8,0.8l-0.6,0.7c-0.3-0.4-0.7-0.6-1.2-0.6
			c-0.4,0-0.7,0.1-0.9,0.4c-0.3,0.2-0.4,0.6-0.4,1s0.1,0.7,0.4,1S12.1,43.9,12.4,43.9z"/>
		<path fill="#FFFFFF" d="M18.2,43.1c0,0.5-0.2,0.9-0.5,1.2c-0.3,0.3-0.8,0.5-1.3,0.5c-0.5,0-0.9-0.2-1.3-0.5
			c-0.3-0.3-0.5-0.8-0.5-1.2c0-0.5,0.2-0.9,0.5-1.2c0.3-0.3,0.8-0.5,1.3-0.5c0.5,0,0.9,0.2,1.3,0.5C18,42.2,18.2,42.6,18.2,43.1z
			 M15.6,43.1c0,0.3,0.1,0.5,0.2,0.7c0.2,0.2,0.4,0.3,0.6,0.3s0.4-0.1,0.6-0.3c0.2-0.2,0.2-0.4,0.2-0.7c0-0.3-0.1-0.5-0.2-0.7
			c-0.2-0.2-0.4-0.3-0.6-0.3s-0.4,0.1-0.6,0.3C15.6,42.6,15.6,42.8,15.6,43.1z"/>
		<path fill="#FFFFFF" d="M19.8,42.9v1.9h-0.9v-3.4h0.9v0.4c0.3-0.3,0.6-0.4,1-0.4s0.7,0.1,0.9,0.4c0.2,0.3,0.4,0.6,0.4,1v2.1h-0.9
			v-1.9c0-0.5-0.2-0.8-0.6-0.8c-0.2,0-0.4,0.1-0.5,0.2C19.9,42.4,19.8,42.6,19.8,42.9z"/>
		<path fill="#FFFFFF" d="M24.6,44c0.3,0,0.6-0.2,0.9-0.5l0.6,0.6c-0.4,0.5-0.9,0.7-1.4,0.7c-0.5,0-0.9-0.2-1.3-0.5
			s-0.5-0.7-0.5-1.3s0.2-0.9,0.5-1.3c0.4-0.3,0.8-0.5,1.3-0.5c0.2,0,0.5,0.1,0.7,0.2c0.3,0.1,0.5,0.3,0.7,0.4l-0.5,0.6
			c-0.1-0.1-0.2-0.2-0.4-0.3c-0.2-0.1-0.3-0.1-0.5-0.1c-0.2,0-0.5,0.1-0.6,0.2c-0.2,0.2-0.3,0.4-0.3,0.7s0.1,0.5,0.3,0.7
			C24.1,43.9,24.3,44,24.6,44z"/>
		<path fill="#FFFFFF" d="M29.5,44.3c-0.4,0.4-0.8,0.5-1.3,0.5c-0.5,0-0.9-0.2-1.3-0.5c-0.3-0.3-0.5-0.7-0.5-1.3
			c0-0.5,0.2-1,0.5-1.3c0.3-0.3,0.7-0.5,1.2-0.5c0.5,0,0.9,0.1,1.2,0.4c0.3,0.3,0.5,0.7,0.5,1.2v0.5h-2.5c0,0.2,0.1,0.3,0.3,0.5
			S28,44,28.2,44c0.3,0,0.6-0.1,0.8-0.3L29.5,44.3z M28.6,42.3c-0.1-0.1-0.3-0.2-0.5-0.2c-0.2,0-0.4,0.1-0.5,0.2
			c-0.2,0.1-0.2,0.3-0.3,0.5h1.5C28.8,42.5,28.8,42.4,28.6,42.3z"/>
		<path fill="#FFFFFF" d="M32.5,41.3c0.4,0,0.7,0.2,1.1,0.5c0.3,0.3,0.5,0.7,0.5,1.2c0,0.5-0.2,0.9-0.5,1.3
			c-0.3,0.3-0.7,0.5-1.1,0.5c-0.4,0-0.7-0.2-1-0.5V46h-0.9v-4.6h0.9v0.4C31.7,41.5,32.1,41.3,32.5,41.3z M31.4,43.1
			c0,0.3,0.1,0.5,0.2,0.7c0.2,0.2,0.3,0.3,0.6,0.3s0.4-0.1,0.6-0.3c0.2-0.2,0.2-0.4,0.2-0.7c0-0.3-0.1-0.5-0.2-0.7
			c-0.2-0.2-0.4-0.3-0.6-0.3c-0.2,0-0.4,0.1-0.6,0.3S31.4,42.8,31.4,43.1z"/>
		<path fill="#FFFFFF" d="M35.8,42.1v1.5c0,0.1,0,0.2,0.1,0.3C36,44,36,44,36.1,44c0.2,0,0.3-0.1,0.4-0.2l0.4,0.7
			c-0.3,0.3-0.6,0.4-0.9,0.4s-0.6-0.1-0.8-0.3c-0.2-0.2-0.3-0.5-0.3-0.9v-1.6h-0.4v-0.7h0.4v-1h1v1h0.8v0.7H35.8z"/>
		<path fill="#FFFFFF" d="M40,43.7c0,0.3-0.1,0.6-0.4,0.8s-0.6,0.3-0.9,0.3c-0.3,0-0.5,0-0.8-0.1c-0.3-0.1-0.5-0.2-0.7-0.4l0.4-0.6
			c0.4,0.3,0.7,0.4,1.1,0.4c0.1,0,0.2,0,0.3-0.1c0.1,0,0.1-0.1,0.1-0.2c0-0.1,0-0.2-0.1-0.2s-0.2-0.1-0.4-0.2
			c-0.2-0.1-0.3-0.1-0.4-0.2s-0.2-0.1-0.3-0.2c-0.3-0.2-0.4-0.4-0.4-0.7c0-0.3,0.1-0.6,0.4-0.8c0.3-0.2,0.6-0.3,1-0.3
			c0.4,0,0.8,0.1,1.2,0.4l-0.4,0.6c-0.3-0.2-0.6-0.3-0.9-0.3c-0.3,0-0.4,0.1-0.4,0.2c0,0.1,0,0.2,0.1,0.2c0.1,0.1,0.2,0.1,0.5,0.2
			c0.2,0.1,0.4,0.1,0.5,0.2c0.1,0,0.2,0.1,0.3,0.2C39.9,43.2,40,43.4,40,43.7z"/>
	</g>
</g>
</svg>
