<?xml version="1.0" encoding="utf-8"?>
<!-- Generator: Adobe Illustrator 18.1.1, SVG Export Plug-In . SVG Version: 6.00 Build 0)  -->
<svg version="1.1" id="Layer_1" xmlns="http://www.w3.org/2000/svg" xmlns:xlink="http://www.w3.org/1999/xlink" x="0px" y="0px"
	 width="50.5px" height="50.6px" viewBox="0 0 50.5 50.6" enable-background="new 0 0 50.5 50.6" xml:space="preserve">
<path fill="#44A8A5" d="M0,50.6h50.5V21.5C50.5,9.6,40.9,0,29,0L0,0L0,50.6z"/>
<g>
	<path fill="#FFFFFF" d="M16.6,32.8h1v1.8l1.7-1.8h1.2l-1.8,2c0.2,0.2,0.4,0.6,0.9,1.2s0.7,1,0.9,1.3h-1.2L18,35.5L17.6,36v1.3h-1
		V32.8z"/>
	<path fill="#FFFFFF" d="M21.9,35.4v1.9h-1v-3.5h1v0.4c0.3-0.3,0.6-0.4,1-0.4c0.4,0,0.7,0.1,0.9,0.4c0.2,0.3,0.4,0.6,0.4,1v2.1h-1
		v-2c0-0.5-0.2-0.8-0.6-0.8c-0.2,0-0.4,0.1-0.5,0.2C22,34.9,21.9,35.1,21.9,35.4z"/>
	<path fill="#FFFFFF" d="M28.6,35.6c0,0.5-0.2,0.9-0.5,1.3s-0.8,0.5-1.3,0.5c-0.5,0-1-0.2-1.3-0.5c-0.3-0.3-0.5-0.8-0.5-1.3
		c0-0.5,0.2-0.9,0.5-1.3c0.3-0.3,0.8-0.5,1.3-0.5c0.5,0,1,0.2,1.3,0.5C28.4,34.7,28.6,35.1,28.6,35.6z M25.9,35.6
		c0,0.3,0.1,0.5,0.2,0.7c0.2,0.2,0.4,0.3,0.6,0.3c0.3,0,0.5-0.1,0.6-0.3c0.2-0.2,0.2-0.4,0.2-0.7c0-0.3-0.1-0.5-0.2-0.7
		c-0.2-0.2-0.4-0.3-0.6-0.3c-0.3,0-0.5,0.1-0.6,0.3C25.9,35.1,25.9,35.3,25.9,35.6z"/>
	<path fill="#FFFFFF" d="M31,37.3h-1l-1.2-3.5h1l0.7,2.1l0.7-2.1h0.9l0.7,2.1l0.7-2.1h1l-1.2,3.5h-1l-0.6-1.9L31,37.3z"/>
</g>
<g>
	<path fill="#FFFFFF" d="M19.7,43.9c0.2,0.2,0.4,0.3,0.7,0.3c0.3,0,0.5-0.1,0.7-0.3c0.2-0.2,0.2-0.5,0.2-0.9v-2.5h1v2.5
		c0,0.7-0.2,1.2-0.5,1.5c-0.4,0.3-0.8,0.5-1.4,0.5s-1-0.2-1.4-0.5s-0.5-0.9-0.5-1.5v-2.5h1V43C19.4,43.4,19.5,43.7,19.7,43.9z"/>
	<path fill="#FFFFFF" d="M25.7,44c0,0.3-0.1,0.6-0.4,0.8c-0.3,0.2-0.6,0.3-1,0.3c-0.3,0-0.5,0-0.8-0.1c-0.3-0.1-0.5-0.2-0.8-0.4
		l0.4-0.6c0.4,0.3,0.7,0.4,1.2,0.4c0.1,0,0.2,0,0.3-0.1c0.1,0,0.1-0.1,0.1-0.2c0-0.1-0.1-0.2-0.2-0.2c-0.1-0.1-0.2-0.1-0.4-0.2
		c-0.2-0.1-0.3-0.1-0.4-0.2c-0.1,0-0.2-0.1-0.3-0.2c-0.3-0.2-0.4-0.4-0.4-0.7s0.1-0.6,0.4-0.8c0.3-0.2,0.6-0.3,1-0.3
		s0.8,0.1,1.2,0.4l-0.4,0.6c-0.3-0.2-0.6-0.3-0.9-0.3c-0.3,0-0.4,0.1-0.4,0.2c0,0.1,0,0.2,0.1,0.2c0.1,0.1,0.3,0.1,0.5,0.2
		c0.2,0.1,0.4,0.1,0.5,0.2s0.2,0.1,0.3,0.2C25.6,43.4,25.7,43.6,25.7,44z"/>
	<path fill="#FFFFFF" d="M29.5,44.5c-0.4,0.4-0.8,0.6-1.4,0.6c-0.5,0-1-0.2-1.3-0.5c-0.3-0.3-0.5-0.8-0.5-1.3c0-0.5,0.2-1,0.5-1.3
		c0.3-0.3,0.8-0.5,1.2-0.5c0.5,0,0.9,0.1,1.2,0.4s0.5,0.7,0.5,1.2v0.5h-2.5c0,0.2,0.1,0.3,0.3,0.5s0.4,0.2,0.6,0.2
		c0.3,0,0.6-0.1,0.8-0.3L29.5,44.5z M28.5,42.5c-0.1-0.1-0.3-0.2-0.5-0.2c-0.2,0-0.4,0.1-0.5,0.2c-0.2,0.1-0.3,0.3-0.3,0.5h1.5
		C28.7,42.8,28.7,42.6,28.5,42.5z"/>
	<path fill="#FFFFFF" d="M32.3,42.4c-0.3,0-0.5,0.1-0.6,0.3c-0.1,0.2-0.2,0.5-0.2,0.8V45h-1v-3.5h1V42c0.1-0.1,0.3-0.3,0.5-0.4
		s0.4-0.2,0.6-0.2l0,0.9H32.3z"/>
</g>
<path opacity="0.6" fill="#FFFFFF" d="M25.3,14.9c-2.4,0-4.4,2-4.4,4.4c0,1.5,0.7,2.8,1.9,3.6c-2,0.7-3.5,2.7-3.5,5v2h12v-2
	c0-2.4-1.5-4.4-3.5-5c1.1-0.8,1.9-2.1,1.9-3.6C29.7,16.9,27.7,14.9,25.3,14.9 M25.3,22.7c-1.9,0-3.4-1.5-3.4-3.4
	c0-1.9,1.5-3.4,3.4-3.4c1.9,0,3.4,1.5,3.4,3.4C28.6,21.2,27.1,22.7,25.3,22.7 M20.4,28.9v-1c0-2.3,1.7-4.2,3.8-4.2h2.2
	c2.1,0,3.8,1.9,3.8,4.2v1H20.4z"/>
</svg>
