<?xml version="1.0" encoding="utf-8"?>
<!-- Generator: Adobe Illustrator 18.1.1, SVG Export Plug-In . SVG Version: 6.00 Build 0)  -->
<svg version="1.1" id="Layer_1" xmlns="http://www.w3.org/2000/svg" xmlns:xlink="http://www.w3.org/1999/xlink" x="0px" y="0px"
	 width="50.5px" height="50.6px" viewBox="0 0 50.5 50.6" enable-background="new 0 0 50.5 50.6" xml:space="preserve">
<path fill="#57B36E" d="M50.5,50.6H0V21.5C0,9.6,9.6,0,21.5,0h29V50.6z"/>
<path opacity="0.6" fill="#FFFFFF" d="M23.9,14.8c-0.6,0-1.3,0.1-1.9,0.3c-0.9,0.3-1.7,0.8-2.5,1.5c-1.3,1.3-1.9,3.1-1.8,4.8
	c0.1,1.4,0.7,2.8,1.8,3.8c1.1,1.1,2.4,1.6,3.8,1.8c0.2,0,0.3,0,0.5,0c1.2,0,2.4-0.3,3.4-1l3.6,3.6c0.2,0.2,0.5,0.3,0.8,0.3
	s0.6-0.1,0.8-0.3c0.5-0.5,0.5-1.2,0-1.7l-3.6-3.6c0.3-0.5,0.6-1,0.7-1.5c0.7-2.1,0.2-4.5-1.5-6.2C27,15.4,25.4,14.8,23.9,14.8
	 M23.8,25.6c-0.9,0-1.8-0.3-2.6-0.8c-0.3-0.2-0.5-0.4-0.7-0.6c-0.2-0.2-0.4-0.5-0.6-0.7c-1.2-1.8-1-4.3,0.6-6
	c0.7-0.7,1.7-1.2,2.6-1.3c0.2,0,0.5-0.1,0.7-0.1c1.2,0,2.4,0.5,3.3,1.4c1.1,1.1,1.6,2.6,1.3,4.1c-0.1,1-0.6,1.9-1.3,2.6
	C26.3,25.1,25.1,25.6,23.8,25.6"/>
<path opacity="0.6" fill="#FFFFFF" d="M23.8,18.5c-0.8,0-1.4,0.6-1.4,1.4c0,0.5,0.2,0.9,0.6,1.1c-0.6,0.2-1.1,0.8-1.1,1.6v0.6h3.7
	v-0.6c0-0.7-0.5-1.4-1.1-1.6c0.4-0.2,0.6-0.7,0.6-1.1C25.2,19.1,24.6,18.5,23.8,18.5 M23.8,20.9c-0.6,0-1.1-0.5-1.1-1.1
	c0-0.6,0.5-1.1,1.1-1.1c0.6,0,1.1,0.5,1.1,1.1C24.9,20.5,24.4,20.9,23.8,20.9 M22.3,22.9v-0.3c0-0.7,0.5-1.3,1.2-1.3h0.7
	c0.7,0,1.2,0.6,1.2,1.3v0.3H22.3z"/>
<g>
	<path fill="#FFFFFF" d="M14.5,36.5c0,0.7-0.3,1.2-0.8,1.4l1.1,1.6h-1.2l-1-1.4H12v1.4h-1V35h1.7c0.7,0,1.2,0.1,1.5,0.3
		C14.4,35.6,14.5,36,14.5,36.5z M13.4,37c0.1-0.1,0.2-0.3,0.2-0.5s-0.1-0.4-0.2-0.5c-0.1-0.1-0.3-0.1-0.7-0.1H12v1.3h0.7
		C13,37.2,13.2,37.1,13.4,37z"/>
	<path fill="#FFFFFF" d="M18.4,39c-0.4,0.4-0.8,0.5-1.3,0.5c-0.5,0-0.9-0.2-1.3-0.5c-0.3-0.3-0.5-0.7-0.5-1.3c0-0.5,0.2-1,0.5-1.3
		c0.3-0.3,0.7-0.5,1.2-0.5c0.5,0,0.9,0.1,1.2,0.4c0.3,0.3,0.5,0.7,0.5,1.2v0.5h-2.5c0,0.2,0.1,0.3,0.3,0.5s0.3,0.2,0.6,0.2
		c0.3,0,0.6-0.1,0.8-0.3L18.4,39z M17.5,37c-0.1-0.1-0.3-0.2-0.5-0.2c-0.2,0-0.4,0.1-0.5,0.2c-0.2,0.1-0.2,0.3-0.3,0.5h1.5
		C17.7,37.2,17.6,37.1,17.5,37z"/>
	<path fill="#FFFFFF" d="M21.9,38.4c0,0.3-0.1,0.6-0.4,0.8s-0.6,0.3-0.9,0.3c-0.3,0-0.5,0-0.8-0.1c-0.3-0.1-0.5-0.2-0.7-0.4l0.4-0.6
		c0.4,0.3,0.7,0.4,1.1,0.4c0.1,0,0.2,0,0.3-0.1c0.1,0,0.1-0.1,0.1-0.2c0-0.1,0-0.2-0.1-0.2s-0.2-0.1-0.4-0.2
		C20.3,38.1,20.1,38,20,38s-0.2-0.1-0.3-0.2c-0.3-0.2-0.4-0.4-0.4-0.7c0-0.3,0.1-0.6,0.4-0.8c0.3-0.2,0.6-0.3,1-0.3
		c0.4,0,0.8,0.1,1.2,0.4L21.5,37c-0.3-0.2-0.6-0.3-0.9-0.3c-0.3,0-0.4,0.1-0.4,0.2c0,0.1,0,0.2,0.1,0.2c0.1,0.1,0.2,0.1,0.5,0.2
		c0.2,0.1,0.4,0.1,0.5,0.2c0.1,0,0.2,0.1,0.3,0.2C21.8,37.8,21.9,38.1,21.9,38.4z"/>
	<path fill="#FFFFFF" d="M25.6,39c-0.4,0.4-0.8,0.5-1.3,0.5c-0.5,0-0.9-0.2-1.3-0.5c-0.3-0.3-0.5-0.7-0.5-1.3c0-0.5,0.2-1,0.5-1.3
		c0.3-0.3,0.7-0.5,1.2-0.5c0.5,0,0.9,0.1,1.2,0.4c0.3,0.3,0.5,0.7,0.5,1.2v0.5h-2.5c0,0.2,0.1,0.3,0.3,0.5s0.3,0.2,0.6,0.2
		c0.3,0,0.6-0.1,0.8-0.3L25.6,39z M24.7,37c-0.1-0.1-0.3-0.2-0.5-0.2c-0.2,0-0.4,0.1-0.5,0.2c-0.2,0.1-0.2,0.3-0.3,0.5h1.5
		C24.9,37.2,24.8,37.1,24.7,37z"/>
	<path fill="#FFFFFF" d="M29.4,39.5h-0.9V39c-0.2,0.3-0.5,0.5-0.9,0.5c-0.4,0-0.7-0.1-0.9-0.3c-0.2-0.2-0.4-0.5-0.4-0.8
		s0.1-0.6,0.4-0.8c0.3-0.2,0.6-0.3,1-0.3h0.7v0c0-0.4-0.2-0.5-0.6-0.5c-0.2,0-0.3,0-0.5,0.1c-0.2,0.1-0.3,0.1-0.5,0.2l-0.4-0.6
		c0.4-0.3,1-0.5,1.5-0.5c0.4,0,0.7,0.1,1,0.3s0.4,0.5,0.4,1V39.5z M28.5,38.2V38h-0.6c-0.4,0-0.6,0.1-0.6,0.4c0,0.1,0,0.2,0.1,0.3
		c0.1,0.1,0.2,0.1,0.4,0.1c0.2,0,0.3-0.1,0.4-0.2S28.5,38.3,28.5,38.2z"/>
	<path fill="#FFFFFF" d="M32.1,36.9c-0.3,0-0.5,0.1-0.6,0.3s-0.2,0.5-0.2,0.8v1.5h-0.9v-3.4h0.9v0.4c0.1-0.1,0.3-0.3,0.5-0.4
		c0.2-0.1,0.4-0.1,0.6-0.2l0,0.9H32.1z"/>
	<path fill="#FFFFFF" d="M34.5,38.7c0.3,0,0.6-0.2,0.9-0.5l0.6,0.6c-0.4,0.5-0.9,0.7-1.4,0.7c-0.5,0-0.9-0.2-1.3-0.5
		s-0.5-0.7-0.5-1.3s0.2-0.9,0.5-1.3c0.4-0.3,0.8-0.5,1.3-0.5c0.2,0,0.5,0.1,0.7,0.2c0.3,0.1,0.5,0.3,0.7,0.4l-0.5,0.6
		c-0.1-0.1-0.2-0.2-0.4-0.3c-0.2-0.1-0.3-0.1-0.5-0.1c-0.2,0-0.5,0.1-0.6,0.2c-0.2,0.2-0.3,0.4-0.3,0.7s0.1,0.5,0.3,0.7
		C34.1,38.6,34.3,38.7,34.5,38.7z"/>
	<path fill="#FFFFFF" d="M37.5,37.6v1.8h-0.9v-4.7h0.9v1.7c0.3-0.3,0.6-0.4,1-0.4c0.4,0,0.7,0.1,0.9,0.4s0.4,0.6,0.4,1v2.1h-0.9
		v-1.9c0-0.5-0.2-0.8-0.6-0.8c-0.2,0-0.4,0.1-0.5,0.2C37.6,37.2,37.5,37.4,37.5,37.6z"/>
</g>
</svg>
