<?xml version="1.0" encoding="utf-8"?>
<!-- Generator: Adobe Illustrator 18.1.1, SVG Export Plug-In . SVG Version: 6.00 Build 0)  -->
<svg version="1.1" id="Layer_1" xmlns="http://www.w3.org/2000/svg" xmlns:xlink="http://www.w3.org/1999/xlink" x="0px" y="0px"
	 width="106px" height="76.5px" viewBox="0 0 106 76.5" enable-background="new 0 0 106 76.5" xml:space="preserve">
<g>
	<polygon fill="#E74128" points="33.4,70.6 33.4,72.2 4,72.2 4,43.4 5.6,43.4 5.6,70.6 	"/>
	<polygon fill="#E74128" points="29.4,74.9 29.4,76.5 0,76.5 0,47.7 1.6,47.7 1.6,74.9 	"/>
	<g>
		<path fill="#E74128" d="M24,53.7c0.6-0.6,0.9-1.4,0.9-2.5c0-1.1-0.3-2-0.9-2.6c-0.6-0.6-1.6-0.9-2.8-0.9h-1.4v6.9h1.6
			C22.5,54.6,23.4,54.3,24,53.7"/>
		<path fill="#E74128" d="M30.1,62.5H14.6v-2h15.5V62.5z M17.3,45.5h4c2,0,3.6,0.5,4.6,1.5c1.1,1,1.6,2.4,1.6,4.1s-0.5,3.1-1.6,4.2
			c-1,1-2.6,1.5-4.8,1.5h-3.9V45.5z M8.3,68.3h28v-28h-28V68.3z"/>
		<path fill="#E74128" d="M39.5,11.1c0.8-0.7,1.1-1.7,1.1-3.1c0-1.3-0.4-2.4-1.1-3.1c-0.8-0.7-1.9-1.1-3.5-1.1h-1.7v8.3h1.9
			C37.7,12.1,38.8,11.8,39.5,11.1 M41.8,2.9c1.3,1.2,2,2.9,2,5c0,2.1-0.6,3.8-1.9,5.1c-1.3,1.2-3.2,1.9-5.8,1.9h-4.7V1.1h4.8
			C38.6,1.1,40.5,1.7,41.8,2.9"/>
		<path fill="#E74128" d="M54,7.1c-0.4-0.3-0.9-0.5-1.5-0.5c-0.6,0-1.1,0.2-1.6,0.5c-0.5,0.4-0.8,0.8-0.8,1.4h4.6
			C54.6,7.9,54.4,7.4,54,7.1 M56.8,13.3c-1.2,1.1-2.6,1.7-4.2,1.7c-1.6,0-2.9-0.5-4-1.5c-1-1-1.6-2.3-1.6-4c0-1.7,0.5-3,1.6-4
			c1.1-1,2.3-1.5,3.8-1.5c1.5,0,2.7,0.4,3.7,1.3c1,0.9,1.5,2.1,1.5,3.6v1.6H50c0.1,0.6,0.4,1,0.9,1.4c0.5,0.4,1.1,0.5,1.7,0.5
			c1,0,1.9-0.3,2.6-1L56.8,13.3z"/>
		<path fill="#E74128" d="M69.3,11.6c0,1-0.4,1.9-1.1,2.5c-0.8,0.6-1.7,0.9-2.9,0.9c-0.8,0-1.6-0.1-2.5-0.4
			c-0.9-0.3-1.6-0.7-2.3-1.2l1.3-1.8c1.1,0.9,2.3,1.3,3.5,1.3c0.4,0,0.7-0.1,0.9-0.2c0.2-0.2,0.3-0.3,0.3-0.6s-0.2-0.5-0.5-0.7
			c-0.3-0.2-0.8-0.4-1.3-0.6c-0.6-0.2-1-0.3-1.3-0.5c-0.3-0.1-0.7-0.3-1-0.6c-0.8-0.5-1.2-1.2-1.2-2.2c0-1,0.4-1.8,1.2-2.4
			c0.8-0.6,1.8-0.9,3-0.9c1.2,0,2.5,0.4,3.7,1.3l-1.1,2c-0.9-0.6-1.8-0.9-2.7-0.9c-0.9,0-1.4,0.2-1.4,0.7c0,0.3,0.1,0.5,0.4,0.6
			c0.3,0.2,0.8,0.3,1.4,0.5c0.7,0.2,1.1,0.4,1.4,0.5c0.3,0.1,0.6,0.3,1,0.5C68.9,9.8,69.3,10.5,69.3,11.6"/>
		<path fill="#E74128" d="M76.1,14.8h-2.9V4.3h2.9V14.8z M73.4,3c-0.3-0.3-0.5-0.7-0.5-1.2c0-0.5,0.2-0.9,0.5-1.2
			C73.7,0.2,74.1,0,74.6,0c0.5,0,0.9,0.2,1.2,0.5c0.3,0.3,0.5,0.7,0.5,1.2c0,0.5-0.2,0.9-0.5,1.2c-0.3,0.3-0.7,0.5-1.2,0.5
			C74.1,3.5,73.7,3.3,73.4,3"/>
		<path fill="#E74128" d="M87.8,9.3c0-0.8-0.2-1.5-0.7-2c-0.5-0.5-1.1-0.7-1.7-0.7c-0.7,0-1.3,0.2-1.8,0.7c-0.5,0.5-0.8,1.1-0.8,2
			c0,0.8,0.2,1.5,0.7,2c0.5,0.5,1.1,0.8,1.8,0.8s1.3-0.3,1.8-0.8S87.8,10.2,87.8,9.3 M88.2,13.1c-0.9,1-2.1,1.5-3.5,1.5
			c-1.4,0-2.5-0.5-3.5-1.4c-0.9-0.9-1.4-2.2-1.4-3.7c0-1.6,0.5-2.8,1.5-3.8s2.1-1.5,3.3-1.5c1.3,0,2.3,0.5,3.1,1.5V4.3h2.9v9.2
			c0,0.9-0.2,1.8-0.5,2.5c-0.3,0.7-0.8,1.3-1.3,1.7c-1.1,0.9-2.4,1.3-3.8,1.3c-0.8,0-1.6-0.1-2.4-0.4c-0.8-0.3-1.5-0.6-2.1-1.1
			l1.1-2.2c1,0.7,2,1.1,3.1,1.1c1.1,0,1.9-0.3,2.6-0.8C87.9,15.1,88.2,14.2,88.2,13.1"/>
		<path fill="#E74128" d="M98,9v5.9h-2.9V4.3H98v1.2c0.9-0.9,1.9-1.4,3-1.4c1.1,0,2,0.4,2.8,1.2c0.8,0.8,1.1,1.8,1.1,3.1v6.4H102v-6
			c0-1.6-0.6-2.4-1.8-2.4c-0.6,0-1.1,0.2-1.5,0.6C98.2,7.5,98,8.1,98,9"/>
		<path fill="#E74128" d="M40.5,28.8v5.7h-3v-5.8c0-0.8-0.1-1.5-0.4-1.8c-0.3-0.4-0.7-0.6-1.2-0.6s-1.1,0.2-1.5,0.6
			c-0.4,0.4-0.7,1-0.7,1.9v5.7h-2.9V23.9h2.9v1.2c0.8-0.9,1.7-1.4,2.8-1.4c0.7,0,1.3,0.2,1.8,0.6c0.5,0.4,1,0.9,1.2,1.4
			c0.4-0.6,1-1.1,1.6-1.5c0.7-0.4,1.4-0.5,2.1-0.5c1.2,0,2.2,0.4,3,1.1c0.8,0.7,1.1,1.8,1.1,3.2v6.4h-3v-5.8c0-1.6-0.6-2.4-1.8-2.4
			c-0.6,0-1.1,0.2-1.5,0.6C40.7,27.3,40.5,28,40.5,28.8"/>
		<path fill="#E74128" d="M56.2,26.7c-0.4-0.3-0.9-0.5-1.5-0.5c-0.6,0-1.1,0.2-1.6,0.5c-0.5,0.4-0.8,0.8-0.8,1.4h4.6
			C56.9,27.5,56.6,27,56.2,26.7 M59,32.9c-1.2,1.1-2.6,1.7-4.2,1.7c-1.6,0-2.9-0.5-4-1.5c-1-1-1.6-2.3-1.6-4c0-1.7,0.5-3,1.6-4
			c1.1-1,2.3-1.5,3.8-1.5c1.5,0,2.7,0.4,3.7,1.3c1,0.9,1.5,2.1,1.5,3.6v1.6h-7.7c0.1,0.6,0.4,1,0.9,1.4c0.5,0.4,1.1,0.5,1.7,0.5
			c1,0,1.9-0.3,2.6-1L59,32.9z"/>
		<path fill="#E74128" d="M65.2,26v4.7c0,0.4,0.1,0.7,0.3,1c0.2,0.2,0.5,0.3,0.7,0.3c0.5,0,1-0.2,1.4-0.7l1.1,2.1
			c-0.9,0.8-1.9,1.3-2.9,1.3c-1,0-1.9-0.3-2.6-1c-0.7-0.7-1-1.6-1-2.7V26H61v-2.1h1.2v-3.2h3v3.2h2.6V26H65.2z"/>
		<path fill="#E74128" d="M72.7,28.8v5.7h-2.9V19.9h2.9v5.2c0.9-0.9,1.9-1.4,3-1.4c1.1,0,2,0.4,2.8,1.2c0.8,0.8,1.1,1.8,1.1,3.1v6.4
			h-2.9v-5.8c0-1.6-0.6-2.4-1.8-2.4c-0.6,0-1.1,0.2-1.5,0.6C72.9,27.3,72.7,28,72.7,28.8"/>
		<path fill="#E74128" d="M84.4,29.2c0,0.9,0.2,1.6,0.7,2.1c0.5,0.5,1.1,0.8,1.9,0.8c0.8,0,1.4-0.3,1.9-0.8c0.5-0.5,0.7-1.2,0.7-2.1
			c0-0.9-0.2-1.6-0.7-2.1c-0.5-0.5-1.1-0.8-1.9-0.8c-0.8,0-1.4,0.3-1.9,0.8C84.6,27.6,84.4,28.3,84.4,29.2 M92.6,29.2
			c0,1.5-0.5,2.8-1.6,3.9c-1.1,1-2.4,1.6-4,1.6c-1.6,0-2.9-0.5-4-1.6c-1.1-1-1.6-2.3-1.6-3.9c0-1.5,0.5-2.8,1.6-3.9
			c1.1-1.1,2.4-1.6,4-1.6c1.6,0,2.9,0.5,4,1.6C92.1,26.4,92.6,27.7,92.6,29.2"/>
		<path fill="#E74128" d="M96.9,29.2c0,0.9,0.3,1.5,0.8,2.1c0.5,0.5,1.1,0.8,1.8,0.8c0.7,0,1.3-0.3,1.7-0.8c0.5-0.5,0.7-1.2,0.7-2.1
			c0-0.9-0.2-1.6-0.7-2.1c-0.5-0.6-1.1-0.9-1.8-0.9c-0.7,0-1.3,0.3-1.8,0.9C97.2,27.6,96.9,28.4,96.9,29.2 M98.8,34.6
			c-1.2,0-2.4-0.5-3.3-1.6c-1-1.1-1.5-2.4-1.5-3.9s0.5-2.9,1.4-3.9c1-1,2.1-1.5,3.4-1.5s2.3,0.5,3.1,1.4v-5.2h2.9v14.6h-2.9v-1.4
			C101.1,34.1,100,34.6,98.8,34.6"/>
		<path fill="#E74128" d="M45.4,45.6v4.7c0,0.4,0.1,0.7,0.3,1c0.2,0.2,0.5,0.3,0.7,0.3c0.5,0,1-0.2,1.4-0.7l1.1,2.1
			c-0.9,0.8-1.9,1.3-2.9,1.3c-1,0-1.9-0.3-2.6-1c-0.7-0.7-1-1.6-1-2.7v-4.9h-1.2v-2.1h1.2v-3.2h3v3.2h2.6v2.1H45.4z"/>
		<path fill="#E74128" d="M52.8,48.8c0,0.9,0.2,1.6,0.7,2.1c0.5,0.5,1.1,0.8,1.9,0.8c0.8,0,1.4-0.3,1.9-0.8c0.5-0.5,0.7-1.2,0.7-2.1
			c0-0.9-0.2-1.6-0.7-2.1c-0.5-0.5-1.1-0.8-1.9-0.8c-0.8,0-1.4,0.3-1.9,0.8C53,47.2,52.8,47.9,52.8,48.8 M60.9,48.8
			c0,1.5-0.5,2.8-1.6,3.9c-1.1,1-2.4,1.6-4,1.6c-1.6,0-2.9-0.5-4-1.6c-1.1-1-1.6-2.3-1.6-3.9c0-1.5,0.5-2.8,1.6-3.9
			c1.1-1.1,2.4-1.6,4-1.6c1.6,0,2.9,0.5,4,1.6C60.4,46,60.9,47.3,60.9,48.8"/>
		<path fill="#E74128" d="M65.5,48.8c0,0.9,0.2,1.6,0.7,2.1c0.5,0.5,1.1,0.8,1.9,0.8c0.8,0,1.4-0.3,1.9-0.8c0.5-0.5,0.7-1.2,0.7-2.1
			c0-0.9-0.2-1.6-0.7-2.1c-0.5-0.5-1.1-0.8-1.9-0.8c-0.8,0-1.4,0.3-1.9,0.8C65.7,47.2,65.5,47.9,65.5,48.8 M73.7,48.8
			c0,1.5-0.5,2.8-1.6,3.9c-1.1,1-2.4,1.6-4,1.6c-1.6,0-2.9-0.5-4-1.6c-1.1-1-1.6-2.3-1.6-3.9c0-1.5,0.5-2.8,1.6-3.9
			c1.1-1.1,2.4-1.6,4-1.6c1.6,0,2.9,0.5,4,1.6C73.2,46,73.7,47.3,73.7,48.8"/>
	</g>
	<rect x="75.9" y="39.5" fill="#E74128" width="2.9" height="14.6"/>
	<polygon fill="#E74128" points="84.5,54.1 81.6,54.1 81.6,39.5 84.5,39.5 84.5,47 87.8,43.5 91.5,43.5 87.5,47.8 91.7,54.1 
		88.2,54.1 85.5,50 84.5,51 	"/>
	<g>
		<path fill="#E74128" d="M96.2,54.1h-2.9V43.5h2.9V54.1z M93.5,42.2C93.2,41.9,93,41.4,93,41c0-0.5,0.2-0.9,0.5-1.2
			c0.3-0.3,0.7-0.5,1.2-0.5c0.5,0,0.9,0.2,1.2,0.5c0.3,0.3,0.5,0.7,0.5,1.2c0,0.5-0.2,0.9-0.5,1.2c-0.3,0.3-0.7,0.5-1.2,0.5
			C94.2,42.7,93.8,42.5,93.5,42.2"/>
		<path fill="#E74128" d="M102.5,45.6v4.7c0,0.4,0.1,0.7,0.3,1c0.2,0.2,0.5,0.3,0.7,0.3c0.5,0,1-0.2,1.4-0.7L106,53
			c-0.9,0.8-1.9,1.3-2.9,1.3c-1,0-1.9-0.3-2.6-1c-0.7-0.7-1-1.6-1-2.7v-4.9h-1.2v-2.1h1.2v-3.2h3v3.2h2.6v2.1H102.5z"/>
	</g>
</g>
</svg>
